{"glyphs":{"0":{"ha":779,"x_min":40,"x_max":713,"o":"m 378 -22 q 207 42 285 -22 q 85 219 129 106 q 40 474 40 332 q 85 728 40 615 q 206 905 129 842 q 376 968 283 968 q 547 905 469 968 q 668 728 624 842 q 713 474 713 615 q 668 219 713 332 q 547 42 624 106 q 378 -22 471 -22 m 376 69 q 494 120 443 69 q 575 263 546 171 q 604 474 604 356 q 575 683 604 592 q 494 826 546 775 q 376 876 443 876 q 258 826 310 876 q 176 683 206 775 q 147 474 147 592 q 176 263 147 356 q 258 120 206 171 q 376 69 310 69 z "},"1":{"ha":575,"x_min":56,"x_max":428,"o":"m 333 947 l 428 947 l 428 0 l 333 0 l 333 792 l 108 569 l 56 622 l 333 947 z "},"2":{"ha":693,"x_min":35,"x_max":624,"o":"m 54 60 q 83 173 54 121 q 153 266 111 225 q 267 367 194 307 q 314 406 311 403 q 454 556 404 482 q 504 725 504 629 q 459 833 504 792 q 340 874 414 874 q 216 840 272 874 q 111 740 160 806 l 35 806 q 172 925 90 882 q 340 968 253 968 q 538 902 464 968 q 611 725 611 836 q 544 517 611 608 q 361 326 478 425 q 333 303 332 301 q 206 186 247 232 q 164 94 164 140 l 624 94 l 624 0 l 54 0 l 54 60 z "},"3":{"ha":738,"x_min":69,"x_max":654,"o":"m 483 504 q 607 414 560 481 q 654 260 654 347 q 615 115 654 179 q 506 14 575 50 q 356 -22 438 -22 q 179 31 253 -22 q 69 172 106 83 l 153 221 q 238 109 186 150 q 360 68 290 68 q 497 122 442 68 q 551 260 551 176 q 496 401 551 346 q 354 457 440 457 l 288 457 l 288 543 l 349 543 q 471 592 425 543 q 517 719 517 642 q 473 835 517 790 q 361 881 429 881 q 239 841 289 881 q 153 728 189 801 l 76 769 q 190 915 117 861 q 361 968 264 968 q 493 936 435 968 q 584 848 551 904 q 617 719 617 792 q 581 587 617 644 q 483 504 546 529 z "},"4":{"ha":797,"x_min":42,"x_max":732,"o":"m 732 306 l 732 211 l 611 211 l 611 0 l 517 0 l 517 211 l 42 211 l 42 306 l 517 947 l 611 947 l 611 306 l 732 306 m 142 306 l 517 306 l 517 800 l 142 306 z "},"5":{"ha":779,"x_min":78,"x_max":690,"o":"m 399 614 q 613 531 536 614 q 690 299 690 447 q 609 63 690 147 q 382 -22 528 -22 q 207 10 288 -22 q 78 103 126 43 l 151 154 q 248 88 186 111 q 385 64 310 64 q 541 126 485 64 q 597 299 597 188 q 542 467 596 407 q 390 528 488 528 q 261 508 329 528 q 133 451 193 488 l 133 947 l 642 947 l 642 850 l 228 850 l 228 583 q 399 614 315 614 z "},"6":{"ha":765,"x_min":58,"x_max":689,"o":"m 372 644 q 533 601 461 644 q 647 483 606 558 q 689 311 689 407 q 648 140 689 215 q 535 21 607 64 q 375 -22 464 -22 q 213 26 286 -22 q 99 160 140 74 q 58 354 58 246 q 127 695 58 557 q 315 901 196 833 q 583 968 433 968 l 583 879 q 304 790 414 879 q 164 538 194 701 q 253 617 193 589 q 372 644 313 644 m 372 64 q 485 96 435 64 q 565 184 536 128 q 594 311 594 240 q 565 438 594 382 q 485 526 536 494 q 372 558 435 558 q 212 492 271 558 q 153 326 153 426 q 182 191 153 251 q 261 97 211 131 q 372 64 311 64 z "},"7":{"ha":649,"x_min":63,"x_max":635,"o":"m 63 947 l 635 947 l 296 0 l 200 0 l 506 850 l 63 850 l 63 947 z "},"8":{"ha":769,"x_min":63,"x_max":707,"o":"m 386 -22 q 222 14 296 -22 q 106 117 149 50 q 63 269 63 183 q 112 428 63 365 q 254 518 161 490 q 103 721 103 572 q 141 853 103 797 q 244 938 179 908 q 385 968 308 968 q 527 938 463 968 q 629 852 592 908 q 667 721 667 796 q 517 518 667 572 q 659 426 611 486 q 707 269 707 365 q 665 118 707 185 q 550 15 624 51 q 386 -22 476 -22 m 386 564 q 517 603 471 564 q 564 719 564 642 q 516 837 564 799 q 385 875 468 875 q 253 836 301 875 q 204 721 204 797 q 254 603 204 642 q 386 564 304 564 m 383 71 q 547 123 488 71 q 606 271 606 175 q 547 419 606 368 q 385 471 489 471 q 222 419 282 471 q 163 272 163 368 q 222 123 163 175 q 383 71 281 71 z "},"9":{"ha":779,"x_min":64,"x_max":694,"o":"m 378 968 q 540 920 467 968 q 653 786 613 872 q 694 592 694 700 q 626 251 694 389 q 438 45 557 113 q 169 -22 319 -22 l 169 67 q 449 156 339 67 q 589 408 558 244 q 500 329 560 357 q 381 301 440 301 q 219 344 292 301 q 106 463 147 388 q 64 635 64 539 q 105 806 64 731 q 217 925 146 882 q 378 968 289 968 m 381 388 q 541 453 482 388 q 600 619 600 519 q 571 755 600 694 q 492 849 542 815 q 381 882 442 882 q 267 850 318 882 q 188 762 217 818 q 158 635 158 706 q 188 508 158 564 q 267 419 217 451 q 381 388 318 388 z "},"\u0000":{"ha":0,"x_min":0,"x_max":0,"o":""},"\r":{"ha":310,"x_min":0,"x_max":0,"o":""}," ":{"ha":310,"x_min":0,"x_max":0,"o":""},"A":{"ha":813,"x_min":17,"x_max":796,"o":"m 699 0 l 601 265 l 208 265 l 121 0 l 17 0 l 353 947 l 450 947 l 796 0 l 699 0 m 240 351 l 569 351 l 400 811 l 240 351 z "},"Á":{"ha":813,"x_min":17,"x_max":796,"o":"m 699 0 l 601 265 l 208 265 l 121 0 l 17 0 l 353 947 l 450 947 l 796 0 l 699 0 m 240 351 l 569 351 l 400 811 l 240 351 m 261 1007 l 233 1054 l 533 1208 l 581 1128 l 261 1007 z "},"Ă":{"ha":813,"x_min":17,"x_max":796,"o":"m 699 0 l 601 265 l 208 265 l 121 0 l 17 0 l 353 947 l 450 947 l 796 0 l 699 0 m 240 351 l 569 351 l 400 811 l 240 351 m 407 1028 q 261 1069 317 1028 q 204 1192 206 1110 l 261 1192 q 407 1113 275 1113 q 553 1192 539 1113 l 610 1192 q 553 1069 608 1110 q 407 1028 497 1028 z "},"Ǎ":{"ha":813,"x_min":17,"x_max":796,"o":"m 699 0 l 601 265 l 208 265 l 121 0 l 17 0 l 353 947 l 450 947 l 796 0 l 699 0 m 240 351 l 569 351 l 400 811 l 240 351 m 217 1211 l 406 1118 l 596 1211 l 622 1164 l 406 1019 l 190 1164 l 217 1211 z "},"Â":{"ha":813,"x_min":17,"x_max":796,"o":"m 699 0 l 601 265 l 208 265 l 121 0 l 17 0 l 353 947 l 450 947 l 796 0 l 699 0 m 240 351 l 569 351 l 400 811 l 240 351 m 217 1024 l 190 1071 l 406 1215 l 622 1071 l 596 1024 l 406 1117 l 217 1024 z "},"Ậ":{"ha":813,"x_min":17,"x_max":796,"o":"m 699 0 l 601 265 l 208 265 l 121 0 l 17 0 l 353 947 l 450 947 l 796 0 l 699 0 m 240 351 l 569 351 l 400 811 l 240 351 m 217 1024 l 190 1071 l 406 1215 l 622 1071 l 596 1024 l 406 1117 l 217 1024 m 407 -254 q 353 -232 375 -254 q 332 -178 332 -210 q 353 -126 332 -147 q 407 -104 375 -104 q 460 -126 438 -104 q 482 -179 482 -147 q 460 -232 482 -210 q 407 -254 438 -254 z "},"Ȁ":{"ha":813,"x_min":17,"x_max":796,"o":"m 699 0 l 601 265 l 208 265 l 121 0 l 17 0 l 353 947 l 450 947 l 796 0 l 699 0 m 240 351 l 569 351 l 400 811 l 240 351 m 592 1056 l 297 1238 l 364 1304 l 631 1093 l 592 1056 m 353 1056 l 44 1210 l 111 1276 l 392 1093 l 353 1056 z "},"Ä":{"ha":813,"x_min":17,"x_max":796,"o":"m 699 0 l 601 265 l 208 265 l 121 0 l 17 0 l 353 947 l 450 947 l 796 0 l 699 0 m 240 351 l 569 351 l 400 811 l 240 351 m 271 1054 q 217 1076 239 1054 q 196 1131 196 1099 q 217 1183 196 1161 q 271 1204 239 1204 q 324 1183 301 1204 q 347 1129 347 1161 q 324 1076 347 1099 q 271 1054 301 1054 m 543 1054 q 489 1076 511 1054 q 467 1131 467 1099 q 489 1183 467 1161 q 543 1204 511 1204 q 596 1183 574 1204 q 618 1129 618 1161 q 596 1076 618 1099 q 543 1054 574 1054 z "},"Ǟ":{"ha":813,"x_min":17,"x_max":796,"o":"m 699 0 l 601 265 l 208 265 l 121 0 l 17 0 l 353 947 l 450 947 l 796 0 l 699 0 m 240 351 l 569 351 l 400 811 l 240 351 m 271 1054 q 217 1076 239 1054 q 196 1131 196 1099 q 217 1183 196 1161 q 271 1204 239 1204 q 324 1183 301 1204 q 347 1129 347 1161 q 324 1076 347 1099 q 271 1054 301 1054 m 543 1054 q 489 1076 511 1054 q 467 1131 467 1099 q 489 1183 467 1161 q 543 1204 511 1204 q 596 1183 574 1204 q 618 1129 618 1161 q 596 1076 618 1099 q 543 1054 574 1054 m 221 1293 l 221 1356 l 592 1356 l 592 1293 l 221 1293 z "},"Ȧ":{"ha":813,"x_min":17,"x_max":796,"o":"m 699 0 l 601 265 l 208 265 l 121 0 l 17 0 l 353 947 l 450 947 l 796 0 l 699 0 m 240 351 l 569 351 l 400 811 l 240 351 m 407 1040 q 353 1063 375 1040 q 332 1117 332 1085 q 353 1169 332 1147 q 407 1190 375 1190 q 460 1169 438 1190 q 482 1115 482 1147 q 460 1063 482 1085 q 407 1040 438 1040 z "},"Ạ":{"ha":813,"x_min":17,"x_max":796,"o":"m 699 0 l 601 265 l 208 265 l 121 0 l 17 0 l 353 947 l 450 947 l 796 0 l 699 0 m 240 351 l 569 351 l 400 811 l 240 351 m 407 -254 q 353 -232 375 -254 q 332 -178 332 -210 q 353 -126 332 -147 q 407 -104 375 -104 q 460 -126 438 -104 q 482 -179 482 -147 q 460 -232 482 -210 q 407 -254 438 -254 z "},"À":{"ha":813,"x_min":17,"x_max":796,"o":"m 699 0 l 601 265 l 208 265 l 121 0 l 17 0 l 353 947 l 450 947 l 796 0 l 699 0 m 240 351 l 569 351 l 400 811 l 240 351 m 553 1007 l 233 1128 l 281 1208 l 581 1054 l 553 1007 z "},"Ȃ":{"ha":813,"x_min":17,"x_max":796,"o":"m 699 0 l 601 265 l 208 265 l 121 0 l 17 0 l 353 947 l 450 947 l 796 0 l 699 0 m 240 351 l 569 351 l 400 811 l 240 351 m 407 1267 q 543 1219 492 1267 q 596 1075 594 1171 l 539 1075 q 499 1156 533 1129 q 407 1182 465 1182 q 315 1156 349 1182 q 275 1075 281 1129 l 218 1075 q 271 1219 219 1171 q 407 1267 322 1267 z "},"Ɑ":{"ha":983,"x_min":76,"x_max":1024,"o":"m 1024 94 l 1024 0 l 986 0 q 839 48 893 0 q 778 183 785 96 q 660 31 735 83 q 483 -22 585 -22 q 273 41 365 -22 q 128 217 181 104 q 76 472 76 329 q 128 728 76 615 q 273 905 181 842 q 483 968 365 968 q 683 913 597 968 q 817 745 768 857 q 867 471 865 633 l 867 206 q 899 124 867 153 q 986 94 931 94 l 1024 94 m 483 74 q 628 119 565 74 q 727 255 692 165 q 763 472 763 344 q 687 773 763 672 q 483 874 611 874 q 330 822 397 874 q 224 679 263 771 q 186 472 186 588 q 224 266 186 357 q 330 124 263 175 q 483 74 397 74 z "},"Ā":{"ha":813,"x_min":17,"x_max":796,"o":"m 699 0 l 601 265 l 208 265 l 121 0 l 17 0 l 353 947 l 450 947 l 796 0 l 699 0 m 240 351 l 569 351 l 400 811 l 240 351 m 221 1064 l 221 1126 l 592 1126 l 592 1064 l 221 1064 z "},"Ą":{"ha":813,"x_min":17,"x_max":796,"o":"m 700 -243 q 761 -226 728 -243 l 778 -257 q 649 -296 707 -296 q 572 -273 604 -296 q 525 -208 539 -250 q 518 -162 518 -189 q 567 -51 518 -101 q 690 24 615 0 l 601 265 l 208 265 l 121 0 l 17 0 l 353 947 l 450 947 l 796 0 l 704 0 q 640 -59 665 -24 q 615 -137 615 -94 q 626 -192 615 -161 q 655 -230 636 -217 q 700 -243 674 -243 m 240 351 l 569 351 l 400 811 l 240 351 z "},"Å":{"ha":813,"x_min":17,"x_max":796,"o":"m 699 0 l 601 265 l 208 265 l 121 0 l 17 0 l 353 947 l 450 947 l 796 0 l 699 0 m 240 351 l 569 351 l 400 811 l 240 351 m 406 1028 q 308 1068 349 1028 q 268 1165 268 1108 q 308 1263 268 1222 q 406 1304 349 1304 q 503 1263 463 1304 q 544 1165 544 1222 q 503 1068 544 1108 q 406 1028 463 1028 m 407 1096 q 455 1117 435 1096 q 475 1165 475 1138 q 455 1215 475 1194 q 407 1235 435 1235 q 358 1215 378 1235 q 338 1167 338 1194 q 358 1117 338 1138 q 407 1096 378 1096 z "},"Ǻ":{"ha":813,"x_min":17,"x_max":796,"o":"m 699 0 l 601 265 l 208 265 l 121 0 l 17 0 l 353 947 l 450 947 l 796 0 l 699 0 m 240 351 l 569 351 l 400 811 l 240 351 m 406 1028 q 308 1068 349 1028 q 268 1165 268 1108 q 308 1263 268 1222 q 406 1304 349 1304 q 503 1263 463 1304 q 544 1165 544 1222 q 503 1068 544 1108 q 406 1028 463 1028 m 407 1096 q 455 1117 435 1096 q 475 1165 475 1138 q 455 1215 475 1194 q 407 1235 435 1235 q 358 1215 378 1235 q 338 1167 338 1194 q 358 1117 338 1138 q 407 1096 378 1096 m 261 1364 l 233 1411 l 533 1565 l 581 1485 l 261 1364 z "},"Ḁ":{"ha":813,"x_min":17,"x_max":796,"o":"m 699 0 l 601 265 l 208 265 l 121 0 l 17 0 l 353 947 l 450 947 l 796 0 l 699 0 m 240 351 l 569 351 l 400 811 l 240 351 m 406 -336 q 308 -296 349 -336 q 268 -199 268 -256 q 308 -101 268 -142 q 406 -60 349 -60 q 503 -101 463 -60 q 544 -199 544 -142 q 503 -296 544 -256 q 406 -336 463 -336 m 407 -268 q 455 -247 435 -268 q 475 -199 475 -226 q 455 -149 475 -169 q 407 -129 435 -129 q 358 -149 378 -129 q 338 -197 338 -169 q 358 -247 338 -226 q 407 -268 378 -268 z "},"Ã":{"ha":813,"x_min":17,"x_max":796,"o":"m 699 0 l 601 265 l 208 265 l 121 0 l 17 0 l 353 947 l 450 947 l 796 0 l 699 0 m 240 351 l 569 351 l 400 811 l 240 351 m 511 1029 q 458 1038 481 1029 q 408 1061 435 1046 q 385 1072 404 1064 q 349 1085 367 1081 q 311 1090 331 1090 q 256 1079 275 1090 q 231 1043 238 1068 l 168 1043 q 209 1136 175 1097 q 304 1175 243 1175 q 358 1167 333 1175 q 417 1140 382 1158 q 467 1119 444 1126 q 511 1111 489 1111 q 559 1126 540 1111 q 581 1161 578 1140 l 644 1161 q 606 1067 638 1104 q 511 1029 575 1029 z "},"Æ":{"ha":1142,"x_min":0,"x_max":1088,"o":"m 656 86 l 1088 86 l 1088 0 l 553 0 l 553 275 l 258 275 l 97 0 l 0 0 l 553 944 l 553 947 l 1083 947 l 1083 860 l 656 860 l 656 557 l 989 557 l 989 472 l 656 472 l 656 86 m 553 351 l 553 781 l 303 351 l 553 351 z "},"Ǽ":{"ha":1142,"x_min":0,"x_max":1088,"o":"m 656 86 l 1088 86 l 1088 0 l 553 0 l 553 275 l 258 275 l 97 0 l 0 0 l 553 944 l 553 947 l 1083 947 l 1083 860 l 656 860 l 656 557 l 989 557 l 989 472 l 656 472 l 656 86 m 553 351 l 553 781 l 303 351 l 553 351 m 628 1007 l 600 1054 l 900 1208 l 947 1128 l 628 1007 z "},"B":{"ha":797,"x_min":110,"x_max":740,"o":"m 569 510 q 696 429 651 489 q 740 272 740 369 q 664 73 740 146 q 454 0 588 0 l 110 0 l 110 947 l 422 947 q 621 881 549 947 q 693 706 693 815 q 661 584 693 635 q 569 510 629 533 m 214 543 l 435 543 q 583 706 583 543 q 540 819 583 779 q 421 860 497 860 l 214 860 l 214 543 m 440 86 q 580 136 529 86 q 631 272 631 186 q 580 408 631 358 q 440 457 529 457 l 214 457 l 214 86 l 440 86 z "},"Ḃ":{"ha":797,"x_min":110,"x_max":740,"o":"m 569 510 q 696 429 651 489 q 740 272 740 369 q 664 73 740 146 q 454 0 588 0 l 110 0 l 110 947 l 422 947 q 621 881 549 947 q 693 706 693 815 q 661 584 693 635 q 569 510 629 533 m 214 543 l 435 543 q 583 706 583 543 q 540 819 583 779 q 421 860 497 860 l 214 860 l 214 543 m 440 86 q 580 136 529 86 q 631 272 631 186 q 580 408 631 358 q 440 457 529 457 l 214 457 l 214 86 l 440 86 m 399 1040 q 345 1063 367 1040 q 324 1117 324 1085 q 345 1169 324 1147 q 399 1190 367 1190 q 451 1169 429 1190 q 474 1115 474 1147 q 451 1063 474 1085 q 399 1040 429 1040 z "},"Ḅ":{"ha":797,"x_min":110,"x_max":740,"o":"m 569 510 q 696 429 651 489 q 740 272 740 369 q 664 73 740 146 q 454 0 588 0 l 110 0 l 110 947 l 422 947 q 621 881 549 947 q 693 706 693 815 q 661 584 693 635 q 569 510 629 533 m 214 543 l 435 543 q 583 706 583 543 q 540 819 583 779 q 421 860 497 860 l 214 860 l 214 543 m 440 86 q 580 136 529 86 q 631 272 631 186 q 580 408 631 358 q 440 457 529 457 l 214 457 l 214 86 l 440 86 m 399 -254 q 345 -232 367 -254 q 324 -178 324 -210 q 345 -126 324 -147 q 399 -104 367 -104 q 451 -126 429 -104 q 474 -179 474 -147 q 451 -232 474 -210 q 399 -254 429 -254 z "},"Ɓ":{"ha":968,"x_min":38,"x_max":911,"o":"m 740 510 q 867 429 822 489 q 911 272 911 369 q 835 73 911 146 q 625 0 758 0 l 281 0 l 281 853 l 244 853 q 160 822 194 853 q 125 742 125 790 l 125 592 l 38 592 l 38 742 q 65 845 38 799 q 139 919 92 892 q 244 947 186 947 l 593 947 q 792 881 719 947 q 864 706 864 815 q 832 584 864 635 q 740 510 800 533 m 385 543 l 606 543 q 754 706 754 543 q 711 819 754 779 q 592 860 668 860 l 385 860 l 385 543 m 611 86 q 751 136 700 86 q 801 272 801 186 q 751 408 801 358 q 611 457 700 457 l 385 457 l 385 86 l 611 86 z "},"Ḇ":{"ha":797,"x_min":110,"x_max":740,"o":"m 569 510 q 696 429 651 489 q 740 272 740 369 q 664 73 740 146 q 454 0 588 0 l 110 0 l 110 947 l 422 947 q 621 881 549 947 q 693 706 693 815 q 661 584 693 635 q 569 510 629 533 m 214 543 l 435 543 q 583 706 583 543 q 540 819 583 779 q 421 860 497 860 l 214 860 l 214 543 m 440 86 q 580 136 529 86 q 631 272 631 186 q 580 408 631 358 q 440 457 529 457 l 214 457 l 214 86 l 440 86 m 213 -158 l 213 -96 l 583 -96 l 583 -158 l 213 -158 z "},"Ƀ":{"ha":797,"x_min":60,"x_max":744,"o":"m 110 256 l 60 256 l 60 322 l 110 322 l 110 947 l 390 947 q 596 881 513 947 q 681 710 681 814 q 576 524 681 593 q 700 428 656 490 q 744 278 744 365 q 646 72 744 146 q 415 0 549 0 l 110 0 l 110 256 m 390 557 q 519 601 472 557 q 567 710 567 646 q 519 816 567 772 q 390 860 471 860 l 214 860 l 214 557 l 390 557 m 413 86 q 569 138 508 86 q 631 278 631 189 q 570 419 631 368 q 413 469 510 469 l 214 469 l 214 322 l 438 322 l 438 256 l 214 256 l 214 86 l 413 86 z "},"C":{"ha":840,"x_min":76,"x_max":792,"o":"m 463 -22 q 256 37 343 -22 q 123 206 169 96 q 76 471 76 317 q 122 738 76 626 q 251 909 167 850 q 450 968 335 968 q 652 916 568 968 q 783 769 736 864 l 700 721 q 596 838 656 803 q 450 874 536 874 q 256 767 326 874 q 186 472 186 661 q 218 258 186 349 q 310 120 250 168 q 449 72 369 72 q 602 116 547 72 q 704 253 657 160 l 792 200 q 659 35 742 92 q 463 -22 576 -22 z "},"Ć":{"ha":840,"x_min":76,"x_max":792,"o":"m 463 -22 q 256 37 343 -22 q 123 206 169 96 q 76 471 76 317 q 122 738 76 626 q 251 909 167 850 q 450 968 335 968 q 652 916 568 968 q 783 769 736 864 l 700 721 q 596 838 656 803 q 450 874 536 874 q 256 767 326 874 q 186 472 186 661 q 218 258 186 349 q 310 120 250 168 q 449 72 369 72 q 602 116 547 72 q 704 253 657 160 l 792 200 q 659 35 742 92 q 463 -22 576 -22 m 308 1007 l 281 1054 l 581 1208 l 628 1128 l 308 1007 z "},"Č":{"ha":840,"x_min":76,"x_max":792,"o":"m 463 -22 q 256 37 343 -22 q 123 206 169 96 q 76 471 76 317 q 122 738 76 626 q 251 909 167 850 q 450 968 335 968 q 652 916 568 968 q 783 769 736 864 l 700 721 q 596 838 656 803 q 450 874 536 874 q 256 767 326 874 q 186 472 186 661 q 218 258 186 349 q 310 120 250 168 q 449 72 369 72 q 602 116 547 72 q 704 253 657 160 l 792 200 q 659 35 742 92 q 463 -22 576 -22 m 453 1057 l 265 1229 l 292 1276 l 453 1169 l 615 1276 l 642 1229 l 453 1057 z "},"Ç":{"ha":840,"x_min":76,"x_max":792,"o":"m 792 200 q 492 -21 696 -7 l 456 -94 q 565 -118 526 -94 q 604 -174 604 -142 q 319 -278 604 -278 l 319 -240 q 451 -224 389 -240 q 514 -182 514 -210 q 503 -159 514 -167 q 460 -147 492 -151 q 364 -143 428 -143 l 421 -21 q 167 124 258 -6 q 76 471 76 253 q 122 738 76 626 q 251 909 167 850 q 450 968 335 968 q 652 916 568 968 q 783 769 736 864 l 700 721 q 596 838 656 803 q 450 874 536 874 q 256 767 326 874 q 186 472 186 661 q 218 258 186 349 q 310 120 250 168 q 449 72 369 72 q 602 116 547 72 q 704 253 657 160 l 792 200 z "},"Ḉ":{"ha":840,"x_min":76,"x_max":792,"o":"m 792 200 q 492 -21 696 -7 l 456 -94 q 565 -118 526 -94 q 604 -174 604 -142 q 319 -278 604 -278 l 319 -240 q 451 -224 389 -240 q 514 -182 514 -210 q 503 -159 514 -167 q 460 -147 492 -151 q 364 -143 428 -143 l 421 -21 q 167 124 258 -6 q 76 471 76 253 q 122 738 76 626 q 251 909 167 850 q 450 968 335 968 q 652 916 568 968 q 783 769 736 864 l 700 721 q 596 838 656 803 q 450 874 536 874 q 256 767 326 874 q 186 472 186 661 q 218 258 186 349 q 310 120 250 168 q 449 72 369 72 q 602 116 547 72 q 704 253 657 160 l 792 200 m 392 1043 l 364 1090 l 622 1244 l 669 1164 l 392 1043 z "},"Ĉ":{"ha":840,"x_min":76,"x_max":792,"o":"m 463 -22 q 256 37 343 -22 q 123 206 169 96 q 76 471 76 317 q 122 738 76 626 q 251 909 167 850 q 450 968 335 968 q 652 916 568 968 q 783 769 736 864 l 700 721 q 596 838 656 803 q 450 874 536 874 q 256 767 326 874 q 186 472 186 661 q 218 258 186 349 q 310 120 250 168 q 449 72 369 72 q 602 116 547 72 q 704 253 657 160 l 792 200 q 659 35 742 92 q 463 -22 576 -22 m 264 1024 l 238 1071 l 453 1215 l 669 1071 l 643 1024 l 453 1117 l 264 1024 z "},"Ċ":{"ha":840,"x_min":76,"x_max":792,"o":"m 463 -22 q 256 37 343 -22 q 123 206 169 96 q 76 471 76 317 q 122 738 76 626 q 251 909 167 850 q 450 968 335 968 q 652 916 568 968 q 783 769 736 864 l 700 721 q 596 838 656 803 q 450 874 536 874 q 256 767 326 874 q 186 472 186 661 q 218 258 186 349 q 310 120 250 168 q 449 72 369 72 q 602 116 547 72 q 704 253 657 160 l 792 200 q 659 35 742 92 q 463 -22 576 -22 m 454 1074 q 401 1096 422 1074 q 379 1150 379 1118 q 401 1202 379 1181 q 454 1224 422 1224 q 507 1202 485 1224 q 529 1149 529 1181 q 507 1096 529 1118 q 454 1074 485 1074 z "},"Ƈ":{"ha":951,"x_min":76,"x_max":903,"o":"m 700 881 q 768 1006 711 957 q 903 1056 825 1056 l 903 961 q 817 928 851 961 q 783 850 783 894 l 783 769 l 700 721 q 596 838 656 803 q 450 874 536 874 q 256 767 326 874 q 186 472 186 661 q 218 258 186 349 q 310 120 250 168 q 449 72 369 72 q 602 116 547 72 q 704 253 657 160 l 792 200 q 659 35 742 92 q 463 -22 576 -22 q 256 37 343 -22 q 123 206 169 96 q 76 471 76 317 q 122 738 76 626 q 251 909 167 850 q 450 968 335 968 q 700 881 601 968 z "},"Ȼ":{"ha":840,"x_min":76,"x_max":792,"o":"m 792 200 q 659 35 742 92 q 463 -22 576 -22 q 260 35 344 -22 l 214 -62 l 150 -32 l 203 82 q 109 243 142 144 q 76 471 76 342 q 122 738 76 626 q 251 909 167 850 q 450 968 335 968 q 603 940 535 968 l 638 1014 l 701 985 l 665 907 q 783 769 740 857 l 700 721 q 624 818 668 781 l 301 126 q 449 72 364 72 q 602 116 547 72 q 704 253 657 160 l 792 200 m 186 472 q 251 188 186 294 l 563 854 q 450 874 515 874 q 256 767 326 874 q 186 472 186 661 z "},"D":{"ha":890,"x_min":111,"x_max":814,"o":"m 111 947 l 346 947 q 597 891 492 947 q 758 728 703 835 q 814 472 814 621 q 690 125 814 250 q 346 0 567 0 l 111 0 l 111 947 m 343 94 q 608 188 513 94 q 704 472 704 281 q 608 758 704 665 q 343 851 513 851 l 215 851 l 215 94 l 343 94 z "},"Ɖ":{"ha":890,"x_min":14,"x_max":814,"o":"m 346 947 q 597 891 492 947 q 758 728 703 835 q 814 472 814 621 q 690 125 814 250 q 346 0 567 0 l 111 0 l 111 440 l 14 440 l 14 507 l 111 507 l 111 947 l 346 947 m 343 94 q 608 188 513 94 q 704 472 704 281 q 608 758 704 665 q 343 851 513 851 l 215 851 l 215 507 l 378 507 l 378 440 l 215 440 l 215 94 l 343 94 z "},"Ð":{"ha":890,"x_min":14,"x_max":814,"o":"m 346 947 q 597 891 492 947 q 758 728 703 835 q 814 472 814 621 q 690 125 814 250 q 346 0 567 0 l 111 0 l 111 440 l 14 440 l 14 507 l 111 507 l 111 947 l 346 947 m 343 94 q 608 188 513 94 q 704 472 704 281 q 608 758 704 665 q 343 851 513 851 l 215 851 l 215 507 l 378 507 l 378 440 l 215 440 l 215 94 l 343 94 z "},"Ď":{"ha":890,"x_min":111,"x_max":814,"o":"m 111 947 l 346 947 q 597 891 492 947 q 758 728 703 835 q 814 472 814 621 q 690 125 814 250 q 346 0 567 0 l 111 0 l 111 947 m 343 94 q 608 188 513 94 q 704 472 704 281 q 608 758 704 665 q 343 851 513 851 l 215 851 l 215 94 l 343 94 m 144 1211 l 333 1118 l 524 1211 l 550 1164 l 333 1019 l 118 1164 l 144 1211 z "},"Ḑ":{"ha":890,"x_min":111,"x_max":814,"o":"m 111 947 l 346 947 q 597 891 492 947 q 758 728 703 835 q 814 472 814 621 q 690 125 814 250 q 346 0 567 0 l 111 0 l 111 947 m 343 94 q 608 188 513 94 q 704 472 704 281 q 608 758 704 665 q 343 851 513 851 l 215 851 l 215 94 l 343 94 m 136 -240 q 268 -224 206 -240 q 331 -182 331 -210 q 319 -159 331 -167 q 276 -147 308 -151 q 181 -143 244 -143 l 247 0 l 318 0 l 272 -94 q 382 -118 343 -94 q 421 -174 421 -142 q 136 -278 421 -278 l 136 -240 z "},"Ḓ":{"ha":890,"x_min":111,"x_max":814,"o":"m 111 947 l 346 947 q 597 891 492 947 q 758 728 703 835 q 814 472 814 621 q 690 125 814 250 q 346 0 567 0 l 111 0 l 111 947 m 343 94 q 608 188 513 94 q 704 472 704 281 q 608 758 704 665 q 343 851 513 851 l 215 851 l 215 94 l 343 94 m 256 -299 l 229 -251 l 417 -79 l 606 -251 l 579 -299 l 417 -192 l 256 -299 z "},"Đ":{"ha":890,"x_min":14,"x_max":814,"o":"m 346 947 q 597 891 492 947 q 758 728 703 835 q 814 472 814 621 q 690 125 814 250 q 346 0 567 0 l 111 0 l 111 440 l 14 440 l 14 507 l 111 507 l 111 947 l 346 947 m 343 94 q 608 188 513 94 q 704 472 704 281 q 608 758 704 665 q 343 851 513 851 l 215 851 l 215 507 l 378 507 l 378 440 l 215 440 l 215 94 l 343 94 z "},"Ḋ":{"ha":890,"x_min":111,"x_max":814,"o":"m 111 947 l 346 947 q 597 891 492 947 q 758 728 703 835 q 814 472 814 621 q 690 125 814 250 q 346 0 567 0 l 111 0 l 111 947 m 343 94 q 608 188 513 94 q 704 472 704 281 q 608 758 704 665 q 343 851 513 851 l 215 851 l 215 94 l 343 94 m 335 1040 q 281 1063 303 1040 q 260 1117 260 1085 q 281 1169 260 1147 q 335 1190 303 1190 q 388 1169 365 1190 q 410 1115 410 1147 q 388 1063 410 1085 q 335 1040 365 1040 z "},"Ḍ":{"ha":890,"x_min":111,"x_max":814,"o":"m 111 947 l 346 947 q 597 891 492 947 q 758 728 703 835 q 814 472 814 621 q 690 125 814 250 q 346 0 567 0 l 111 0 l 111 947 m 343 94 q 608 188 513 94 q 704 472 704 281 q 608 758 704 665 q 343 851 513 851 l 215 851 l 215 94 l 343 94 m 418 -254 q 365 -232 386 -254 q 343 -178 343 -210 q 365 -126 343 -147 q 418 -104 386 -104 q 471 -126 449 -104 q 493 -179 493 -147 q 471 -232 493 -210 q 418 -254 449 -254 z "},"Ɗ":{"ha":1060,"x_min":38,"x_max":983,"o":"m 515 947 q 767 891 661 947 q 928 728 872 835 q 983 472 983 621 q 860 125 983 250 q 515 0 736 0 l 281 0 l 281 853 l 244 853 q 160 822 194 853 q 125 742 125 790 l 125 592 l 38 592 l 38 742 q 65 845 38 799 q 139 919 92 892 q 244 947 186 947 l 515 947 m 513 94 q 778 188 682 94 q 874 472 874 281 q 778 758 874 665 q 513 851 682 851 l 385 851 l 385 94 l 513 94 z "},"Ḏ":{"ha":890,"x_min":111,"x_max":814,"o":"m 111 947 l 346 947 q 597 891 492 947 q 758 728 703 835 q 814 472 814 621 q 690 125 814 250 q 346 0 567 0 l 111 0 l 111 947 m 343 94 q 608 188 513 94 q 704 472 704 281 q 608 758 704 665 q 343 851 513 851 l 215 851 l 215 94 l 343 94 m 232 -158 l 232 -96 l 603 -96 l 603 -158 l 232 -158 z "},"E":{"ha":699,"x_min":110,"x_max":644,"o":"m 110 0 l 110 947 l 640 947 l 640 860 l 214 860 l 214 529 l 547 529 l 547 444 l 214 444 l 214 86 l 644 86 l 644 0 l 110 0 z "},"É":{"ha":699,"x_min":110,"x_max":644,"o":"m 110 0 l 110 947 l 640 947 l 640 860 l 214 860 l 214 529 l 547 529 l 547 444 l 214 444 l 214 86 l 644 86 l 644 0 l 110 0 m 246 1007 l 218 1054 l 518 1208 l 565 1128 l 246 1007 z "},"Ĕ":{"ha":699,"x_min":110,"x_max":644,"o":"m 110 0 l 110 947 l 640 947 l 640 860 l 214 860 l 214 529 l 547 529 l 547 444 l 214 444 l 214 86 l 644 86 l 644 0 l 110 0 m 392 1028 q 246 1069 301 1028 q 189 1192 190 1110 l 246 1192 q 392 1113 260 1113 q 538 1192 524 1113 l 594 1192 q 538 1069 593 1110 q 392 1028 482 1028 z "},"Ě":{"ha":699,"x_min":110,"x_max":644,"o":"m 110 0 l 110 947 l 640 947 l 640 860 l 214 860 l 214 529 l 547 529 l 547 444 l 214 444 l 214 86 l 644 86 l 644 0 l 110 0 m 201 1211 l 390 1118 l 581 1211 l 607 1164 l 390 1019 l 175 1164 l 201 1211 z "},"Ȩ":{"ha":699,"x_min":110,"x_max":644,"o":"m 110 0 l 110 947 l 640 947 l 640 860 l 214 860 l 214 529 l 547 529 l 547 444 l 214 444 l 214 86 l 644 86 l 644 0 l 110 0 m 235 -240 q 367 -224 304 -240 q 429 -182 429 -210 q 418 -159 429 -167 q 375 -147 407 -151 q 279 -143 343 -143 l 346 0 l 417 0 l 371 -94 q 481 -118 442 -94 q 519 -174 519 -142 q 235 -278 519 -278 l 235 -240 z "},"Ê":{"ha":699,"x_min":110,"x_max":644,"o":"m 110 0 l 110 947 l 640 947 l 640 860 l 214 860 l 214 529 l 547 529 l 547 444 l 214 444 l 214 86 l 644 86 l 644 0 l 110 0 m 201 1024 l 175 1071 l 390 1215 l 607 1071 l 581 1024 l 390 1117 l 201 1024 z "},"Ệ":{"ha":699,"x_min":110,"x_max":644,"o":"m 110 0 l 110 947 l 640 947 l 640 860 l 214 860 l 214 529 l 547 529 l 547 444 l 214 444 l 214 86 l 644 86 l 644 0 l 110 0 m 201 1024 l 175 1071 l 390 1215 l 607 1071 l 581 1024 l 390 1117 l 201 1024 m 378 -254 q 324 -232 346 -254 q 303 -178 303 -210 q 324 -126 303 -147 q 378 -104 346 -104 q 431 -126 408 -104 q 453 -179 453 -147 q 431 -232 453 -210 q 378 -254 408 -254 z "},"Ȅ":{"ha":699,"x_min":29,"x_max":644,"o":"m 110 0 l 110 947 l 640 947 l 640 860 l 214 860 l 214 529 l 547 529 l 547 444 l 214 444 l 214 86 l 644 86 l 644 0 l 110 0 m 576 1056 l 282 1238 l 349 1304 l 615 1093 l 576 1056 m 338 1056 l 29 1210 l 96 1276 l 376 1093 l 338 1056 z "},"Ë":{"ha":699,"x_min":110,"x_max":644,"o":"m 110 0 l 110 947 l 640 947 l 640 860 l 214 860 l 214 529 l 547 529 l 547 444 l 214 444 l 214 86 l 644 86 l 644 0 l 110 0 m 256 1054 q 202 1076 224 1054 q 181 1131 181 1099 q 202 1183 181 1161 q 256 1204 224 1204 q 309 1183 286 1204 q 332 1129 332 1161 q 309 1076 332 1099 q 256 1054 286 1054 m 528 1054 q 474 1076 496 1054 q 451 1131 451 1099 q 474 1183 451 1161 q 528 1204 496 1204 q 581 1183 558 1204 q 603 1129 603 1161 q 581 1076 603 1099 q 528 1054 558 1054 z "},"Ė":{"ha":699,"x_min":110,"x_max":644,"o":"m 110 0 l 110 947 l 640 947 l 640 860 l 214 860 l 214 529 l 547 529 l 547 444 l 214 444 l 214 86 l 644 86 l 644 0 l 110 0 m 392 1040 q 338 1063 360 1040 q 317 1117 317 1085 q 338 1169 317 1147 q 392 1190 360 1190 q 444 1169 422 1190 q 467 1115 467 1147 q 444 1063 467 1085 q 392 1040 422 1040 z "},"Ẹ":{"ha":699,"x_min":110,"x_max":644,"o":"m 110 0 l 110 947 l 640 947 l 640 860 l 214 860 l 214 529 l 547 529 l 547 444 l 214 444 l 214 86 l 644 86 l 644 0 l 110 0 m 378 -254 q 324 -232 346 -254 q 303 -178 303 -210 q 324 -126 303 -147 q 378 -104 346 -104 q 431 -126 408 -104 q 453 -179 453 -147 q 431 -232 453 -210 q 378 -254 408 -254 z "},"È":{"ha":699,"x_min":110,"x_max":644,"o":"m 110 0 l 110 947 l 640 947 l 640 860 l 214 860 l 214 529 l 547 529 l 547 444 l 214 444 l 214 86 l 644 86 l 644 0 l 110 0 m 538 1007 l 218 1128 l 265 1208 l 565 1054 l 538 1007 z "},"Ȇ":{"ha":699,"x_min":110,"x_max":644,"o":"m 110 0 l 110 947 l 640 947 l 640 860 l 214 860 l 214 529 l 547 529 l 547 444 l 214 444 l 214 86 l 644 86 l 644 0 l 110 0 m 392 1267 q 528 1219 476 1267 q 581 1075 579 1171 l 524 1075 q 484 1156 518 1129 q 392 1182 450 1182 q 299 1156 333 1182 q 260 1075 265 1129 l 203 1075 q 256 1219 204 1171 q 392 1267 307 1267 z "},"Ē":{"ha":699,"x_min":110,"x_max":644,"o":"m 110 0 l 110 947 l 640 947 l 640 860 l 214 860 l 214 529 l 547 529 l 547 444 l 214 444 l 214 86 l 644 86 l 644 0 l 110 0 m 206 1064 l 206 1126 l 576 1126 l 576 1064 l 206 1064 z "},"Ḗ":{"ha":699,"x_min":110,"x_max":644,"o":"m 110 0 l 110 947 l 640 947 l 640 860 l 214 860 l 214 529 l 547 529 l 547 444 l 214 444 l 214 86 l 644 86 l 644 0 l 110 0 m 206 1064 l 206 1126 l 576 1126 l 576 1064 l 206 1064 m 246 1186 l 218 1233 l 518 1388 l 565 1307 l 246 1186 z "},"Ḕ":{"ha":699,"x_min":110,"x_max":644,"o":"m 110 0 l 110 947 l 640 947 l 640 860 l 214 860 l 214 529 l 547 529 l 547 444 l 214 444 l 214 86 l 644 86 l 644 0 l 110 0 m 206 1064 l 206 1126 l 576 1126 l 576 1064 l 206 1064 m 538 1186 l 218 1307 l 265 1388 l 565 1233 l 538 1186 z "},"Ę":{"ha":699,"x_min":110,"x_max":650,"o":"m 650 -271 q 521 -310 579 -310 q 444 -287 476 -310 q 397 -222 411 -264 q 390 -176 390 -203 q 431 -74 390 -121 q 536 0 471 -26 l 110 0 l 110 947 l 640 947 l 640 860 l 214 860 l 214 529 l 547 529 l 547 444 l 214 444 l 214 86 l 644 86 l 644 0 l 603 0 q 521 -62 554 -22 q 488 -151 488 -101 q 499 -206 488 -175 q 527 -244 508 -231 q 572 -257 546 -257 q 633 -240 600 -257 l 650 -271 z "},"Ɛ":{"ha":717,"x_min":64,"x_max":703,"o":"m 392 -22 q 153 58 243 -22 q 64 281 64 138 q 246 507 64 442 q 96 710 96 576 q 177 900 96 832 q 385 968 258 968 q 647 868 551 968 l 578 803 q 503 858 547 840 q 385 875 458 875 q 290 853 332 875 q 224 792 247 831 q 200 710 200 754 q 251 591 200 635 q 408 547 303 547 l 408 454 q 233 400 297 454 q 168 258 168 346 q 199 162 168 204 q 281 96 229 119 q 392 72 332 72 q 629 168 561 72 l 703 110 q 578 10 650 42 q 392 -22 506 -22 z "},"Ǝ":{"ha":699,"x_min":54,"x_max":589,"o":"m 54 0 l 54 86 l 486 86 l 486 472 l 153 472 l 153 557 l 486 557 l 486 860 l 58 860 l 58 947 l 589 947 l 589 0 l 54 0 z "},"Ʃ":{"ha":692,"x_min":60,"x_max":651,"o":"m 60 0 l 60 88 l 296 467 l 60 843 l 60 947 l 651 947 l 651 861 l 163 861 l 408 467 l 171 86 l 651 86 l 651 0 l 60 0 z "},"Ẽ":{"ha":699,"x_min":110,"x_max":644,"o":"m 110 0 l 110 947 l 640 947 l 640 860 l 214 860 l 214 529 l 547 529 l 547 444 l 214 444 l 214 86 l 644 86 l 644 0 l 110 0 m 496 1029 q 442 1038 465 1029 q 393 1061 419 1046 q 370 1072 389 1064 q 333 1085 351 1081 q 296 1090 315 1090 q 241 1079 260 1090 q 215 1043 222 1068 l 153 1043 q 194 1136 160 1097 q 289 1175 228 1175 q 342 1167 318 1175 q 401 1140 367 1158 q 451 1119 429 1126 q 496 1111 474 1111 q 544 1126 525 1111 q 565 1161 563 1140 l 629 1161 q 591 1067 622 1104 q 496 1029 560 1029 z "},"Ḛ":{"ha":699,"x_min":110,"x_max":644,"o":"m 110 0 l 110 947 l 640 947 l 640 860 l 214 860 l 214 529 l 547 529 l 547 444 l 214 444 l 214 86 l 644 86 l 644 0 l 110 0 m 139 -294 q 187 -170 146 -226 q 289 -114 228 -114 q 340 -126 318 -114 q 394 -162 363 -137 q 441 -195 422 -185 q 482 -206 460 -206 q 530 -179 511 -206 q 551 -114 549 -153 l 615 -114 q 570 -240 608 -186 q 468 -294 532 -294 q 418 -283 438 -294 q 372 -249 399 -272 q 328 -216 347 -226 q 282 -206 310 -206 q 227 -227 246 -206 q 201 -294 208 -249 l 139 -294 z "},"Ʒ":{"ha":761,"x_min":63,"x_max":699,"o":"m 404 554 q 569 513 503 553 q 667 409 635 474 q 699 268 699 344 q 658 113 699 179 q 544 13 617 47 q 383 -22 472 -22 q 192 33 274 -22 q 63 200 110 89 l 146 249 q 245 115 188 161 q 389 68 303 68 q 538 122 479 68 q 596 275 596 175 q 535 438 596 376 q 371 499 474 499 l 304 499 l 304 554 l 557 861 l 115 861 l 115 947 l 658 947 l 658 861 l 404 554 z "},"F":{"ha":626,"x_min":110,"x_max":626,"o":"m 110 0 l 110 947 l 626 947 l 626 860 l 214 860 l 214 529 l 519 529 l 519 444 l 214 444 l 214 0 l 110 0 z "},"Ƒ":{"ha":665,"x_min":-47,"x_max":640,"o":"m -47 -183 l -10 -183 q 74 -151 39 -183 q 110 -72 110 -119 l 110 947 l 640 947 l 640 860 l 214 860 l 214 557 l 547 557 l 547 472 l 214 472 l 214 -72 q 181 -176 214 -129 q 97 -251 149 -224 q -10 -278 46 -278 l -47 -278 l -47 -183 z "},"G":{"ha":842,"x_min":40,"x_max":783,"o":"m 426 -22 q 220 37 307 -22 q 87 206 133 96 q 40 471 40 317 q 87 738 40 626 q 220 909 133 850 q 426 968 307 968 q 616 919 536 968 q 753 774 696 869 l 671 715 q 426 874 583 874 q 223 767 296 874 q 150 472 150 661 q 224 178 150 285 q 426 72 297 72 q 556 107 499 72 q 647 210 614 142 q 681 376 681 278 l 457 376 l 457 463 l 783 463 l 783 376 q 738 158 783 247 q 610 23 692 68 q 426 -22 529 -22 z "},"Ɣ":{"ha":732,"x_min":0,"x_max":733,"o":"m 367 -278 q 268 -242 303 -278 q 233 -147 233 -206 q 251 -45 233 -96 q 311 90 268 6 l 0 947 l 110 947 l 369 211 l 624 947 l 733 947 l 422 90 q 483 -45 465 6 q 500 -147 500 -96 q 465 -242 500 -206 q 367 -278 431 -278 m 367 -197 q 394 -184 385 -197 q 403 -147 403 -171 q 367 -21 403 -85 q 340 -84 349 -50 q 331 -147 331 -118 q 340 -184 331 -171 q 367 -197 349 -197 z "},"Ğ":{"ha":842,"x_min":40,"x_max":783,"o":"m 426 -22 q 220 37 307 -22 q 87 206 133 96 q 40 471 40 317 q 87 738 40 626 q 220 909 133 850 q 426 968 307 968 q 616 919 536 968 q 753 774 696 869 l 671 715 q 426 874 583 874 q 223 767 296 874 q 150 472 150 661 q 224 178 150 285 q 426 72 297 72 q 556 107 499 72 q 647 210 614 142 q 681 376 681 278 l 457 376 l 457 463 l 783 463 l 783 376 q 738 158 783 247 q 610 23 692 68 q 426 -22 529 -22 m 421 1028 q 275 1069 331 1028 q 218 1192 219 1110 l 275 1192 q 421 1113 289 1113 q 567 1192 553 1113 l 624 1192 q 567 1069 622 1110 q 421 1028 511 1028 z "},"Ǧ":{"ha":842,"x_min":40,"x_max":783,"o":"m 426 -22 q 220 37 307 -22 q 87 206 133 96 q 40 471 40 317 q 87 738 40 626 q 220 909 133 850 q 426 968 307 968 q 616 919 536 968 q 753 774 696 869 l 671 715 q 426 874 583 874 q 223 767 296 874 q 150 472 150 661 q 224 178 150 285 q 426 72 297 72 q 556 107 499 72 q 647 210 614 142 q 681 376 681 278 l 457 376 l 457 463 l 783 463 l 783 376 q 738 158 783 247 q 610 23 692 68 q 426 -22 529 -22 m 231 1211 l 419 1118 l 610 1211 l 636 1164 l 419 1019 l 204 1164 l 231 1211 z "},"Ĝ":{"ha":842,"x_min":40,"x_max":783,"o":"m 426 -22 q 220 37 307 -22 q 87 206 133 96 q 40 471 40 317 q 87 738 40 626 q 220 909 133 850 q 426 968 307 968 q 616 919 536 968 q 753 774 696 869 l 671 715 q 426 874 583 874 q 223 767 296 874 q 150 472 150 661 q 224 178 150 285 q 426 72 297 72 q 556 107 499 72 q 647 210 614 142 q 681 376 681 278 l 457 376 l 457 463 l 783 463 l 783 376 q 738 158 783 247 q 610 23 692 68 q 426 -22 529 -22 m 231 1024 l 204 1071 l 419 1215 l 636 1071 l 610 1024 l 419 1117 l 231 1024 z "},"Ģ":{"ha":842,"x_min":40,"x_max":783,"o":"m 426 -22 q 220 37 307 -22 q 87 206 133 96 q 40 471 40 317 q 87 738 40 626 q 220 909 133 850 q 426 968 307 968 q 616 919 536 968 q 753 774 696 869 l 671 715 q 426 874 583 874 q 223 767 296 874 q 150 472 150 661 q 224 178 150 285 q 426 72 297 72 q 556 107 499 72 q 647 210 614 142 q 681 376 681 278 l 457 376 l 457 463 l 783 463 l 783 376 q 738 158 783 247 q 610 23 692 68 q 426 -22 529 -22 m 344 -344 q 422 -206 422 -293 q 366 -184 389 -206 q 343 -129 343 -162 q 364 -74 343 -94 q 418 -54 385 -54 q 475 -80 453 -54 q 497 -144 497 -106 q 458 -276 497 -212 q 358 -371 419 -339 l 344 -344 z "},"Ġ":{"ha":842,"x_min":40,"x_max":783,"o":"m 426 -22 q 220 37 307 -22 q 87 206 133 96 q 40 471 40 317 q 87 738 40 626 q 220 909 133 850 q 426 968 307 968 q 616 919 536 968 q 753 774 696 869 l 671 715 q 426 874 583 874 q 223 767 296 874 q 150 472 150 661 q 224 178 150 285 q 426 72 297 72 q 556 107 499 72 q 647 210 614 142 q 681 376 681 278 l 457 376 l 457 463 l 783 463 l 783 376 q 738 158 783 247 q 610 23 692 68 q 426 -22 529 -22 m 421 1040 q 367 1063 389 1040 q 346 1117 346 1085 q 367 1169 346 1147 q 421 1190 389 1190 q 474 1169 451 1190 q 496 1115 496 1147 q 474 1063 496 1085 q 421 1040 451 1040 z "},"Ɠ":{"ha":908,"x_min":76,"x_max":908,"o":"m 704 879 q 772 1006 715 957 q 908 1056 829 1056 l 908 961 q 823 928 857 961 q 789 850 789 894 l 789 774 l 707 715 q 463 874 619 874 q 259 767 332 874 q 186 472 186 661 q 260 178 186 285 q 463 72 333 72 q 592 107 535 72 q 683 210 650 142 q 717 376 717 278 l 493 376 l 493 463 l 819 463 l 819 376 q 774 158 819 247 q 647 23 728 68 q 463 -22 565 -22 q 256 37 343 -22 q 123 206 169 96 q 76 471 76 317 q 123 738 76 626 q 256 909 169 850 q 463 968 343 968 q 704 879 607 968 z "},"Ɂ":{"ha":639,"x_min":40,"x_max":586,"o":"m 244 231 q 258 335 244 294 q 302 412 271 375 q 403 511 333 449 q 492 700 492 590 q 440 831 492 781 q 304 882 389 882 q 194 847 242 882 q 128 749 147 811 l 40 776 q 145 915 72 863 q 304 968 218 968 q 447 933 382 968 q 549 836 511 897 q 586 700 586 775 q 574 600 586 640 q 536 529 561 560 q 463 453 511 499 q 383 372 408 401 q 349 312 358 343 q 339 231 339 281 l 339 0 l 244 0 l 244 231 z "},"Ȝ":{"ha":646,"x_min":44,"x_max":597,"o":"m 429 588 q 597 358 597 525 q 515 156 597 250 q 309 4 433 61 q 67 -53 185 -53 l 67 51 q 260 90 160 51 q 427 199 360 128 q 494 363 494 269 q 371 538 494 492 q 167 426 282 471 l 167 510 q 374 649 308 583 q 440 793 440 715 q 410 856 440 833 q 321 879 379 879 q 197 849 257 879 q 106 764 138 818 l 44 815 q 331 967 163 967 q 479 920 426 967 q 532 799 532 874 q 429 588 532 690 z "},"H":{"ha":931,"x_min":111,"x_max":819,"o":"m 111 0 l 111 947 l 215 947 l 215 538 l 715 538 l 715 947 l 819 947 l 819 0 l 715 0 l 715 451 l 215 451 l 215 0 l 111 0 z "},"Ħ":{"ha":1042,"x_min":111,"x_max":931,"o":"m 931 794 l 931 728 l 875 728 l 875 0 l 771 0 l 771 451 l 271 451 l 271 0 l 167 0 l 167 728 l 111 728 l 111 794 l 167 794 l 167 947 l 271 947 l 271 794 l 771 794 l 771 947 l 875 947 l 875 794 l 931 794 m 771 538 l 771 728 l 271 728 l 271 538 l 771 538 z "},"Ȟ":{"ha":931,"x_min":111,"x_max":819,"o":"m 111 0 l 111 947 l 215 947 l 215 538 l 715 538 l 715 947 l 819 947 l 819 0 l 715 0 l 715 451 l 215 451 l 215 0 l 111 0 m 275 1211 l 464 1118 l 654 1211 l 681 1164 l 464 1019 l 249 1164 l 275 1211 z "},"Ĥ":{"ha":931,"x_min":111,"x_max":819,"o":"m 111 0 l 111 947 l 215 947 l 215 538 l 715 538 l 715 947 l 819 947 l 819 0 l 715 0 l 715 451 l 215 451 l 215 0 l 111 0 m 275 1024 l 249 1071 l 464 1215 l 681 1071 l 654 1024 l 464 1117 l 275 1024 z "},"Ḧ":{"ha":931,"x_min":111,"x_max":819,"o":"m 111 0 l 111 947 l 215 947 l 215 538 l 715 538 l 715 947 l 819 947 l 819 0 l 715 0 l 715 451 l 215 451 l 215 0 l 111 0 m 329 1054 q 276 1076 297 1054 q 254 1131 254 1099 q 276 1183 254 1161 q 329 1204 297 1204 q 383 1183 360 1204 q 406 1129 406 1161 q 383 1076 406 1099 q 329 1054 360 1054 m 601 1054 q 547 1076 569 1054 q 525 1131 525 1099 q 547 1183 525 1161 q 601 1204 569 1204 q 654 1183 632 1204 q 676 1129 676 1161 q 654 1076 676 1099 q 601 1054 632 1054 z "},"Ḣ":{"ha":931,"x_min":111,"x_max":819,"o":"m 111 0 l 111 947 l 215 947 l 215 538 l 715 538 l 715 947 l 819 947 l 819 0 l 715 0 l 715 451 l 215 451 l 215 0 l 111 0 m 465 1040 q 412 1063 433 1040 q 390 1117 390 1085 q 412 1169 390 1147 q 465 1190 433 1190 q 518 1169 496 1190 q 540 1115 540 1147 q 518 1063 540 1085 q 465 1040 496 1040 z "},"Ḥ":{"ha":931,"x_min":111,"x_max":819,"o":"m 111 0 l 111 947 l 215 947 l 215 538 l 715 538 l 715 947 l 819 947 l 819 0 l 715 0 l 715 451 l 215 451 l 215 0 l 111 0 m 465 -254 q 412 -232 433 -254 q 390 -178 390 -210 q 412 -126 390 -147 q 465 -104 433 -104 q 518 -126 496 -104 q 540 -179 540 -147 q 518 -232 540 -210 q 465 -254 496 -254 z "},"Ɥ":{"ha":843,"x_min":110,"x_max":735,"o":"m 631 0 l 631 451 l 110 451 l 110 947 l 214 947 l 214 538 l 631 538 l 631 947 l 735 947 l 735 0 l 631 0 z "},"I":{"ha":440,"x_min":76,"x_max":364,"o":"m 76 0 l 76 92 l 168 92 l 168 856 l 76 856 l 76 947 l 364 947 l 364 856 l 272 856 l 272 92 l 364 92 l 364 0 l 76 0 z "},"Í":{"ha":440,"x_min":47,"x_max":394,"o":"m 76 0 l 76 92 l 168 92 l 168 856 l 76 856 l 76 947 l 364 947 l 364 856 l 272 856 l 272 92 l 364 92 l 364 0 l 76 0 m 75 1007 l 47 1054 l 347 1208 l 394 1128 l 75 1007 z "},"Ĭ":{"ha":440,"x_min":18,"x_max":424,"o":"m 76 0 l 76 92 l 168 92 l 168 856 l 76 856 l 76 947 l 364 947 l 364 856 l 272 856 l 272 92 l 364 92 l 364 0 l 76 0 m 221 1028 q 75 1069 131 1028 q 18 1192 19 1110 l 75 1192 q 221 1113 89 1113 q 367 1192 353 1113 l 424 1192 q 367 1069 422 1110 q 221 1028 311 1028 z "},"Ǐ":{"ha":440,"x_min":4,"x_max":436,"o":"m 76 0 l 76 92 l 168 92 l 168 856 l 76 856 l 76 947 l 364 947 l 364 856 l 272 856 l 272 92 l 364 92 l 364 0 l 76 0 m 31 1211 l 219 1118 l 410 1211 l 436 1164 l 219 1019 l 4 1164 l 31 1211 z "},"Î":{"ha":440,"x_min":4,"x_max":436,"o":"m 76 0 l 76 92 l 168 92 l 168 856 l 76 856 l 76 947 l 364 947 l 364 856 l 272 856 l 272 92 l 364 92 l 364 0 l 76 0 m 31 1024 l 4 1071 l 219 1215 l 436 1071 l 410 1024 l 219 1117 l 31 1024 z "},"Ȉ":{"ha":440,"x_min":-142,"x_max":444,"o":"m 76 0 l 76 92 l 168 92 l 168 856 l 76 856 l 76 947 l 364 947 l 364 856 l 272 856 l 272 92 l 364 92 l 364 0 l 76 0 m 406 1056 l 111 1238 l 178 1304 l 444 1093 l 406 1056 m 167 1056 l -142 1210 l -75 1276 l 206 1093 l 167 1056 z "},"Ï":{"ha":440,"x_min":10,"x_max":432,"o":"m 76 0 l 76 92 l 168 92 l 168 856 l 76 856 l 76 947 l 364 947 l 364 856 l 272 856 l 272 92 l 364 92 l 364 0 l 76 0 m 85 1054 q 31 1076 53 1054 q 10 1131 10 1099 q 31 1183 10 1161 q 85 1204 53 1204 q 138 1183 115 1204 q 161 1129 161 1161 q 138 1076 161 1099 q 85 1054 115 1054 m 357 1054 q 303 1076 325 1054 q 281 1131 281 1099 q 303 1183 281 1161 q 357 1204 325 1204 q 410 1183 388 1204 q 432 1129 432 1161 q 410 1076 432 1099 q 357 1054 388 1054 z "},"Ḯ":{"ha":440,"x_min":10,"x_max":432,"o":"m 76 0 l 76 92 l 168 92 l 168 856 l 76 856 l 76 947 l 364 947 l 364 856 l 272 856 l 272 92 l 364 92 l 364 0 l 76 0 m 85 1054 q 31 1076 53 1054 q 10 1131 10 1099 q 31 1183 10 1161 q 85 1204 53 1204 q 138 1183 115 1204 q 161 1129 161 1161 q 138 1076 161 1099 q 85 1054 115 1054 m 357 1054 q 303 1076 325 1054 q 281 1131 281 1099 q 303 1183 281 1161 q 357 1204 325 1204 q 410 1183 388 1204 q 432 1129 432 1161 q 410 1076 432 1099 q 357 1054 388 1054 m 75 1236 l 47 1283 l 347 1438 l 394 1357 l 75 1236 z "},"İ":{"ha":440,"x_min":76,"x_max":364,"o":"m 76 0 l 76 92 l 168 92 l 168 856 l 76 856 l 76 947 l 364 947 l 364 856 l 272 856 l 272 92 l 364 92 l 364 0 l 76 0 m 221 1040 q 167 1063 189 1040 q 146 1117 146 1085 q 167 1169 146 1147 q 221 1190 189 1190 q 274 1169 251 1190 q 296 1115 296 1147 q 274 1063 296 1085 q 221 1040 251 1040 z "},"Ị":{"ha":440,"x_min":76,"x_max":364,"o":"m 76 0 l 76 92 l 168 92 l 168 856 l 76 856 l 76 947 l 364 947 l 364 856 l 272 856 l 272 92 l 364 92 l 364 0 l 76 0 m 221 -254 q 167 -232 189 -254 q 146 -178 146 -210 q 167 -126 146 -147 q 221 -104 189 -104 q 274 -126 251 -104 q 296 -179 296 -147 q 274 -232 296 -210 q 221 -254 251 -254 z "},"Ì":{"ha":440,"x_min":47,"x_max":394,"o":"m 76 0 l 76 92 l 168 92 l 168 856 l 76 856 l 76 947 l 364 947 l 364 856 l 272 856 l 272 92 l 364 92 l 364 0 l 76 0 m 367 1007 l 47 1128 l 94 1208 l 394 1054 l 367 1007 z "},"Ȋ":{"ha":440,"x_min":32,"x_max":410,"o":"m 76 0 l 76 92 l 168 92 l 168 856 l 76 856 l 76 947 l 364 947 l 364 856 l 272 856 l 272 92 l 364 92 l 364 0 l 76 0 m 221 1267 q 357 1219 306 1267 q 410 1075 408 1171 l 353 1075 q 313 1156 347 1129 q 221 1182 279 1182 q 128 1156 163 1182 q 89 1075 94 1129 l 32 1075 q 85 1219 33 1171 q 221 1267 136 1267 z "},"Ī":{"ha":440,"x_min":35,"x_max":406,"o":"m 76 0 l 76 92 l 168 92 l 168 856 l 76 856 l 76 947 l 364 947 l 364 856 l 272 856 l 272 92 l 364 92 l 364 0 l 76 0 m 35 1064 l 35 1126 l 406 1126 l 406 1064 l 35 1064 z "},"Į":{"ha":440,"x_min":76,"x_max":369,"o":"m 369 -237 q 240 -276 299 -276 q 163 -253 196 -276 q 117 -189 131 -231 q 110 -143 110 -169 q 132 -66 110 -103 q 193 0 154 -29 l 76 0 l 76 92 l 168 92 l 168 856 l 76 856 l 76 947 l 364 947 l 364 856 l 272 856 l 272 92 l 364 92 l 364 0 l 269 0 q 207 -118 207 -50 q 218 -172 207 -142 q 247 -210 228 -197 q 292 -224 265 -224 q 353 -207 319 -224 l 369 -237 z "},"Ɩ":{"ha":367,"x_min":104,"x_max":328,"o":"m 328 0 q 169 53 238 0 q 104 206 104 106 l 104 947 l 208 947 l 208 206 q 328 94 208 94 l 328 0 z "},"Ɨ":{"ha":450,"x_min":49,"x_max":401,"o":"m 401 456 l 278 456 l 278 92 l 369 92 l 369 0 l 82 0 l 82 92 l 174 92 l 174 456 l 49 456 l 49 514 l 174 514 l 174 856 l 82 856 l 82 947 l 369 947 l 369 856 l 278 856 l 278 514 l 401 514 l 401 456 z "},"Ĩ":{"ha":440,"x_min":-18,"x_max":458,"o":"m 76 0 l 76 92 l 168 92 l 168 856 l 76 856 l 76 947 l 364 947 l 364 856 l 272 856 l 272 92 l 364 92 l 364 0 l 76 0 m 325 1029 q 272 1038 294 1029 q 222 1061 249 1046 q 199 1072 218 1064 q 163 1085 181 1081 q 125 1090 144 1090 q 70 1079 89 1090 q 44 1043 51 1068 l -18 1043 q 23 1136 -11 1097 q 118 1175 57 1175 q 172 1167 147 1175 q 231 1140 196 1158 q 281 1119 258 1126 q 325 1111 303 1111 q 373 1126 354 1111 q 394 1161 392 1140 l 458 1161 q 420 1067 451 1104 q 325 1029 389 1029 z "},"Ḭ":{"ha":440,"x_min":-18,"x_max":458,"o":"m 76 0 l 76 92 l 168 92 l 168 856 l 76 856 l 76 947 l 364 947 l 364 856 l 272 856 l 272 92 l 364 92 l 364 0 l 76 0 m -18 -294 q 30 -170 -11 -226 q 132 -114 71 -114 q 183 -126 161 -114 q 238 -162 206 -137 q 284 -195 265 -185 q 325 -206 303 -206 q 373 -179 354 -206 q 394 -114 392 -153 l 458 -114 q 413 -240 451 -186 q 311 -294 375 -294 q 261 -283 281 -294 q 215 -249 242 -272 q 172 -216 190 -226 q 125 -206 153 -206 q 70 -227 89 -206 q 44 -294 51 -249 l -18 -294 z "},"J":{"ha":689,"x_min":17,"x_max":578,"o":"m 299 -22 q 128 30 201 -22 q 17 176 56 82 l 104 218 q 177 113 125 151 q 293 75 229 75 q 428 130 382 75 q 474 285 474 185 l 474 947 l 578 947 l 578 285 q 503 59 578 140 q 299 -22 428 -22 z "},"Ĵ":{"ha":689,"x_min":17,"x_max":742,"o":"m 299 -22 q 128 30 201 -22 q 17 176 56 82 l 104 218 q 177 113 125 151 q 293 75 229 75 q 428 130 382 75 q 474 285 474 185 l 474 947 l 578 947 l 578 285 q 503 59 578 140 q 299 -22 428 -22 m 336 1024 l 310 1071 l 525 1215 l 742 1071 l 715 1024 l 525 1117 l 336 1024 z "},"Ɉ":{"ha":689,"x_min":17,"x_max":694,"o":"m 694 456 l 578 456 l 578 285 q 503 59 578 140 q 299 -22 428 -22 q 128 30 201 -22 q 17 176 56 82 l 104 218 q 177 113 125 151 q 293 75 229 75 q 428 130 382 75 q 474 285 474 185 l 474 456 l 342 456 l 342 514 l 474 514 l 474 947 l 578 947 l 578 514 l 694 514 l 694 456 z "},"K":{"ha":757,"x_min":110,"x_max":757,"o":"m 639 0 l 314 456 l 214 338 l 214 0 l 110 0 l 110 947 l 214 947 l 214 468 l 614 947 l 729 947 l 375 528 l 757 0 l 639 0 z "},"Ķ":{"ha":757,"x_min":110,"x_max":757,"o":"m 639 0 l 314 456 l 214 338 l 214 0 l 110 0 l 110 947 l 214 947 l 214 468 l 614 947 l 729 947 l 375 528 l 757 0 l 639 0 m 303 -344 q 381 -206 381 -293 q 324 -184 347 -206 q 301 -129 301 -162 q 322 -74 301 -94 q 376 -54 343 -54 q 433 -80 411 -54 q 456 -144 456 -106 q 417 -276 456 -212 q 317 -371 378 -339 l 303 -344 z "},"Ƙ":{"ha":897,"x_min":110,"x_max":853,"o":"m 735 956 q 822 923 790 956 q 853 840 853 890 q 835 766 853 803 q 783 699 818 729 l 733 743 q 772 824 772 786 q 759 857 772 844 q 722 869 746 869 q 654 849 685 869 q 578 772 624 829 l 374 529 l 757 0 l 639 0 l 313 456 l 214 338 l 214 0 l 110 0 l 110 947 l 214 947 l 214 468 l 517 829 q 623 924 571 893 q 735 956 675 956 z "},"Ḵ":{"ha":757,"x_min":110,"x_max":757,"o":"m 639 0 l 314 456 l 214 338 l 214 0 l 110 0 l 110 947 l 214 947 l 214 468 l 614 947 l 729 947 l 375 528 l 757 0 l 639 0 m 193 -158 l 193 -96 l 564 -96 l 564 -158 l 193 -158 z "},"L":{"ha":661,"x_min":110,"x_max":640,"o":"m 110 0 l 110 947 l 214 947 l 214 86 l 640 86 l 640 0 l 110 0 z "},"Ĺ":{"ha":661,"x_min":-7,"x_max":640,"o":"m 110 0 l 110 947 l 214 947 l 214 86 l 640 86 l 640 0 l 110 0 m 21 1007 l -7 1054 l 293 1208 l 340 1128 l 21 1007 z "},"Ľ":{"ha":661,"x_min":110,"x_max":640,"o":"m 110 0 l 110 947 l 214 947 l 214 86 l 640 86 l 640 0 l 110 0 m 354 685 q 415 824 415 753 q 399 897 415 861 q 392 929 392 911 q 405 962 392 950 q 442 974 418 974 q 519 882 519 974 q 481 760 519 826 q 385 653 443 693 l 354 685 z "},"Ḽ":{"ha":661,"x_min":110,"x_max":640,"o":"m 110 0 l 110 947 l 214 947 l 214 86 l 640 86 l 640 0 l 110 0 m 224 -299 l 197 -251 l 385 -79 l 574 -251 l 547 -299 l 385 -192 l 224 -299 z "},"Ļ":{"ha":661,"x_min":110,"x_max":640,"o":"m 110 0 l 110 947 l 214 947 l 214 86 l 640 86 l 640 0 l 110 0 m 310 -344 q 388 -206 388 -293 q 331 -184 354 -206 q 308 -129 308 -162 q 329 -74 308 -94 q 383 -54 350 -54 q 440 -80 418 -54 q 463 -144 463 -106 q 424 -276 463 -212 q 324 -371 385 -339 l 310 -344 z "},"Ŀ":{"ha":606,"x_min":110,"x_max":640,"o":"m 110 0 l 110 947 l 214 947 l 214 86 l 640 86 l 640 0 l 110 0 m 449 410 q 396 432 418 410 q 374 486 374 454 q 396 539 374 517 q 449 561 418 561 q 502 539 481 561 q 524 485 524 517 q 502 432 524 454 q 449 410 481 410 z "},"Ḷ":{"ha":661,"x_min":110,"x_max":640,"o":"m 110 0 l 110 947 l 214 947 l 214 86 l 640 86 l 640 0 l 110 0 m 386 -254 q 333 -232 354 -254 q 311 -178 311 -210 q 333 -126 311 -147 q 386 -104 354 -104 q 439 -126 417 -104 q 461 -179 461 -147 q 439 -232 461 -210 q 386 -254 417 -254 z "},"Ḻ":{"ha":661,"x_min":110,"x_max":640,"o":"m 110 0 l 110 947 l 214 947 l 214 86 l 640 86 l 640 0 l 110 0 m 200 -158 l 200 -96 l 571 -96 l 571 -158 l 200 -158 z "},"Ł":{"ha":661,"x_min":11,"x_max":640,"o":"m 214 86 l 640 86 l 640 0 l 110 0 l 110 303 l 49 260 l 11 317 l 110 386 l 110 947 l 214 947 l 214 458 l 342 549 l 379 492 l 214 376 l 214 86 z "},"M":{"ha":1146,"x_min":111,"x_max":1035,"o":"m 918 947 l 1035 947 l 1035 0 l 932 0 l 932 757 l 615 0 l 518 0 l 215 754 l 215 0 l 111 0 l 111 947 l 239 947 l 571 117 l 918 947 z "},"Ḿ":{"ha":1146,"x_min":111,"x_max":1035,"o":"m 918 947 l 1035 947 l 1035 0 l 932 0 l 932 757 l 615 0 l 518 0 l 215 754 l 215 0 l 111 0 l 111 947 l 239 947 l 571 117 l 918 947 m 428 1007 l 400 1054 l 700 1208 l 747 1128 l 428 1007 z "},"Ṃ":{"ha":1146,"x_min":111,"x_max":1035,"o":"m 918 947 l 1035 947 l 1035 0 l 932 0 l 932 757 l 615 0 l 518 0 l 215 754 l 215 0 l 111 0 l 111 947 l 239 947 l 571 117 l 918 947 m 574 -254 q 520 -232 542 -254 q 499 -178 499 -210 q 520 -126 499 -147 q 574 -104 542 -104 q 626 -126 604 -104 q 649 -179 649 -147 q 626 -232 649 -210 q 574 -254 604 -254 z "},"N":{"ha":919,"x_min":111,"x_max":808,"o":"m 111 0 l 111 947 l 222 947 l 704 157 l 704 947 l 808 947 l 808 0 l 697 0 l 215 788 l 215 0 l 111 0 z "},"Ń":{"ha":919,"x_min":111,"x_max":808,"o":"m 111 0 l 111 947 l 222 947 l 704 157 l 704 947 l 808 947 l 808 0 l 697 0 l 215 788 l 215 0 l 111 0 m 293 1007 l 265 1054 l 565 1208 l 613 1128 l 293 1007 z "},"Ň":{"ha":919,"x_min":111,"x_max":808,"o":"m 111 0 l 111 947 l 222 947 l 704 157 l 704 947 l 808 947 l 808 0 l 697 0 l 215 788 l 215 0 l 111 0 m 249 1211 l 438 1118 l 628 1211 l 654 1164 l 438 1019 l 222 1164 l 249 1211 z "},"Ṋ":{"ha":919,"x_min":111,"x_max":808,"o":"m 111 0 l 111 947 l 222 947 l 704 157 l 704 947 l 808 947 l 808 0 l 697 0 l 215 788 l 215 0 l 111 0 m 276 -299 l 250 -251 l 438 -79 l 626 -251 l 600 -299 l 438 -192 l 276 -299 z "},"Ņ":{"ha":919,"x_min":111,"x_max":808,"o":"m 111 0 l 111 947 l 222 947 l 704 157 l 704 947 l 808 947 l 808 0 l 697 0 l 215 788 l 215 0 l 111 0 m 363 -344 q 440 -206 440 -293 q 384 -184 407 -206 q 361 -129 361 -162 q 382 -74 361 -94 q 436 -54 403 -54 q 493 -80 471 -54 q 515 -144 515 -106 q 476 -276 515 -212 q 376 -371 438 -339 l 363 -344 z "},"Ṅ":{"ha":919,"x_min":111,"x_max":808,"o":"m 111 0 l 111 947 l 222 947 l 704 157 l 704 947 l 808 947 l 808 0 l 697 0 l 215 788 l 215 0 l 111 0 m 439 1040 q 385 1063 407 1040 q 364 1117 364 1085 q 385 1169 364 1147 q 439 1190 407 1190 q 492 1169 469 1190 q 514 1115 514 1147 q 492 1063 514 1085 q 439 1040 469 1040 z "},"Ṇ":{"ha":919,"x_min":111,"x_max":808,"o":"m 111 0 l 111 947 l 222 947 l 704 157 l 704 947 l 808 947 l 808 0 l 697 0 l 215 788 l 215 0 l 111 0 m 439 -254 q 385 -232 407 -254 q 364 -178 364 -210 q 385 -126 364 -147 q 439 -104 407 -104 q 492 -126 469 -104 q 514 -179 514 -147 q 492 -232 514 -210 q 439 -254 469 -254 z "},"Ǹ":{"ha":919,"x_min":111,"x_max":808,"o":"m 111 0 l 111 947 l 222 947 l 704 157 l 704 947 l 808 947 l 808 0 l 697 0 l 215 788 l 215 0 l 111 0 m 585 1007 l 265 1128 l 313 1208 l 613 1054 l 585 1007 z "},"Ŋ":{"ha":888,"x_min":111,"x_max":776,"o":"m 444 968 q 689 858 601 968 q 776 553 776 749 l 776 25 q 703 -202 776 -126 q 497 -278 631 -278 l 460 -278 l 460 -183 l 497 -183 q 672 25 672 -183 l 672 553 q 612 789 672 704 q 444 874 551 874 q 312 839 372 874 q 215 742 251 804 l 215 0 l 111 0 l 111 947 l 215 947 l 215 871 q 323 942 263 917 q 444 968 383 968 z "},"Ɲ":{"ha":888,"x_min":-32,"x_max":776,"o":"m 444 968 q 689 858 601 968 q 776 553 776 749 l 776 0 l 672 0 l 672 553 q 612 789 672 704 q 444 874 551 874 q 310 839 371 874 q 215 742 250 804 l 215 25 q 152 -198 215 -118 q -22 -278 89 -278 l -32 -278 l -32 -183 l -22 -183 q 76 -128 40 -183 q 111 25 111 -72 l 111 947 l 215 947 l 215 871 q 323 942 263 917 q 444 968 383 968 z "},"Ṉ":{"ha":919,"x_min":111,"x_max":808,"o":"m 111 0 l 111 947 l 222 947 l 704 157 l 704 947 l 808 947 l 808 0 l 697 0 l 215 788 l 215 0 l 111 0 m 253 -158 l 253 -96 l 624 -96 l 624 -158 l 253 -158 z "},"Ƞ":{"ha":893,"x_min":110,"x_max":789,"o":"m 679 553 q 622 788 679 701 q 450 874 564 874 q 221 742 299 874 l 221 0 l 110 0 l 110 947 l 221 947 l 221 871 q 450 968 319 968 q 705 856 621 968 q 789 553 789 743 l 789 -278 l 679 -278 l 679 553 z "},"Ñ":{"ha":919,"x_min":111,"x_max":808,"o":"m 111 0 l 111 947 l 222 947 l 704 157 l 704 947 l 808 947 l 808 0 l 697 0 l 215 788 l 215 0 l 111 0 m 543 1029 q 490 1038 513 1029 q 440 1061 467 1046 q 417 1072 436 1064 q 381 1085 399 1081 q 343 1090 363 1090 q 288 1079 307 1090 q 263 1043 269 1068 l 200 1043 q 241 1136 207 1097 q 336 1175 275 1175 q 390 1167 365 1175 q 449 1140 414 1158 q 499 1119 476 1126 q 543 1111 521 1111 q 591 1126 572 1111 q 613 1161 610 1140 l 676 1161 q 638 1067 669 1104 q 543 1029 607 1029 z "},"O":{"ha":967,"x_min":76,"x_max":890,"o":"m 483 -22 q 273 41 365 -22 q 128 217 181 104 q 76 472 76 329 q 128 728 76 615 q 273 905 181 842 q 483 968 365 968 q 694 905 601 968 q 838 728 786 842 q 890 471 890 615 q 838 216 890 328 q 694 41 786 104 q 483 -22 601 -22 m 483 74 q 638 124 569 74 q 746 266 707 175 q 785 472 785 357 q 746 679 785 588 q 638 822 707 771 q 483 874 569 874 q 328 822 397 874 q 221 679 260 771 q 182 472 182 588 q 221 266 182 357 q 328 124 260 175 q 483 74 397 74 z "},"Ȣ":{"ha":781,"x_min":49,"x_max":732,"o":"m 390 -22 q 140 46 231 -22 q 49 236 49 114 q 110 387 49 319 q 279 490 171 454 q 122 597 179 532 q 65 739 65 663 q 153 908 65 847 q 394 968 240 968 l 394 874 q 234 834 292 874 q 176 725 176 794 q 233 603 176 657 q 390 518 289 549 q 549 600 492 550 q 606 711 606 650 q 592 772 606 739 q 553 836 578 806 l 650 881 q 698 793 681 838 q 715 711 715 749 q 658 585 715 643 q 501 490 601 526 q 671 387 610 454 q 732 236 732 319 q 641 46 732 114 q 390 -22 550 -22 m 390 74 q 560 120 499 74 q 621 250 621 167 q 560 367 621 314 q 390 453 500 419 q 221 376 282 429 q 160 250 160 322 q 221 120 160 167 q 390 74 282 74 z "},"Ó":{"ha":967,"x_min":76,"x_max":890,"o":"m 483 -22 q 273 41 365 -22 q 128 217 181 104 q 76 472 76 329 q 128 728 76 615 q 273 905 181 842 q 483 968 365 968 q 694 905 601 968 q 838 728 786 842 q 890 471 890 615 q 838 216 890 328 q 694 41 786 104 q 483 -22 601 -22 m 483 74 q 638 124 569 74 q 746 266 707 175 q 785 472 785 357 q 746 679 785 588 q 638 822 707 771 q 483 874 569 874 q 328 822 397 874 q 221 679 260 771 q 182 472 182 588 q 221 266 182 357 q 328 124 260 175 q 483 74 397 74 m 338 1007 l 310 1054 l 610 1208 l 657 1128 l 338 1007 z "},"Ŏ":{"ha":967,"x_min":76,"x_max":890,"o":"m 483 -22 q 273 41 365 -22 q 128 217 181 104 q 76 472 76 329 q 128 728 76 615 q 273 905 181 842 q 483 968 365 968 q 694 905 601 968 q 838 728 786 842 q 890 471 890 615 q 838 216 890 328 q 694 41 786 104 q 483 -22 601 -22 m 483 74 q 638 124 569 74 q 746 266 707 175 q 785 472 785 357 q 746 679 785 588 q 638 822 707 771 q 483 874 569 874 q 328 822 397 874 q 221 679 260 771 q 182 472 182 588 q 221 266 182 357 q 328 124 260 175 q 483 74 397 74 m 483 1028 q 338 1069 393 1028 q 281 1192 282 1110 l 338 1192 q 483 1113 351 1113 q 629 1192 615 1113 l 686 1192 q 629 1069 685 1110 q 483 1028 574 1028 z "},"Ǒ":{"ha":967,"x_min":76,"x_max":890,"o":"m 483 -22 q 273 41 365 -22 q 128 217 181 104 q 76 472 76 329 q 128 728 76 615 q 273 905 181 842 q 483 968 365 968 q 694 905 601 968 q 838 728 786 842 q 890 471 890 615 q 838 216 890 328 q 694 41 786 104 q 483 -22 601 -22 m 483 74 q 638 124 569 74 q 746 266 707 175 q 785 472 785 357 q 746 679 785 588 q 638 822 707 771 q 483 874 569 874 q 328 822 397 874 q 221 679 260 771 q 182 472 182 588 q 221 266 182 357 q 328 124 260 175 q 483 74 397 74 m 293 1211 l 482 1118 l 672 1211 l 699 1164 l 482 1019 l 267 1164 l 293 1211 z "},"Ɵ":{"ha":967,"x_min":76,"x_max":890,"o":"m 483 968 q 694 905 601 968 q 838 728 786 842 q 890 471 890 615 q 838 216 890 328 q 694 41 786 104 q 483 -22 601 -22 q 273 41 365 -22 q 128 217 181 104 q 76 472 76 329 q 128 728 76 615 q 273 905 181 842 q 483 968 365 968 m 483 874 q 335 827 401 874 q 229 697 269 781 q 183 507 189 614 l 783 507 q 738 697 778 614 q 631 827 697 781 q 483 874 565 874 m 483 74 q 631 120 565 74 q 738 250 697 167 q 783 440 778 333 l 183 440 q 229 250 189 333 q 335 120 269 167 q 483 74 401 74 z "},"Ô":{"ha":967,"x_min":76,"x_max":890,"o":"m 483 -22 q 273 41 365 -22 q 128 217 181 104 q 76 472 76 329 q 128 728 76 615 q 273 905 181 842 q 483 968 365 968 q 694 905 601 968 q 838 728 786 842 q 890 471 890 615 q 838 216 890 328 q 694 41 786 104 q 483 -22 601 -22 m 483 74 q 638 124 569 74 q 746 266 707 175 q 785 472 785 357 q 746 679 785 588 q 638 822 707 771 q 483 874 569 874 q 328 822 397 874 q 221 679 260 771 q 182 472 182 588 q 221 266 182 357 q 328 124 260 175 q 483 74 397 74 m 293 1024 l 267 1071 l 482 1215 l 699 1071 l 672 1024 l 482 1117 l 293 1024 z "},"Ộ":{"ha":967,"x_min":76,"x_max":890,"o":"m 483 -22 q 273 41 365 -22 q 128 217 181 104 q 76 472 76 329 q 128 728 76 615 q 273 905 181 842 q 483 968 365 968 q 694 905 601 968 q 838 728 786 842 q 890 471 890 615 q 838 216 890 328 q 694 41 786 104 q 483 -22 601 -22 m 483 74 q 638 124 569 74 q 746 266 707 175 q 785 472 785 357 q 746 679 785 588 q 638 822 707 771 q 483 874 569 874 q 328 822 397 874 q 221 679 260 771 q 182 472 182 588 q 221 266 182 357 q 328 124 260 175 q 483 74 397 74 m 293 1024 l 267 1071 l 482 1215 l 699 1071 l 672 1024 l 482 1117 l 293 1024 m 483 -254 q 430 -232 451 -254 q 408 -178 408 -210 q 430 -126 408 -147 q 483 -104 451 -104 q 536 -126 514 -104 q 558 -179 558 -147 q 536 -232 558 -210 q 483 -254 514 -254 z "},"Ȍ":{"ha":967,"x_min":76,"x_max":890,"o":"m 483 -22 q 273 41 365 -22 q 128 217 181 104 q 76 472 76 329 q 128 728 76 615 q 273 905 181 842 q 483 968 365 968 q 694 905 601 968 q 838 728 786 842 q 890 471 890 615 q 838 216 890 328 q 694 41 786 104 q 483 -22 601 -22 m 483 74 q 638 124 569 74 q 746 266 707 175 q 785 472 785 357 q 746 679 785 588 q 638 822 707 771 q 483 874 569 874 q 328 822 397 874 q 221 679 260 771 q 182 472 182 588 q 221 266 182 357 q 328 124 260 175 q 483 74 397 74 m 668 1056 l 374 1238 l 440 1304 l 707 1093 l 668 1056 m 429 1056 l 121 1210 l 188 1276 l 468 1093 l 429 1056 z "},"Ö":{"ha":967,"x_min":76,"x_max":890,"o":"m 483 -22 q 273 41 365 -22 q 128 217 181 104 q 76 472 76 329 q 128 728 76 615 q 273 905 181 842 q 483 968 365 968 q 694 905 601 968 q 838 728 786 842 q 890 471 890 615 q 838 216 890 328 q 694 41 786 104 q 483 -22 601 -22 m 483 74 q 638 124 569 74 q 746 266 707 175 q 785 472 785 357 q 746 679 785 588 q 638 822 707 771 q 483 874 569 874 q 328 822 397 874 q 221 679 260 771 q 182 472 182 588 q 221 266 182 357 q 328 124 260 175 q 483 74 397 74 m 347 1054 q 294 1076 315 1054 q 272 1131 272 1099 q 294 1183 272 1161 q 347 1204 315 1204 q 401 1183 378 1204 q 424 1129 424 1161 q 401 1076 424 1099 q 347 1054 378 1054 m 619 1054 q 565 1076 588 1054 q 543 1131 543 1099 q 565 1183 543 1161 q 619 1204 588 1204 q 672 1183 650 1204 q 694 1129 694 1161 q 672 1076 694 1099 q 619 1054 650 1054 z "},"Ȫ":{"ha":967,"x_min":76,"x_max":890,"o":"m 483 -22 q 273 41 365 -22 q 128 217 181 104 q 76 472 76 329 q 128 728 76 615 q 273 905 181 842 q 483 968 365 968 q 694 905 601 968 q 838 728 786 842 q 890 471 890 615 q 838 216 890 328 q 694 41 786 104 q 483 -22 601 -22 m 483 74 q 638 124 569 74 q 746 266 707 175 q 785 472 785 357 q 746 679 785 588 q 638 822 707 771 q 483 874 569 874 q 328 822 397 874 q 221 679 260 771 q 182 472 182 588 q 221 266 182 357 q 328 124 260 175 q 483 74 397 74 m 347 1054 q 294 1076 315 1054 q 272 1131 272 1099 q 294 1183 272 1161 q 347 1204 315 1204 q 401 1183 378 1204 q 424 1129 424 1161 q 401 1076 424 1099 q 347 1054 378 1054 m 619 1054 q 565 1076 588 1054 q 543 1131 543 1099 q 565 1183 543 1161 q 619 1204 588 1204 q 672 1183 650 1204 q 694 1129 694 1161 q 672 1076 694 1099 q 619 1054 650 1054 m 297 1293 l 297 1356 l 668 1356 l 668 1293 l 297 1293 z "},"Ȯ":{"ha":967,"x_min":76,"x_max":890,"o":"m 483 -22 q 273 41 365 -22 q 128 217 181 104 q 76 472 76 329 q 128 728 76 615 q 273 905 181 842 q 483 968 365 968 q 694 905 601 968 q 838 728 786 842 q 890 471 890 615 q 838 216 890 328 q 694 41 786 104 q 483 -22 601 -22 m 483 74 q 638 124 569 74 q 746 266 707 175 q 785 472 785 357 q 746 679 785 588 q 638 822 707 771 q 483 874 569 874 q 328 822 397 874 q 221 679 260 771 q 182 472 182 588 q 221 266 182 357 q 328 124 260 175 q 483 74 397 74 m 483 1040 q 430 1063 451 1040 q 408 1117 408 1085 q 430 1169 408 1147 q 483 1190 451 1190 q 536 1169 514 1190 q 558 1115 558 1147 q 536 1063 558 1085 q 483 1040 514 1040 z "},"Ȱ":{"ha":967,"x_min":76,"x_max":890,"o":"m 483 -22 q 273 41 365 -22 q 128 217 181 104 q 76 472 76 329 q 128 728 76 615 q 273 905 181 842 q 483 968 365 968 q 694 905 601 968 q 838 728 786 842 q 890 471 890 615 q 838 216 890 328 q 694 41 786 104 q 483 -22 601 -22 m 483 74 q 638 124 569 74 q 746 266 707 175 q 785 472 785 357 q 746 679 785 588 q 638 822 707 771 q 483 874 569 874 q 328 822 397 874 q 221 679 260 771 q 182 472 182 588 q 221 266 182 357 q 328 124 260 175 q 483 74 397 74 m 483 1040 q 430 1063 451 1040 q 408 1117 408 1085 q 430 1169 408 1147 q 483 1190 451 1190 q 536 1169 514 1190 q 558 1115 558 1147 q 536 1063 558 1085 q 483 1040 514 1040 m 297 1307 l 297 1369 l 668 1369 l 668 1307 l 297 1307 z "},"Ọ":{"ha":967,"x_min":76,"x_max":890,"o":"m 483 -22 q 273 41 365 -22 q 128 217 181 104 q 76 472 76 329 q 128 728 76 615 q 273 905 181 842 q 483 968 365 968 q 694 905 601 968 q 838 728 786 842 q 890 471 890 615 q 838 216 890 328 q 694 41 786 104 q 483 -22 601 -22 m 483 74 q 638 124 569 74 q 746 266 707 175 q 785 472 785 357 q 746 679 785 588 q 638 822 707 771 q 483 874 569 874 q 328 822 397 874 q 221 679 260 771 q 182 472 182 588 q 221 266 182 357 q 328 124 260 175 q 483 74 397 74 m 483 -254 q 430 -232 451 -254 q 408 -178 408 -210 q 430 -126 408 -147 q 483 -104 451 -104 q 536 -126 514 -104 q 558 -179 558 -147 q 536 -232 558 -210 q 483 -254 514 -254 z "},"Ò":{"ha":967,"x_min":76,"x_max":890,"o":"m 483 -22 q 273 41 365 -22 q 128 217 181 104 q 76 472 76 329 q 128 728 76 615 q 273 905 181 842 q 483 968 365 968 q 694 905 601 968 q 838 728 786 842 q 890 471 890 615 q 838 216 890 328 q 694 41 786 104 q 483 -22 601 -22 m 483 74 q 638 124 569 74 q 746 266 707 175 q 785 472 785 357 q 746 679 785 588 q 638 822 707 771 q 483 874 569 874 q 328 822 397 874 q 221 679 260 771 q 182 472 182 588 q 221 266 182 357 q 328 124 260 175 q 483 74 397 74 m 629 1007 l 310 1128 l 357 1208 l 657 1054 l 629 1007 z "},"Ő":{"ha":967,"x_min":76,"x_max":897,"o":"m 483 -22 q 273 41 365 -22 q 128 217 181 104 q 76 472 76 329 q 128 728 76 615 q 273 905 181 842 q 483 968 365 968 q 694 905 601 968 q 838 728 786 842 q 890 471 890 615 q 838 216 890 328 q 694 41 786 104 q 483 -22 601 -22 m 483 74 q 638 124 569 74 q 746 266 707 175 q 785 472 785 357 q 746 679 785 588 q 638 822 707 771 q 483 874 569 874 q 328 822 397 874 q 221 679 260 771 q 182 472 182 588 q 221 266 182 357 q 328 124 260 175 q 483 74 397 74 m 350 1056 l 311 1093 l 578 1304 l 644 1238 l 350 1056 m 589 1056 l 550 1093 l 831 1276 l 897 1210 l 589 1056 z "},"Ȏ":{"ha":967,"x_min":76,"x_max":890,"o":"m 483 -22 q 273 41 365 -22 q 128 217 181 104 q 76 472 76 329 q 128 728 76 615 q 273 905 181 842 q 483 968 365 968 q 694 905 601 968 q 838 728 786 842 q 890 471 890 615 q 838 216 890 328 q 694 41 786 104 q 483 -22 601 -22 m 483 74 q 638 124 569 74 q 746 266 707 175 q 785 472 785 357 q 746 679 785 588 q 638 822 707 771 q 483 874 569 874 q 328 822 397 874 q 221 679 260 771 q 182 472 182 588 q 221 266 182 357 q 328 124 260 175 q 483 74 397 74 m 483 1267 q 619 1219 568 1267 q 672 1075 671 1171 l 615 1075 q 576 1156 610 1129 q 483 1182 542 1182 q 391 1156 425 1182 q 351 1075 357 1129 l 294 1075 q 347 1219 296 1171 q 483 1267 399 1267 z "},"Ō":{"ha":967,"x_min":76,"x_max":890,"o":"m 483 -22 q 273 41 365 -22 q 128 217 181 104 q 76 472 76 329 q 128 728 76 615 q 273 905 181 842 q 483 968 365 968 q 694 905 601 968 q 838 728 786 842 q 890 471 890 615 q 838 216 890 328 q 694 41 786 104 q 483 -22 601 -22 m 483 74 q 638 124 569 74 q 746 266 707 175 q 785 472 785 357 q 746 679 785 588 q 638 822 707 771 q 483 874 569 874 q 328 822 397 874 q 221 679 260 771 q 182 472 182 588 q 221 266 182 357 q 328 124 260 175 q 483 74 397 74 m 297 1064 l 297 1126 l 668 1126 l 668 1064 l 297 1064 z "},"Ṓ":{"ha":967,"x_min":76,"x_max":890,"o":"m 483 -22 q 273 41 365 -22 q 128 217 181 104 q 76 472 76 329 q 128 728 76 615 q 273 905 181 842 q 483 968 365 968 q 694 905 601 968 q 838 728 786 842 q 890 471 890 615 q 838 216 890 328 q 694 41 786 104 q 483 -22 601 -22 m 483 74 q 638 124 569 74 q 746 266 707 175 q 785 472 785 357 q 746 679 785 588 q 638 822 707 771 q 483 874 569 874 q 328 822 397 874 q 221 679 260 771 q 182 472 182 588 q 221 266 182 357 q 328 124 260 175 q 483 74 397 74 m 297 1064 l 297 1126 l 668 1126 l 668 1064 l 297 1064 m 338 1186 l 310 1233 l 610 1388 l 657 1307 l 338 1186 z "},"Ṑ":{"ha":967,"x_min":76,"x_max":890,"o":"m 483 -22 q 273 41 365 -22 q 128 217 181 104 q 76 472 76 329 q 128 728 76 615 q 273 905 181 842 q 483 968 365 968 q 694 905 601 968 q 838 728 786 842 q 890 471 890 615 q 838 216 890 328 q 694 41 786 104 q 483 -22 601 -22 m 483 74 q 638 124 569 74 q 746 266 707 175 q 785 472 785 357 q 746 679 785 588 q 638 822 707 771 q 483 874 569 874 q 328 822 397 874 q 221 679 260 771 q 182 472 182 588 q 221 266 182 357 q 328 124 260 175 q 483 74 397 74 m 297 1064 l 297 1126 l 668 1126 l 668 1064 l 297 1064 m 629 1186 l 310 1307 l 357 1388 l 657 1233 l 629 1186 z "},"Ǫ":{"ha":967,"x_min":76,"x_max":917,"o":"m 483 -22 q 273 41 365 -22 q 128 217 181 104 q 76 472 76 329 q 128 728 76 615 q 273 905 181 842 q 483 968 365 968 q 694 905 601 968 q 838 728 786 842 q 890 471 890 615 q 838 216 890 328 q 694 41 786 104 q 483 -22 601 -22 m 483 74 q 638 124 569 74 q 746 266 707 175 q 785 472 785 357 q 746 679 785 588 q 638 822 707 771 q 483 874 569 874 q 328 822 397 874 q 221 679 260 771 q 182 472 182 588 q 221 266 182 357 q 328 124 260 175 q 483 74 397 74 m 788 -296 q 710 -273 743 -296 q 664 -208 678 -250 q 656 -162 656 -186 q 717 -38 656 -93 q 869 33 779 17 l 869 14 q 788 -48 821 -8 q 754 -137 754 -87 q 765 -192 754 -161 q 794 -230 775 -217 q 839 -243 813 -243 q 900 -226 867 -243 l 917 -257 q 788 -296 846 -296 z "},"Ɔ":{"ha":840,"x_min":49,"x_max":764,"o":"m 378 -22 q 181 35 264 -22 q 49 200 99 92 l 136 253 q 238 116 183 160 q 392 72 293 72 q 531 120 471 72 q 622 258 590 168 q 654 472 654 349 q 584 767 654 661 q 390 874 514 874 q 244 838 304 874 q 140 721 185 803 l 57 769 q 188 916 104 864 q 390 968 272 968 q 590 909 506 968 q 719 738 674 850 q 764 471 764 626 q 717 206 764 317 q 584 37 671 96 q 378 -22 497 -22 z "},"Ø":{"ha":967,"x_min":76,"x_max":890,"o":"m 707 896 q 842 721 793 832 q 890 471 890 610 q 838 216 890 328 q 694 41 786 104 q 483 -22 601 -22 q 294 26 383 -22 l 240 -87 l 172 -54 l 232 72 q 117 242 158 139 q 76 472 76 346 q 128 728 76 615 q 273 905 181 842 q 483 968 365 968 q 639 935 568 968 l 685 1032 l 757 1000 l 707 896 m 182 472 q 207 303 182 381 q 279 171 232 226 l 597 847 q 483 874 542 874 q 328 822 397 874 q 221 679 260 771 q 182 472 182 588 m 483 74 q 638 124 569 74 q 746 266 707 175 q 785 472 785 357 q 752 662 785 576 q 663 801 719 747 l 338 118 q 483 74 403 74 z "},"Ǿ":{"ha":967,"x_min":76,"x_max":890,"o":"m 707 896 q 842 721 793 832 q 890 471 890 610 q 838 216 890 328 q 694 41 786 104 q 483 -22 601 -22 q 294 26 383 -22 l 240 -87 l 172 -54 l 232 72 q 117 242 158 139 q 76 472 76 346 q 128 728 76 615 q 273 905 181 842 q 483 968 365 968 q 639 935 568 968 l 685 1032 l 757 1000 l 707 896 m 182 472 q 207 303 182 381 q 279 171 232 226 l 597 847 q 483 874 542 874 q 328 822 397 874 q 221 679 260 771 q 182 472 182 588 m 483 74 q 638 124 569 74 q 746 266 707 175 q 785 472 785 357 q 752 662 785 576 q 663 801 719 747 l 338 118 q 483 74 403 74 m 338 1007 l 310 1054 l 610 1208 l 657 1128 l 338 1007 z "},"Õ":{"ha":967,"x_min":76,"x_max":890,"o":"m 483 -22 q 273 41 365 -22 q 128 217 181 104 q 76 472 76 329 q 128 728 76 615 q 273 905 181 842 q 483 968 365 968 q 694 905 601 968 q 838 728 786 842 q 890 471 890 615 q 838 216 890 328 q 694 41 786 104 q 483 -22 601 -22 m 483 74 q 638 124 569 74 q 746 266 707 175 q 785 472 785 357 q 746 679 785 588 q 638 822 707 771 q 483 874 569 874 q 328 822 397 874 q 221 679 260 771 q 182 472 182 588 q 221 266 182 357 q 328 124 260 175 q 483 74 397 74 m 588 1029 q 534 1038 557 1029 q 485 1061 511 1046 q 462 1072 481 1064 q 425 1085 443 1081 q 388 1090 407 1090 q 333 1079 351 1090 q 307 1043 314 1068 l 244 1043 q 285 1136 251 1097 q 381 1175 319 1175 q 434 1167 410 1175 q 493 1140 458 1158 q 543 1119 521 1126 q 588 1111 565 1111 q 635 1126 617 1111 q 657 1161 654 1140 l 721 1161 q 683 1067 714 1104 q 588 1029 651 1029 z "},"Ṍ":{"ha":967,"x_min":76,"x_max":890,"o":"m 483 -22 q 273 41 365 -22 q 128 217 181 104 q 76 472 76 329 q 128 728 76 615 q 273 905 181 842 q 483 968 365 968 q 694 905 601 968 q 838 728 786 842 q 890 471 890 615 q 838 216 890 328 q 694 41 786 104 q 483 -22 601 -22 m 483 74 q 638 124 569 74 q 746 266 707 175 q 785 472 785 357 q 746 679 785 588 q 638 822 707 771 q 483 874 569 874 q 328 822 397 874 q 221 679 260 771 q 182 472 182 588 q 221 266 182 357 q 328 124 260 175 q 483 74 397 74 m 588 1029 q 534 1038 557 1029 q 485 1061 511 1046 q 462 1072 481 1064 q 425 1085 443 1081 q 388 1090 407 1090 q 333 1079 351 1090 q 307 1043 314 1068 l 244 1043 q 285 1136 251 1097 q 381 1175 319 1175 q 434 1167 410 1175 q 493 1140 458 1158 q 543 1119 521 1126 q 588 1111 565 1111 q 635 1126 617 1111 q 657 1161 654 1140 l 721 1161 q 683 1067 714 1104 q 588 1029 651 1029 m 338 1235 l 310 1282 l 610 1436 l 657 1356 l 338 1235 z "},"Ȭ":{"ha":967,"x_min":76,"x_max":890,"o":"m 483 -22 q 273 41 365 -22 q 128 217 181 104 q 76 472 76 329 q 128 728 76 615 q 273 905 181 842 q 483 968 365 968 q 694 905 601 968 q 838 728 786 842 q 890 471 890 615 q 838 216 890 328 q 694 41 786 104 q 483 -22 601 -22 m 483 74 q 638 124 569 74 q 746 266 707 175 q 785 472 785 357 q 746 679 785 588 q 638 822 707 771 q 483 874 569 874 q 328 822 397 874 q 221 679 260 771 q 182 472 182 588 q 221 266 182 357 q 328 124 260 175 q 483 74 397 74 m 588 1029 q 534 1038 557 1029 q 485 1061 511 1046 q 462 1072 481 1064 q 425 1085 443 1081 q 388 1090 407 1090 q 333 1079 351 1090 q 307 1043 314 1068 l 244 1043 q 285 1136 251 1097 q 381 1175 319 1175 q 434 1167 410 1175 q 493 1140 458 1158 q 543 1119 521 1126 q 588 1111 565 1111 q 635 1126 617 1111 q 657 1161 654 1140 l 721 1161 q 683 1067 714 1104 q 588 1029 651 1029 m 297 1292 l 297 1354 l 668 1354 l 668 1292 l 297 1292 z "},"Œ":{"ha":1153,"x_min":76,"x_max":1099,"o":"m 1099 0 l 614 0 q 483 -22 556 -22 q 273 41 365 -22 q 128 217 181 104 q 76 472 76 329 q 128 728 76 615 q 273 905 181 842 q 483 968 365 968 q 610 947 551 968 l 1094 947 l 1094 860 l 668 860 l 668 529 l 1001 529 l 1001 444 l 668 444 l 668 86 l 1099 86 l 1099 0 m 186 472 q 224 266 186 357 q 330 124 263 175 q 483 74 397 74 q 564 86 526 74 l 564 861 q 483 874 526 874 q 330 822 397 874 q 224 679 263 771 q 186 472 186 588 z "},"P":{"ha":743,"x_min":111,"x_max":708,"o":"m 111 947 l 428 947 q 632 869 556 947 q 708 654 708 792 q 628 440 708 518 q 417 363 549 363 l 215 363 l 215 0 l 111 0 l 111 947 m 414 449 q 556 501 507 449 q 604 654 604 553 q 556 808 604 756 q 414 861 507 861 l 215 861 l 215 449 l 414 449 z "},"Ṗ":{"ha":743,"x_min":111,"x_max":708,"o":"m 111 947 l 428 947 q 632 869 556 947 q 708 654 708 792 q 628 440 708 518 q 417 363 549 363 l 215 363 l 215 0 l 111 0 l 111 947 m 414 449 q 556 501 507 449 q 604 654 604 553 q 556 808 604 756 q 414 861 507 861 l 215 861 l 215 449 l 414 449 m 372 1040 q 319 1063 340 1040 q 297 1117 297 1085 q 319 1169 297 1147 q 372 1190 340 1190 q 425 1169 403 1190 q 447 1115 447 1147 q 425 1063 447 1085 q 372 1040 403 1040 z "},"Ƥ":{"ha":913,"x_min":38,"x_max":878,"o":"m 597 947 q 801 869 725 947 q 878 654 878 792 q 798 440 878 518 q 586 363 718 363 l 385 363 l 385 0 l 281 0 l 281 853 l 244 853 q 160 822 194 853 q 125 742 125 790 l 125 592 l 38 592 l 38 742 q 65 845 38 799 q 139 919 92 892 q 244 947 186 947 l 597 947 m 583 449 q 725 501 676 449 q 774 654 774 553 q 725 808 774 756 q 583 861 676 861 l 385 861 l 385 449 l 583 449 z "},"Þ":{"ha":731,"x_min":111,"x_max":696,"o":"m 111 947 l 215 947 l 215 808 l 415 808 q 619 734 543 808 q 696 529 696 660 q 616 326 696 400 q 404 251 536 251 l 217 251 l 217 0 l 111 0 l 111 947 m 401 338 q 544 386 496 338 q 592 529 592 435 q 543 673 592 624 q 401 722 494 722 l 217 722 l 217 338 l 401 338 z "},"Q":{"ha":931,"x_min":76,"x_max":890,"o":"m 890 471 q 857 263 890 358 q 763 100 824 168 l 844 19 l 783 -40 l 699 44 q 483 -22 604 -22 q 273 41 365 -22 q 128 217 181 104 q 76 472 76 329 q 128 728 76 615 q 273 905 181 842 q 483 968 365 968 q 694 905 601 968 q 838 728 786 842 q 890 471 890 615 m 483 74 q 625 115 560 74 l 508 232 l 569 293 l 690 174 q 760 305 735 228 q 785 472 785 382 q 746 679 785 588 q 638 822 707 771 q 483 874 569 874 q 328 822 397 874 q 221 679 260 771 q 182 472 182 588 q 221 266 182 357 q 328 124 260 175 q 483 74 397 74 z "},"Ɋ":{"ha":981,"x_min":76,"x_max":1028,"o":"m 1028 -183 l 1028 -278 l 990 -278 q 828 -229 888 -278 q 768 -72 768 -181 l 768 33 l 858 33 q 778 183 785 81 q 660 31 735 83 q 483 -22 585 -22 q 273 41 365 -22 q 128 217 181 104 q 76 472 76 329 q 128 728 76 615 q 273 905 181 842 q 483 968 365 968 q 683 913 597 968 q 817 745 768 857 q 867 471 865 633 l 867 206 q 899 124 867 153 q 986 94 931 94 l 1024 94 l 1024 0 l 986 0 q 872 25 918 0 l 872 -72 q 901 -156 872 -129 q 990 -183 931 -183 l 1028 -183 m 483 74 q 628 119 565 74 q 727 255 692 165 q 763 472 763 344 q 687 773 763 672 q 483 874 611 874 q 330 822 397 874 q 224 679 263 771 q 186 472 186 588 q 224 266 186 357 q 330 124 263 175 q 483 74 397 74 z "},"R":{"ha":806,"x_min":110,"x_max":751,"o":"m 642 0 l 401 418 l 214 418 l 214 0 l 110 0 l 110 947 l 426 947 q 578 914 513 947 q 678 820 643 881 q 713 682 713 760 q 656 520 713 588 q 504 429 599 453 l 751 0 l 642 0 m 214 504 l 413 504 q 553 553 504 504 q 603 682 603 601 q 553 812 603 763 q 413 861 504 861 l 214 861 l 214 504 z "},"Ŕ":{"ha":806,"x_min":110,"x_max":751,"o":"m 642 0 l 401 418 l 214 418 l 214 0 l 110 0 l 110 947 l 426 947 q 578 914 513 947 q 678 820 643 881 q 713 682 713 760 q 656 520 713 588 q 504 429 599 453 l 751 0 l 642 0 m 214 504 l 413 504 q 553 553 504 504 q 603 682 603 601 q 553 812 603 763 q 413 861 504 861 l 214 861 l 214 504 m 257 1007 l 229 1054 l 529 1208 l 576 1128 l 257 1007 z "},"Ř":{"ha":806,"x_min":110,"x_max":751,"o":"m 642 0 l 401 418 l 214 418 l 214 0 l 110 0 l 110 947 l 426 947 q 578 914 513 947 q 678 820 643 881 q 713 682 713 760 q 656 520 713 588 q 504 429 599 453 l 751 0 l 642 0 m 214 504 l 413 504 q 553 553 504 504 q 603 682 603 601 q 553 812 603 763 q 413 861 504 861 l 214 861 l 214 504 m 213 1211 l 401 1118 l 592 1211 l 618 1164 l 401 1019 l 186 1164 l 213 1211 z "},"Ŗ":{"ha":806,"x_min":110,"x_max":751,"o":"m 642 0 l 401 418 l 214 418 l 214 0 l 110 0 l 110 947 l 426 947 q 578 914 513 947 q 678 820 643 881 q 713 682 713 760 q 656 520 713 588 q 504 429 599 453 l 751 0 l 642 0 m 214 504 l 413 504 q 553 553 504 504 q 603 682 603 601 q 553 812 603 763 q 413 861 504 861 l 214 861 l 214 504 m 326 -344 q 404 -206 404 -293 q 348 -184 371 -206 q 325 -129 325 -162 q 346 -74 325 -94 q 400 -54 367 -54 q 457 -80 435 -54 q 479 -144 479 -106 q 440 -276 479 -212 q 340 -371 401 -339 l 326 -344 z "},"Ȑ":{"ha":806,"x_min":40,"x_max":751,"o":"m 642 0 l 401 418 l 214 418 l 214 0 l 110 0 l 110 947 l 426 947 q 578 914 513 947 q 678 820 643 881 q 713 682 713 760 q 656 520 713 588 q 504 429 599 453 l 751 0 l 642 0 m 214 504 l 413 504 q 553 553 504 504 q 603 682 603 601 q 553 812 603 763 q 413 861 504 861 l 214 861 l 214 504 m 588 1056 l 293 1238 l 360 1304 l 626 1093 l 588 1056 m 349 1056 l 40 1210 l 107 1276 l 388 1093 l 349 1056 z "},"Ṛ":{"ha":806,"x_min":110,"x_max":751,"o":"m 642 0 l 401 418 l 214 418 l 214 0 l 110 0 l 110 947 l 426 947 q 578 914 513 947 q 678 820 643 881 q 713 682 713 760 q 656 520 713 588 q 504 429 599 453 l 751 0 l 642 0 m 214 504 l 413 504 q 553 553 504 504 q 603 682 603 601 q 553 812 603 763 q 413 861 504 861 l 214 861 l 214 504 m 403 -254 q 349 -232 371 -254 q 328 -178 328 -210 q 349 -126 328 -147 q 403 -104 371 -104 q 456 -126 433 -104 q 478 -179 478 -147 q 456 -232 478 -210 q 403 -254 433 -254 z "},"Ȓ":{"ha":806,"x_min":110,"x_max":751,"o":"m 642 0 l 401 418 l 214 418 l 214 0 l 110 0 l 110 947 l 426 947 q 578 914 513 947 q 678 820 643 881 q 713 682 713 760 q 656 520 713 588 q 504 429 599 453 l 751 0 l 642 0 m 214 504 l 413 504 q 553 553 504 504 q 603 682 603 601 q 553 812 603 763 q 413 861 504 861 l 214 861 l 214 504 m 403 1267 q 539 1219 488 1267 q 592 1075 590 1171 l 535 1075 q 495 1156 529 1129 q 403 1182 461 1182 q 310 1156 344 1182 q 271 1075 276 1129 l 214 1075 q 267 1219 215 1171 q 403 1267 318 1267 z "},"Ṟ":{"ha":806,"x_min":110,"x_max":751,"o":"m 642 0 l 401 418 l 214 418 l 214 0 l 110 0 l 110 947 l 426 947 q 578 914 513 947 q 678 820 643 881 q 713 682 713 760 q 656 520 713 588 q 504 429 599 453 l 751 0 l 642 0 m 214 504 l 413 504 q 553 553 504 504 q 603 682 603 601 q 553 812 603 763 q 413 861 504 861 l 214 861 l 214 504 m 217 -158 l 217 -96 l 588 -96 l 588 -158 l 217 -158 z "},"Ɍ":{"ha":917,"x_min":69,"x_max":863,"o":"m 753 0 l 513 418 l 325 418 l 325 0 l 221 0 l 221 418 l 69 418 l 69 504 l 221 504 l 221 947 l 538 947 q 689 914 624 947 q 789 820 754 881 q 824 682 824 760 q 767 520 824 588 q 615 429 710 453 l 863 0 l 753 0 m 524 504 q 665 553 615 504 q 714 682 714 601 q 665 812 714 763 q 524 861 615 861 l 325 861 l 325 504 l 524 504 z "},"Ɽ":{"ha":806,"x_min":110,"x_max":751,"o":"m 214 -72 q 243 -156 214 -129 q 332 -183 272 -183 l 369 -183 l 369 -278 l 332 -278 q 169 -229 229 -278 q 110 -72 110 -181 l 110 947 l 426 947 q 578 914 513 947 q 678 820 643 881 q 713 682 713 760 q 656 520 713 588 q 504 429 599 453 l 751 0 l 642 0 l 401 418 l 214 418 l 214 -72 m 214 504 l 413 504 q 553 553 504 504 q 603 682 603 601 q 553 812 603 763 q 413 861 504 861 l 214 861 l 214 504 z "},"S":{"ha":810,"x_min":60,"x_max":751,"o":"m 426 -22 q 224 30 322 -22 q 60 171 125 82 l 144 246 q 272 120 194 167 q 440 74 350 74 q 590 117 539 74 q 642 236 642 161 q 587 362 642 318 q 413 439 532 406 q 113 711 113 513 q 193 901 113 835 q 417 968 274 968 q 603 929 521 968 q 751 810 686 890 l 669 740 q 560 841 619 808 q 417 874 500 874 q 274 833 329 874 q 218 721 218 792 q 269 606 218 649 q 443 535 321 564 q 667 428 588 496 q 747 236 747 360 q 708 101 747 160 q 597 10 669 43 q 426 -22 524 -22 z "},"Ś":{"ha":810,"x_min":60,"x_max":751,"o":"m 426 -22 q 224 30 322 -22 q 60 171 125 82 l 144 246 q 272 120 194 167 q 440 74 350 74 q 590 117 539 74 q 642 236 642 161 q 587 362 642 318 q 413 439 532 406 q 113 711 113 513 q 193 901 113 835 q 417 968 274 968 q 603 929 521 968 q 751 810 686 890 l 669 740 q 560 841 619 808 q 417 874 500 874 q 274 833 329 874 q 218 721 218 792 q 269 606 218 649 q 443 535 321 564 q 667 428 588 496 q 747 236 747 360 q 708 101 747 160 q 597 10 669 43 q 426 -22 524 -22 m 260 1007 l 232 1054 l 532 1208 l 579 1128 l 260 1007 z "},"Ꞌ":{"ha":322,"x_min":114,"x_max":208,"o":"m 114 231 l 114 947 l 208 947 l 208 231 l 114 231 z "},"Š":{"ha":810,"x_min":60,"x_max":751,"o":"m 426 -22 q 224 30 322 -22 q 60 171 125 82 l 144 246 q 272 120 194 167 q 440 74 350 74 q 590 117 539 74 q 642 236 642 161 q 587 362 642 318 q 413 439 532 406 q 113 711 113 513 q 193 901 113 835 q 417 968 274 968 q 603 929 521 968 q 751 810 686 890 l 669 740 q 560 841 619 808 q 417 874 500 874 q 274 833 329 874 q 218 721 218 792 q 269 606 218 649 q 443 535 321 564 q 667 428 588 496 q 747 236 747 360 q 708 101 747 160 q 597 10 669 43 q 426 -22 524 -22 m 215 1211 l 404 1118 l 594 1211 l 621 1164 l 404 1019 l 189 1164 l 215 1211 z "},"Ş":{"ha":810,"x_min":60,"x_max":751,"o":"m 443 535 q 667 428 588 496 q 747 236 747 360 q 663 50 747 121 q 433 -22 578 -21 l 399 -94 q 508 -118 469 -94 q 547 -174 547 -142 q 263 -278 547 -278 l 263 -240 q 394 -224 332 -240 q 457 -182 457 -210 q 446 -159 457 -167 q 403 -147 435 -151 q 307 -143 371 -143 l 365 -18 q 195 45 275 -4 q 60 171 115 94 l 144 246 q 272 120 194 167 q 440 74 350 74 q 590 117 539 74 q 642 236 642 161 q 587 362 642 318 q 413 439 532 406 q 113 711 113 513 q 193 901 113 835 q 417 968 274 968 q 603 929 521 968 q 751 810 686 890 l 669 740 q 560 841 619 808 q 417 874 500 874 q 274 833 329 874 q 218 721 218 792 q 269 606 218 649 q 443 535 321 564 z "},"Ŝ":{"ha":810,"x_min":60,"x_max":751,"o":"m 426 -22 q 224 30 322 -22 q 60 171 125 82 l 144 246 q 272 120 194 167 q 440 74 350 74 q 590 117 539 74 q 642 236 642 161 q 587 362 642 318 q 413 439 532 406 q 113 711 113 513 q 193 901 113 835 q 417 968 274 968 q 603 929 521 968 q 751 810 686 890 l 669 740 q 560 841 619 808 q 417 874 500 874 q 274 833 329 874 q 218 721 218 792 q 269 606 218 649 q 443 535 321 564 q 667 428 588 496 q 747 236 747 360 q 708 101 747 160 q 597 10 669 43 q 426 -22 524 -22 m 215 1024 l 189 1071 l 404 1215 l 621 1071 l 594 1024 l 404 1117 l 215 1024 z "},"Ș":{"ha":810,"x_min":60,"x_max":751,"o":"m 426 -22 q 224 30 322 -22 q 60 171 125 82 l 144 246 q 272 120 194 167 q 440 74 350 74 q 590 117 539 74 q 642 236 642 161 q 587 362 642 318 q 413 439 532 406 q 113 711 113 513 q 193 901 113 835 q 417 968 274 968 q 603 929 521 968 q 751 810 686 890 l 669 740 q 560 841 619 808 q 417 874 500 874 q 274 833 329 874 q 218 721 218 792 q 269 606 218 649 q 443 535 321 564 q 667 428 588 496 q 747 236 747 360 q 708 101 747 160 q 597 10 669 43 q 426 -22 524 -22 m 329 -344 q 407 -206 407 -293 q 351 -184 374 -206 q 328 -129 328 -162 q 349 -74 328 -94 q 403 -54 369 -54 q 460 -80 438 -54 q 482 -144 482 -106 q 443 -276 482 -212 q 343 -371 404 -339 l 329 -344 z "},"Ṡ":{"ha":810,"x_min":60,"x_max":751,"o":"m 426 -22 q 224 30 322 -22 q 60 171 125 82 l 144 246 q 272 120 194 167 q 440 74 350 74 q 590 117 539 74 q 642 236 642 161 q 587 362 642 318 q 413 439 532 406 q 113 711 113 513 q 193 901 113 835 q 417 968 274 968 q 603 929 521 968 q 751 810 686 890 l 669 740 q 560 841 619 808 q 417 874 500 874 q 274 833 329 874 q 218 721 218 792 q 269 606 218 649 q 443 535 321 564 q 667 428 588 496 q 747 236 747 360 q 708 101 747 160 q 597 10 669 43 q 426 -22 524 -22 m 406 1040 q 352 1063 374 1040 q 331 1117 331 1085 q 352 1169 331 1147 q 406 1190 374 1190 q 458 1169 436 1190 q 481 1115 481 1147 q 458 1063 481 1085 q 406 1040 436 1040 z "},"Ṣ":{"ha":810,"x_min":60,"x_max":751,"o":"m 426 -22 q 224 30 322 -22 q 60 171 125 82 l 144 246 q 272 120 194 167 q 440 74 350 74 q 590 117 539 74 q 642 236 642 161 q 587 362 642 318 q 413 439 532 406 q 113 711 113 513 q 193 901 113 835 q 417 968 274 968 q 603 929 521 968 q 751 810 686 890 l 669 740 q 560 841 619 808 q 417 874 500 874 q 274 833 329 874 q 218 721 218 792 q 269 606 218 649 q 443 535 321 564 q 667 428 588 496 q 747 236 747 360 q 708 101 747 160 q 597 10 669 43 q 426 -22 524 -22 m 406 -254 q 352 -232 374 -254 q 331 -178 331 -210 q 352 -126 331 -147 q 406 -104 374 -104 q 458 -126 436 -104 q 481 -179 481 -147 q 458 -232 481 -210 q 406 -254 436 -254 z "},"ẞ":{"ha":811,"x_min":111,"x_max":749,"o":"m 490 582 q 683 488 618 561 q 749 292 749 414 q 711 135 749 203 q 605 31 674 68 q 444 -7 536 -7 q 321 10 388 -7 l 340 101 q 443 85 397 85 q 588 141 536 85 q 639 292 639 197 q 581 463 639 404 q 393 521 524 521 l 393 589 l 553 760 q 508 841 553 807 q 386 875 463 875 q 257 824 299 875 q 215 671 215 774 l 215 0 l 111 0 l 111 671 q 185 890 111 811 q 386 969 260 969 q 528 941 465 969 q 626 865 592 913 q 661 760 661 817 l 490 582 z "},"Ə":{"ha":964,"x_min":76,"x_max":888,"o":"m 472 968 q 687 906 592 968 q 835 733 782 843 q 888 482 888 622 q 835 222 888 336 q 690 42 783 107 q 479 -22 597 -22 q 271 40 361 -22 q 132 210 181 101 q 83 456 83 319 q 85 510 83 492 l 779 510 q 738 689 774 606 q 635 823 701 772 q 476 874 568 874 q 285 825 360 874 q 163 689 210 776 l 76 736 q 236 906 136 844 q 472 968 336 968 m 479 74 q 629 122 565 74 q 730 249 693 169 q 776 424 767 329 l 185 424 q 275 162 199 250 q 479 74 351 74 z "},"T":{"ha":742,"x_min":21,"x_max":721,"o":"m 319 0 l 319 861 l 21 861 l 21 947 l 721 947 l 721 861 l 422 861 l 422 0 l 319 0 z "},"Ŧ":{"ha":742,"x_min":21,"x_max":721,"o":"m 721 861 l 422 861 l 422 563 l 581 563 l 581 496 l 422 496 l 422 0 l 319 0 l 319 496 l 161 496 l 161 563 l 319 563 l 319 861 l 21 861 l 21 947 l 721 947 l 721 861 z "},"Ť":{"ha":742,"x_min":21,"x_max":721,"o":"m 319 0 l 319 861 l 21 861 l 21 947 l 721 947 l 721 861 l 422 861 l 422 0 l 319 0 m 181 1211 l 369 1118 l 560 1211 l 586 1164 l 369 1019 l 154 1164 l 181 1211 z "},"Ţ":{"ha":742,"x_min":21,"x_max":721,"o":"m 319 0 l 319 861 l 21 861 l 21 947 l 721 947 l 721 861 l 422 861 l 422 0 l 319 0 m 228 -240 q 360 -224 297 -240 q 422 -182 422 -210 q 411 -159 422 -167 q 368 -147 400 -151 q 272 -143 336 -143 l 339 0 l 410 0 l 364 -94 q 474 -118 435 -94 q 513 -174 513 -142 q 228 -278 513 -278 l 228 -240 z "},"Ṱ":{"ha":742,"x_min":21,"x_max":721,"o":"m 319 0 l 319 861 l 21 861 l 21 947 l 721 947 l 721 861 l 422 861 l 422 0 l 319 0 m 208 -299 l 182 -251 l 369 -79 l 558 -251 l 532 -299 l 369 -192 l 208 -299 z "},"Ț":{"ha":742,"x_min":21,"x_max":721,"o":"m 319 0 l 319 861 l 21 861 l 21 947 l 721 947 l 721 861 l 422 861 l 422 0 l 319 0 m 294 -344 q 372 -206 372 -293 q 316 -184 339 -206 q 293 -129 293 -162 q 314 -74 293 -94 q 368 -54 335 -54 q 425 -80 403 -54 q 447 -144 447 -106 q 408 -276 447 -212 q 308 -371 369 -339 l 294 -344 z "},"Ṫ":{"ha":742,"x_min":21,"x_max":721,"o":"m 319 0 l 319 861 l 21 861 l 21 947 l 721 947 l 721 861 l 422 861 l 422 0 l 319 0 m 371 1040 q 317 1063 339 1040 q 296 1117 296 1085 q 317 1169 296 1147 q 371 1190 339 1190 q 424 1169 401 1190 q 446 1115 446 1147 q 424 1063 446 1085 q 371 1040 401 1040 z "},"Ṭ":{"ha":742,"x_min":21,"x_max":721,"o":"m 319 0 l 319 861 l 21 861 l 21 947 l 721 947 l 721 861 l 422 861 l 422 0 l 319 0 m 371 -254 q 317 -232 339 -254 q 296 -178 296 -210 q 317 -126 296 -147 q 371 -104 339 -104 q 424 -126 401 -104 q 446 -179 446 -147 q 424 -232 446 -210 q 371 -254 401 -254 z "},"Ƭ":{"ha":785,"x_min":22,"x_max":757,"o":"m 383 861 l 214 861 q 114 788 114 861 q 214 719 114 719 l 214 633 q 76 674 129 633 q 22 788 22 714 q 78 905 22 863 q 214 947 133 947 l 757 947 l 757 861 l 486 861 l 486 0 l 383 0 l 383 861 z "},"Ṯ":{"ha":742,"x_min":21,"x_max":721,"o":"m 319 0 l 319 861 l 21 861 l 21 947 l 721 947 l 721 861 l 422 861 l 422 0 l 319 0 m 185 -158 l 185 -96 l 556 -96 l 556 -158 l 185 -158 z "},"Ʈ":{"ha":703,"x_min":21,"x_max":721,"o":"m 422 -72 q 451 -156 422 -129 q 540 -183 481 -183 l 578 -183 l 578 -278 l 540 -278 q 378 -229 438 -278 q 319 -72 319 -181 l 319 861 l 21 861 l 21 947 l 721 947 l 721 861 l 422 861 l 422 -72 z "},"U":{"ha":917,"x_min":111,"x_max":806,"o":"m 461 -22 q 199 73 286 -22 q 111 351 111 168 l 111 947 l 215 947 l 215 351 q 461 72 215 72 q 637 144 572 72 q 701 351 701 217 l 701 947 l 806 947 l 806 351 q 715 74 806 171 q 461 -22 624 -22 z "},"Ú":{"ha":917,"x_min":111,"x_max":806,"o":"m 461 -22 q 199 73 286 -22 q 111 351 111 168 l 111 947 l 215 947 l 215 351 q 461 72 215 72 q 637 144 572 72 q 701 351 701 217 l 701 947 l 806 947 l 806 351 q 715 74 806 171 q 461 -22 624 -22 m 313 1007 l 285 1054 l 585 1208 l 632 1128 l 313 1007 z "},"Ʉ":{"ha":933,"x_min":56,"x_max":878,"o":"m 878 583 l 810 583 l 810 351 q 719 74 810 171 q 465 -22 628 -22 q 203 73 290 -22 q 115 351 115 168 l 115 583 l 56 583 l 56 650 l 115 650 l 115 947 l 219 947 l 219 650 l 706 650 l 706 947 l 810 947 l 810 650 l 878 650 l 878 583 m 706 583 l 219 583 l 219 351 q 465 72 219 72 q 641 144 576 72 q 706 351 706 217 l 706 583 z "},"Ŭ":{"ha":917,"x_min":111,"x_max":806,"o":"m 461 -22 q 199 73 286 -22 q 111 351 111 168 l 111 947 l 215 947 l 215 351 q 461 72 215 72 q 637 144 572 72 q 701 351 701 217 l 701 947 l 806 947 l 806 351 q 715 74 806 171 q 461 -22 624 -22 m 458 1028 q 313 1069 368 1028 q 256 1192 257 1110 l 313 1192 q 458 1113 326 1113 q 604 1192 590 1113 l 661 1192 q 604 1069 660 1110 q 458 1028 549 1028 z "},"Ǔ":{"ha":917,"x_min":111,"x_max":806,"o":"m 461 -22 q 199 73 286 -22 q 111 351 111 168 l 111 947 l 215 947 l 215 351 q 461 72 215 72 q 637 144 572 72 q 701 351 701 217 l 701 947 l 806 947 l 806 351 q 715 74 806 171 q 461 -22 624 -22 m 268 1211 l 457 1118 l 647 1211 l 674 1164 l 457 1019 l 242 1164 l 268 1211 z "},"Û":{"ha":917,"x_min":111,"x_max":806,"o":"m 461 -22 q 199 73 286 -22 q 111 351 111 168 l 111 947 l 215 947 l 215 351 q 461 72 215 72 q 637 144 572 72 q 701 351 701 217 l 701 947 l 806 947 l 806 351 q 715 74 806 171 q 461 -22 624 -22 m 268 1024 l 242 1071 l 457 1215 l 674 1071 l 647 1024 l 457 1117 l 268 1024 z "},"Ȕ":{"ha":917,"x_min":96,"x_max":806,"o":"m 461 -22 q 199 73 286 -22 q 111 351 111 168 l 111 947 l 215 947 l 215 351 q 461 72 215 72 q 637 144 572 72 q 701 351 701 217 l 701 947 l 806 947 l 806 351 q 715 74 806 171 q 461 -22 624 -22 m 643 1056 l 349 1238 l 415 1304 l 682 1093 l 643 1056 m 404 1056 l 96 1210 l 163 1276 l 443 1093 l 404 1056 z "},"Ü":{"ha":917,"x_min":111,"x_max":806,"o":"m 461 -22 q 199 73 286 -22 q 111 351 111 168 l 111 947 l 215 947 l 215 351 q 461 72 215 72 q 637 144 572 72 q 701 351 701 217 l 701 947 l 806 947 l 806 351 q 715 74 806 171 q 461 -22 624 -22 m 322 1054 q 269 1076 290 1054 q 247 1131 247 1099 q 269 1183 247 1161 q 322 1204 290 1204 q 376 1183 353 1204 q 399 1129 399 1161 q 376 1076 399 1099 q 322 1054 353 1054 m 594 1054 q 540 1076 563 1054 q 518 1131 518 1099 q 540 1183 518 1161 q 594 1204 563 1204 q 647 1183 625 1204 q 669 1129 669 1161 q 647 1076 669 1099 q 594 1054 625 1054 z "},"Ụ":{"ha":917,"x_min":111,"x_max":806,"o":"m 461 -22 q 199 73 286 -22 q 111 351 111 168 l 111 947 l 215 947 l 215 351 q 461 72 215 72 q 637 144 572 72 q 701 351 701 217 l 701 947 l 806 947 l 806 351 q 715 74 806 171 q 461 -22 624 -22 m 458 -254 q 405 -232 426 -254 q 383 -178 383 -210 q 405 -126 383 -147 q 458 -104 426 -104 q 511 -126 489 -104 q 533 -179 533 -147 q 511 -232 533 -210 q 458 -254 489 -254 z "},"Ù":{"ha":917,"x_min":111,"x_max":806,"o":"m 461 -22 q 199 73 286 -22 q 111 351 111 168 l 111 947 l 215 947 l 215 351 q 461 72 215 72 q 637 144 572 72 q 701 351 701 217 l 701 947 l 806 947 l 806 351 q 715 74 806 171 q 461 -22 624 -22 m 604 1007 l 285 1128 l 332 1208 l 632 1054 l 604 1007 z "},"Ű":{"ha":917,"x_min":111,"x_max":872,"o":"m 461 -22 q 199 73 286 -22 q 111 351 111 168 l 111 947 l 215 947 l 215 351 q 461 72 215 72 q 637 144 572 72 q 701 351 701 217 l 701 947 l 806 947 l 806 351 q 715 74 806 171 q 461 -22 624 -22 m 325 1056 l 286 1093 l 553 1304 l 619 1238 l 325 1056 m 564 1056 l 525 1093 l 806 1276 l 872 1210 l 564 1056 z "},"Ȗ":{"ha":917,"x_min":111,"x_max":806,"o":"m 461 -22 q 199 73 286 -22 q 111 351 111 168 l 111 947 l 215 947 l 215 351 q 461 72 215 72 q 637 144 572 72 q 701 351 701 217 l 701 947 l 806 947 l 806 351 q 715 74 806 171 q 461 -22 624 -22 m 458 1267 q 594 1219 543 1267 q 647 1075 646 1171 l 590 1075 q 551 1156 585 1129 q 458 1182 517 1182 q 366 1156 400 1182 q 326 1075 332 1129 l 269 1075 q 322 1219 271 1171 q 458 1267 374 1267 z "},"Ū":{"ha":917,"x_min":111,"x_max":806,"o":"m 461 -22 q 199 73 286 -22 q 111 351 111 168 l 111 947 l 215 947 l 215 351 q 461 72 215 72 q 637 144 572 72 q 701 351 701 217 l 701 947 l 806 947 l 806 351 q 715 74 806 171 q 461 -22 624 -22 m 272 1064 l 272 1126 l 643 1126 l 643 1064 l 272 1064 z "},"Ų":{"ha":917,"x_min":111,"x_max":806,"o":"m 806 947 l 806 351 q 756 132 806 219 q 615 6 707 44 q 533 -56 567 -17 q 500 -146 500 -96 q 511 -200 500 -169 q 540 -238 521 -225 q 585 -251 558 -251 q 646 -235 613 -251 l 663 -265 q 533 -304 592 -304 q 456 -281 489 -304 q 410 -217 424 -258 q 403 -171 403 -197 q 428 -89 403 -128 q 497 -21 453 -50 q 461 -22 485 -22 q 199 73 286 -22 q 111 351 111 168 l 111 947 l 215 947 l 215 351 q 461 72 215 72 q 637 144 572 72 q 701 351 701 217 l 701 947 l 806 947 z "},"Ʊ":{"ha":953,"x_min":69,"x_max":883,"o":"m 764 832 q 853 630 824 715 q 883 431 883 544 q 835 194 883 297 q 696 35 788 92 q 476 -22 604 -22 q 257 35 349 -22 q 117 194 165 92 q 69 431 69 297 q 99 630 69 544 q 189 832 129 715 l 208 871 l 97 871 l 97 947 l 317 947 l 317 869 q 207 646 239 740 q 175 431 175 551 q 251 165 175 256 q 476 74 326 74 q 702 165 626 74 q 778 431 778 256 q 746 646 778 551 q 636 869 714 740 l 636 947 l 856 947 l 856 871 l 744 871 l 764 832 z "},"Ů":{"ha":917,"x_min":111,"x_max":806,"o":"m 461 -22 q 199 73 286 -22 q 111 351 111 168 l 111 947 l 215 947 l 215 351 q 461 72 215 72 q 637 144 572 72 q 701 351 701 217 l 701 947 l 806 947 l 806 351 q 715 74 806 171 q 461 -22 624 -22 m 457 1028 q 360 1068 400 1028 q 319 1165 319 1108 q 360 1263 319 1222 q 457 1304 400 1304 q 555 1263 514 1304 q 596 1165 596 1222 q 555 1068 596 1108 q 457 1028 514 1028 m 458 1096 q 506 1117 486 1096 q 526 1165 526 1138 q 506 1215 526 1194 q 458 1235 486 1235 q 409 1215 429 1235 q 389 1167 389 1194 q 409 1117 389 1138 q 458 1096 429 1096 z "},"Ũ":{"ha":917,"x_min":111,"x_max":806,"o":"m 461 -22 q 199 73 286 -22 q 111 351 111 168 l 111 947 l 215 947 l 215 351 q 461 72 215 72 q 637 144 572 72 q 701 351 701 217 l 701 947 l 806 947 l 806 351 q 715 74 806 171 q 461 -22 624 -22 m 563 1029 q 509 1038 532 1029 q 460 1061 486 1046 q 437 1072 456 1064 q 400 1085 418 1081 q 363 1090 382 1090 q 308 1079 326 1090 q 282 1043 289 1068 l 219 1043 q 260 1136 226 1097 q 356 1175 294 1175 q 409 1167 385 1175 q 468 1140 433 1158 q 518 1119 496 1126 q 563 1111 540 1111 q 610 1126 592 1111 q 632 1161 629 1140 l 696 1161 q 658 1067 689 1104 q 563 1029 626 1029 z "},"Ṵ":{"ha":917,"x_min":111,"x_max":806,"o":"m 461 -22 q 199 73 286 -22 q 111 351 111 168 l 111 947 l 215 947 l 215 351 q 461 72 215 72 q 637 144 572 72 q 701 351 701 217 l 701 947 l 806 947 l 806 351 q 715 74 806 171 q 461 -22 624 -22 m 219 -294 q 267 -170 226 -226 q 369 -114 308 -114 q 421 -126 399 -114 q 475 -162 443 -137 q 522 -195 503 -185 q 563 -206 540 -206 q 610 -179 592 -206 q 632 -114 629 -153 l 696 -114 q 651 -240 689 -186 q 549 -294 613 -294 q 499 -283 518 -294 q 453 -249 479 -272 q 409 -216 428 -226 q 363 -206 390 -206 q 308 -227 326 -206 q 282 -294 289 -249 l 219 -294 z "},"V":{"ha":771,"x_min":0,"x_max":771,"o":"m 669 947 l 771 947 l 440 0 l 329 0 l 0 947 l 104 947 l 385 115 l 669 947 z "},"Ʋ":{"ha":890,"x_min":100,"x_max":856,"o":"m 458 -22 q 195 90 290 -22 q 100 403 100 203 l 100 947 l 210 947 l 210 403 q 275 160 210 247 q 458 74 340 74 q 669 179 593 74 q 746 472 746 285 q 689 722 746 597 q 524 947 632 847 l 646 947 q 801 725 747 846 q 856 472 856 604 q 751 108 856 239 q 458 -22 646 -22 z "},"Ʌ":{"ha":785,"x_min":17,"x_max":768,"o":"m 768 0 l 671 0 l 386 808 l 121 0 l 17 0 l 339 947 l 436 947 l 768 0 z "},"W":{"ha":1182,"x_min":31,"x_max":1151,"o":"m 1053 947 l 1151 947 l 899 0 l 790 0 l 593 761 l 390 0 l 283 0 l 31 947 l 138 947 l 340 150 l 551 947 l 636 947 l 849 143 l 1053 947 z "},"Ẃ":{"ha":1182,"x_min":31,"x_max":1151,"o":"m 1053 947 l 1151 947 l 899 0 l 790 0 l 593 761 l 390 0 l 283 0 l 31 947 l 138 947 l 340 150 l 551 947 l 636 947 l 849 143 l 1053 947 m 446 1007 l 418 1054 l 718 1208 l 765 1128 l 446 1007 z "},"Ŵ":{"ha":1182,"x_min":31,"x_max":1151,"o":"m 1053 947 l 1151 947 l 899 0 l 790 0 l 593 761 l 390 0 l 283 0 l 31 947 l 138 947 l 340 150 l 551 947 l 636 947 l 849 143 l 1053 947 m 401 1024 l 375 1071 l 590 1215 l 807 1071 l 781 1024 l 590 1117 l 401 1024 z "},"Ẅ":{"ha":1182,"x_min":31,"x_max":1151,"o":"m 1053 947 l 1151 947 l 899 0 l 790 0 l 593 761 l 390 0 l 283 0 l 31 947 l 138 947 l 340 150 l 551 947 l 636 947 l 849 143 l 1053 947 m 456 1054 q 402 1076 424 1054 q 381 1131 381 1099 q 402 1183 381 1161 q 456 1204 424 1204 q 509 1183 486 1204 q 532 1129 532 1161 q 509 1076 532 1099 q 456 1054 486 1054 m 728 1054 q 674 1076 696 1054 q 651 1131 651 1099 q 674 1183 651 1161 q 728 1204 696 1204 q 781 1183 758 1204 q 803 1129 803 1161 q 781 1076 803 1099 q 728 1054 758 1054 z "},"Ẁ":{"ha":1182,"x_min":31,"x_max":1151,"o":"m 1053 947 l 1151 947 l 899 0 l 790 0 l 593 761 l 390 0 l 283 0 l 31 947 l 138 947 l 340 150 l 551 947 l 636 947 l 849 143 l 1053 947 m 738 1007 l 418 1128 l 465 1208 l 765 1054 l 738 1007 z "},"Ⱳ":{"ha":1381,"x_min":31,"x_max":1381,"o":"m 1224 968 q 1338 922 1294 968 q 1381 804 1381 876 q 1354 706 1381 754 l 1278 736 q 1293 797 1293 769 q 1273 855 1293 832 q 1218 878 1253 878 q 1142 841 1168 878 q 1096 729 1115 804 l 899 0 l 790 0 l 593 761 l 390 0 l 283 0 l 31 947 l 138 947 l 340 150 l 551 947 l 636 947 l 849 143 l 1013 786 q 1085 924 1036 879 q 1224 968 1135 968 z "},"X":{"ha":717,"x_min":7,"x_max":710,"o":"m 710 0 l 593 0 l 354 394 l 131 0 l 14 0 l 288 468 l 7 947 l 119 947 l 356 543 l 597 947 l 706 947 l 421 478 l 710 0 z "},"Y":{"ha":672,"x_min":-21,"x_max":693,"o":"m 597 947 l 693 947 l 386 388 l 386 0 l 283 0 l 283 392 l -21 947 l 83 947 l 342 475 l 597 947 z "},"Ý":{"ha":672,"x_min":-21,"x_max":693,"o":"m 597 947 l 693 947 l 386 388 l 386 0 l 283 0 l 283 392 l -21 947 l 83 947 l 342 475 l 597 947 m 190 1007 l 163 1054 l 463 1208 l 510 1128 l 190 1007 z "},"Ŷ":{"ha":672,"x_min":-21,"x_max":693,"o":"m 597 947 l 693 947 l 386 388 l 386 0 l 283 0 l 283 392 l -21 947 l 83 947 l 342 475 l 597 947 m 146 1024 l 119 1071 l 335 1215 l 551 1071 l 525 1024 l 335 1117 l 146 1024 z "},"Ÿ":{"ha":672,"x_min":-21,"x_max":693,"o":"m 597 947 l 693 947 l 386 388 l 386 0 l 283 0 l 283 392 l -21 947 l 83 947 l 342 475 l 597 947 m 200 1054 q 147 1076 168 1054 q 125 1131 125 1099 q 147 1183 125 1161 q 200 1204 168 1204 q 253 1183 231 1204 q 276 1129 276 1161 q 253 1076 276 1099 q 200 1054 231 1054 m 472 1054 q 418 1076 440 1054 q 396 1131 396 1099 q 418 1183 396 1161 q 472 1204 440 1204 q 525 1183 503 1204 q 547 1129 547 1161 q 525 1076 547 1099 q 472 1054 503 1054 z "},"Ỳ":{"ha":672,"x_min":-21,"x_max":693,"o":"m 597 947 l 693 947 l 386 388 l 386 0 l 283 0 l 283 392 l -21 947 l 83 947 l 342 475 l 597 947 m 482 1007 l 163 1128 l 210 1208 l 510 1054 l 482 1007 z "},"Ƴ":{"ha":889,"x_min":-21,"x_max":889,"o":"m 747 968 q 851 929 813 968 q 889 831 889 890 q 839 688 889 761 l 769 736 q 797 821 797 779 q 779 867 797 849 q 735 886 761 886 q 653 849 686 886 q 574 729 619 813 l 386 388 l 386 0 l 283 0 l 283 392 l -21 947 l 83 947 l 342 475 l 510 786 q 576 890 546 851 q 648 948 607 928 q 747 968 689 968 z "},"Ȳ":{"ha":672,"x_min":-21,"x_max":693,"o":"m 597 947 l 693 947 l 386 388 l 386 0 l 283 0 l 283 392 l -21 947 l 83 947 l 342 475 l 597 947 m 150 1064 l 150 1126 l 521 1126 l 521 1064 l 150 1064 z "},"Ỹ":{"ha":672,"x_min":-21,"x_max":693,"o":"m 597 947 l 693 947 l 386 388 l 386 0 l 283 0 l 283 392 l -21 947 l 83 947 l 342 475 l 597 947 m 440 1029 q 387 1038 410 1029 q 338 1061 364 1046 q 315 1072 333 1064 q 278 1085 296 1081 q 240 1090 260 1090 q 185 1079 204 1090 q 160 1043 167 1068 l 97 1043 q 138 1136 104 1097 q 233 1175 172 1175 q 287 1167 263 1175 q 346 1140 311 1158 q 396 1119 374 1126 q 440 1111 418 1111 q 488 1126 469 1111 q 510 1161 507 1140 l 574 1161 q 535 1067 567 1104 q 440 1029 504 1029 z "},"Z":{"ha":699,"x_min":53,"x_max":658,"o":"m 53 0 l 53 88 l 556 861 l 67 861 l 67 947 l 658 947 l 658 843 l 164 86 l 644 86 l 644 0 l 53 0 z "},"Ź":{"ha":699,"x_min":53,"x_max":658,"o":"m 53 0 l 53 88 l 556 861 l 67 861 l 67 947 l 658 947 l 658 843 l 164 86 l 644 86 l 644 0 l 53 0 m 204 1007 l 176 1054 l 476 1208 l 524 1128 l 204 1007 z "},"Ž":{"ha":699,"x_min":53,"x_max":658,"o":"m 53 0 l 53 88 l 556 861 l 67 861 l 67 947 l 658 947 l 658 843 l 164 86 l 644 86 l 644 0 l 53 0 m 160 1211 l 349 1118 l 539 1211 l 565 1164 l 349 1019 l 133 1164 l 160 1211 z "},"Ż":{"ha":699,"x_min":53,"x_max":658,"o":"m 53 0 l 53 88 l 556 861 l 67 861 l 67 947 l 658 947 l 658 843 l 164 86 l 644 86 l 644 0 l 53 0 m 350 1040 q 297 1063 318 1040 q 275 1117 275 1085 q 297 1169 275 1147 q 350 1190 318 1190 q 403 1169 381 1190 q 425 1115 425 1147 q 403 1063 425 1085 q 350 1040 381 1040 z "},"Ẓ":{"ha":699,"x_min":53,"x_max":658,"o":"m 53 0 l 53 88 l 556 861 l 67 861 l 67 947 l 658 947 l 658 843 l 164 86 l 644 86 l 644 0 l 53 0 m 350 -254 q 297 -232 318 -254 q 275 -178 275 -210 q 297 -126 275 -147 q 350 -104 318 -104 q 403 -126 381 -104 q 425 -179 425 -147 q 403 -232 425 -210 q 350 -254 381 -254 z "},"Ẕ":{"ha":699,"x_min":53,"x_max":658,"o":"m 53 0 l 53 88 l 556 861 l 67 861 l 67 947 l 658 947 l 658 843 l 164 86 l 644 86 l 644 0 l 53 0 m 164 -158 l 164 -96 l 535 -96 l 535 -158 l 164 -158 z "},"ɪ":{"ha":315,"x_min":29,"x_max":286,"o":"m 29 0 l 29 81 l 106 81 l 106 569 l 29 569 l 29 650 l 286 650 l 286 569 l 210 569 l 210 81 l 286 81 l 286 0 l 29 0 z "},"a":{"ha":779,"x_min":47,"x_max":692,"o":"m 692 650 l 692 0 l 597 0 l 597 96 q 499 9 557 40 q 371 -22 440 -22 q 204 22 278 -22 q 89 146 131 67 q 47 326 47 225 q 88 505 47 426 q 202 628 129 583 q 368 672 275 672 q 498 641 439 672 q 597 553 557 610 l 597 650 l 692 650 m 368 64 q 487 97 435 64 q 568 190 539 131 q 597 325 597 250 q 568 460 597 400 q 487 553 539 519 q 368 586 435 586 q 251 553 303 586 q 171 460 200 519 q 142 326 142 401 q 171 190 142 250 q 251 97 200 131 q 368 64 303 64 z "},"á":{"ha":779,"x_min":47,"x_max":692,"o":"m 692 650 l 692 0 l 597 0 l 597 96 q 499 9 557 40 q 371 -22 440 -22 q 204 22 278 -22 q 89 146 131 67 q 47 326 47 225 q 88 505 47 426 q 202 628 129 583 q 368 672 275 672 q 498 641 439 672 q 597 553 557 610 l 597 650 l 692 650 m 368 64 q 487 97 435 64 q 568 190 539 131 q 597 325 597 250 q 568 460 597 400 q 487 553 539 519 q 368 586 435 586 q 251 553 303 586 q 171 460 200 519 q 142 326 142 401 q 171 190 142 250 q 251 97 200 131 q 368 64 303 64 m 328 746 l 300 793 l 558 947 l 606 867 l 328 746 z "},"ă":{"ha":779,"x_min":47,"x_max":692,"o":"m 692 650 l 692 0 l 597 0 l 597 96 q 499 9 557 40 q 371 -22 440 -22 q 204 22 278 -22 q 89 146 131 67 q 47 326 47 225 q 88 505 47 426 q 202 628 129 583 q 368 672 275 672 q 498 641 439 672 q 597 553 557 610 l 597 650 l 692 650 m 368 64 q 487 97 435 64 q 568 190 539 131 q 597 325 597 250 q 568 460 597 400 q 487 553 539 519 q 368 586 435 586 q 251 553 303 586 q 171 460 200 519 q 142 326 142 401 q 171 190 142 250 q 251 97 200 131 q 368 64 303 64 m 390 778 q 254 826 306 778 q 201 969 203 874 l 258 969 q 298 889 264 915 q 390 863 332 863 q 483 889 449 863 q 522 969 517 915 l 579 969 q 526 826 578 874 q 390 778 475 778 z "},"ǎ":{"ha":779,"x_min":47,"x_max":692,"o":"m 692 650 l 692 0 l 597 0 l 597 96 q 499 9 557 40 q 371 -22 440 -22 q 204 22 278 -22 q 89 146 131 67 q 47 326 47 225 q 88 505 47 426 q 202 628 129 583 q 368 672 275 672 q 498 641 439 672 q 597 553 557 610 l 597 650 l 692 650 m 368 64 q 487 97 435 64 q 568 190 539 131 q 597 325 597 250 q 568 460 597 400 q 487 553 539 519 q 368 586 435 586 q 251 553 303 586 q 171 460 200 519 q 142 326 142 401 q 171 190 142 250 q 251 97 200 131 q 368 64 303 64 m 389 760 l 201 932 l 228 979 l 389 872 l 551 979 l 578 932 l 389 760 z "},"â":{"ha":779,"x_min":47,"x_max":692,"o":"m 692 650 l 692 0 l 597 0 l 597 96 q 499 9 557 40 q 371 -22 440 -22 q 204 22 278 -22 q 89 146 131 67 q 47 326 47 225 q 88 505 47 426 q 202 628 129 583 q 368 672 275 672 q 498 641 439 672 q 597 553 557 610 l 597 650 l 692 650 m 368 64 q 487 97 435 64 q 568 190 539 131 q 597 325 597 250 q 568 460 597 400 q 487 553 539 519 q 368 586 435 586 q 251 553 303 586 q 171 460 200 519 q 142 326 142 401 q 171 190 142 250 q 251 97 200 131 q 368 64 303 64 m 228 788 l 201 835 l 389 1007 l 578 835 l 551 788 l 389 894 l 228 788 z "},"ậ":{"ha":779,"x_min":47,"x_max":692,"o":"m 692 650 l 692 0 l 597 0 l 597 96 q 499 9 557 40 q 371 -22 440 -22 q 204 22 278 -22 q 89 146 131 67 q 47 326 47 225 q 88 505 47 426 q 202 628 129 583 q 368 672 275 672 q 498 641 439 672 q 597 553 557 610 l 597 650 l 692 650 m 368 64 q 487 97 435 64 q 568 190 539 131 q 597 325 597 250 q 568 460 597 400 q 487 553 539 519 q 368 586 435 586 q 251 553 303 586 q 171 460 200 519 q 142 326 142 401 q 171 190 142 250 q 251 97 200 131 q 368 64 303 64 m 228 788 l 201 835 l 389 1007 l 578 835 l 551 788 l 389 894 l 228 788 m 390 -254 q 337 -232 358 -254 q 315 -178 315 -210 q 337 -126 315 -147 q 390 -104 358 -104 q 443 -126 421 -104 q 465 -179 465 -147 q 443 -232 465 -210 q 390 -254 421 -254 z "},"ȁ":{"ha":779,"x_min":47,"x_max":692,"o":"m 692 650 l 692 0 l 597 0 l 597 96 q 499 9 557 40 q 371 -22 440 -22 q 204 22 278 -22 q 89 146 131 67 q 47 326 47 225 q 88 505 47 426 q 202 628 129 583 q 368 672 275 672 q 498 641 439 672 q 597 553 557 610 l 597 650 l 692 650 m 368 64 q 487 97 435 64 q 568 190 539 131 q 597 325 597 250 q 568 460 597 400 q 487 553 539 519 q 368 586 435 586 q 251 553 303 586 q 171 460 200 519 q 142 326 142 401 q 171 190 142 250 q 251 97 200 131 q 368 64 303 64 m 301 778 l 115 971 l 182 1038 l 340 815 l 301 778 m 499 778 l 313 971 l 379 1038 l 538 815 l 499 778 z "},"ä":{"ha":779,"x_min":47,"x_max":692,"o":"m 692 650 l 692 0 l 597 0 l 597 96 q 499 9 557 40 q 371 -22 440 -22 q 204 22 278 -22 q 89 146 131 67 q 47 326 47 225 q 88 505 47 426 q 202 628 129 583 q 368 672 275 672 q 498 641 439 672 q 597 553 557 610 l 597 650 l 692 650 m 368 64 q 487 97 435 64 q 568 190 539 131 q 597 325 597 250 q 568 460 597 400 q 487 553 539 519 q 368 586 435 586 q 251 553 303 586 q 171 460 200 519 q 142 326 142 401 q 171 190 142 250 q 251 97 200 131 q 368 64 303 64 m 254 776 q 201 799 222 776 q 179 853 179 821 q 201 905 179 883 q 254 926 222 926 q 308 905 285 926 q 331 851 331 883 q 308 799 331 821 q 254 776 285 776 m 526 776 q 472 799 494 776 q 450 853 450 821 q 472 905 450 883 q 526 926 494 926 q 579 905 557 926 q 601 851 601 883 q 579 799 601 821 q 526 776 557 776 z "},"ǟ":{"ha":779,"x_min":47,"x_max":692,"o":"m 692 650 l 692 0 l 597 0 l 597 96 q 499 9 557 40 q 371 -22 440 -22 q 204 22 278 -22 q 89 146 131 67 q 47 326 47 225 q 88 505 47 426 q 202 628 129 583 q 368 672 275 672 q 498 641 439 672 q 597 553 557 610 l 597 650 l 692 650 m 368 64 q 487 97 435 64 q 568 190 539 131 q 597 325 597 250 q 568 460 597 400 q 487 553 539 519 q 368 586 435 586 q 251 553 303 586 q 171 460 200 519 q 142 326 142 401 q 171 190 142 250 q 251 97 200 131 q 368 64 303 64 m 254 776 q 201 799 222 776 q 179 853 179 821 q 201 905 179 883 q 254 926 222 926 q 308 905 285 926 q 331 851 331 883 q 308 799 331 821 q 254 776 285 776 m 526 776 q 472 799 494 776 q 450 853 450 821 q 472 905 450 883 q 526 926 494 926 q 579 905 557 926 q 601 851 601 883 q 579 799 601 821 q 526 776 557 776 m 204 1007 l 204 1069 l 575 1069 l 575 1007 l 204 1007 z "},"ȧ":{"ha":779,"x_min":47,"x_max":692,"o":"m 692 650 l 692 0 l 597 0 l 597 96 q 499 9 557 40 q 371 -22 440 -22 q 204 22 278 -22 q 89 146 131 67 q 47 326 47 225 q 88 505 47 426 q 202 628 129 583 q 368 672 275 672 q 498 641 439 672 q 597 553 557 610 l 597 650 l 692 650 m 368 64 q 487 97 435 64 q 568 190 539 131 q 597 325 597 250 q 568 460 597 400 q 487 553 539 519 q 368 586 435 586 q 251 553 303 586 q 171 460 200 519 q 142 326 142 401 q 171 190 142 250 q 251 97 200 131 q 368 64 303 64 m 390 776 q 337 799 358 776 q 315 853 315 821 q 337 905 315 883 q 390 926 358 926 q 443 905 421 926 q 465 851 465 883 q 443 799 465 821 q 390 776 421 776 z "},"ạ":{"ha":779,"x_min":47,"x_max":692,"o":"m 692 650 l 692 0 l 597 0 l 597 96 q 499 9 557 40 q 371 -22 440 -22 q 204 22 278 -22 q 89 146 131 67 q 47 326 47 225 q 88 505 47 426 q 202 628 129 583 q 368 672 275 672 q 498 641 439 672 q 597 553 557 610 l 597 650 l 692 650 m 368 64 q 487 97 435 64 q 568 190 539 131 q 597 325 597 250 q 568 460 597 400 q 487 553 539 519 q 368 586 435 586 q 251 553 303 586 q 171 460 200 519 q 142 326 142 401 q 171 190 142 250 q 251 97 200 131 q 368 64 303 64 m 390 -254 q 337 -232 358 -254 q 315 -178 315 -210 q 337 -126 315 -147 q 390 -104 358 -104 q 443 -126 421 -104 q 465 -179 465 -147 q 443 -232 465 -210 q 390 -254 421 -254 z "},"à":{"ha":779,"x_min":47,"x_max":692,"o":"m 692 650 l 692 0 l 597 0 l 597 96 q 499 9 557 40 q 371 -22 440 -22 q 204 22 278 -22 q 89 146 131 67 q 47 326 47 225 q 88 505 47 426 q 202 628 129 583 q 368 672 275 672 q 498 641 439 672 q 597 553 557 610 l 597 650 l 692 650 m 368 64 q 487 97 435 64 q 568 190 539 131 q 597 325 597 250 q 568 460 597 400 q 487 553 539 519 q 368 586 435 586 q 251 553 303 586 q 171 460 200 519 q 142 326 142 401 q 171 190 142 250 q 251 97 200 131 q 368 64 303 64 m 494 746 l 217 867 l 264 947 l 522 793 l 494 746 z "},"ȃ":{"ha":779,"x_min":47,"x_max":692,"o":"m 692 650 l 692 0 l 597 0 l 597 96 q 499 9 557 40 q 371 -22 440 -22 q 204 22 278 -22 q 89 146 131 67 q 47 326 47 225 q 88 505 47 426 q 202 628 129 583 q 368 672 275 672 q 498 641 439 672 q 597 553 557 610 l 597 650 l 692 650 m 368 64 q 487 97 435 64 q 568 190 539 131 q 597 325 597 250 q 568 460 597 400 q 487 553 539 519 q 368 586 435 586 q 251 553 303 586 q 171 460 200 519 q 142 326 142 401 q 171 190 142 250 q 251 97 200 131 q 368 64 303 64 m 390 969 q 526 922 475 969 q 579 778 578 874 l 522 778 q 483 858 517 832 q 390 885 449 885 q 298 858 332 885 q 258 778 264 832 l 201 778 q 254 922 203 874 q 390 969 306 969 z "},"ɑ":{"ha":829,"x_min":47,"x_max":817,"o":"m 692 206 q 817 94 692 94 l 817 0 q 690 31 744 0 q 613 121 636 63 q 511 15 574 53 q 371 -22 449 -22 q 204 22 278 -22 q 89 146 131 67 q 47 326 47 225 q 88 505 47 426 q 202 628 129 583 q 368 672 275 672 q 531 631 458 672 q 645 514 603 589 q 692 343 688 439 l 692 206 m 368 64 q 487 97 435 64 q 568 190 539 131 q 597 325 597 250 q 568 460 597 400 q 487 553 539 519 q 368 586 435 586 q 251 553 303 586 q 171 460 200 519 q 142 326 142 401 q 171 190 142 250 q 251 97 200 131 q 368 64 303 64 z "},"ā":{"ha":779,"x_min":47,"x_max":692,"o":"m 692 650 l 692 0 l 597 0 l 597 96 q 499 9 557 40 q 371 -22 440 -22 q 204 22 278 -22 q 89 146 131 67 q 47 326 47 225 q 88 505 47 426 q 202 628 129 583 q 368 672 275 672 q 498 641 439 672 q 597 553 557 610 l 597 650 l 692 650 m 368 64 q 487 97 435 64 q 568 190 539 131 q 597 325 597 250 q 568 460 597 400 q 487 553 539 519 q 368 586 435 586 q 251 553 303 586 q 171 460 200 519 q 142 326 142 401 q 171 190 142 250 q 251 97 200 131 q 368 64 303 64 m 204 814 l 204 876 l 575 876 l 575 814 l 204 814 z "},"ą":{"ha":779,"x_min":47,"x_max":749,"o":"m 749 -257 q 619 -296 678 -296 q 542 -273 575 -296 q 496 -208 510 -250 q 489 -162 489 -189 q 520 -72 489 -114 q 604 0 551 -29 l 597 0 l 597 96 q 499 9 557 40 q 371 -22 440 -22 q 204 22 278 -22 q 89 146 131 67 q 47 326 47 225 q 88 505 47 426 q 202 628 129 583 q 368 672 275 672 q 498 641 439 672 q 597 553 557 610 l 597 650 l 692 650 l 692 32 l 701 33 l 701 14 l 692 10 l 692 0 l 675 0 q 611 -59 636 -24 q 586 -137 586 -94 q 597 -192 586 -161 q 626 -230 607 -217 q 671 -243 644 -243 q 732 -226 699 -243 l 749 -257 m 368 64 q 487 97 435 64 q 568 190 539 131 q 597 325 597 250 q 568 460 597 400 q 487 553 539 519 q 368 586 435 586 q 251 553 303 586 q 171 460 200 519 q 142 326 142 401 q 171 190 142 250 q 251 97 200 131 q 368 64 303 64 z "},"å":{"ha":779,"x_min":47,"x_max":692,"o":"m 692 650 l 692 0 l 597 0 l 597 96 q 499 9 557 40 q 371 -22 440 -22 q 204 22 278 -22 q 89 146 131 67 q 47 326 47 225 q 88 505 47 426 q 202 628 129 583 q 368 672 275 672 q 498 641 439 672 q 597 553 557 610 l 597 650 l 692 650 m 368 64 q 487 97 435 64 q 568 190 539 131 q 597 325 597 250 q 568 460 597 400 q 487 553 539 519 q 368 586 435 586 q 251 553 303 586 q 171 460 200 519 q 142 326 142 401 q 171 190 142 250 q 251 97 200 131 q 368 64 303 64 m 389 778 q 292 818 332 778 q 251 915 251 858 q 292 1013 251 972 q 389 1054 332 1054 q 487 1013 446 1054 q 528 915 528 972 q 487 818 528 858 q 389 778 446 778 m 390 846 q 438 867 418 846 q 458 915 458 888 q 438 965 458 944 q 390 985 418 985 q 341 965 361 985 q 321 917 321 944 q 341 867 321 888 q 390 846 361 846 z "},"ǻ":{"ha":779,"x_min":47,"x_max":692,"o":"m 692 650 l 692 0 l 597 0 l 597 96 q 499 9 557 40 q 371 -22 440 -22 q 204 22 278 -22 q 89 146 131 67 q 47 326 47 225 q 88 505 47 426 q 202 628 129 583 q 368 672 275 672 q 498 641 439 672 q 597 553 557 610 l 597 650 l 692 650 m 368 64 q 487 97 435 64 q 568 190 539 131 q 597 325 597 250 q 568 460 597 400 q 487 553 539 519 q 368 586 435 586 q 251 553 303 586 q 171 460 200 519 q 142 326 142 401 q 171 190 142 250 q 251 97 200 131 q 368 64 303 64 m 389 778 q 292 818 332 778 q 251 915 251 858 q 292 1013 251 972 q 389 1054 332 1054 q 487 1013 446 1054 q 528 915 528 972 q 487 818 528 858 q 389 778 446 778 m 390 846 q 438 867 418 846 q 458 915 458 888 q 438 965 458 944 q 390 985 418 985 q 341 965 361 985 q 321 917 321 944 q 341 867 321 888 q 390 846 361 846 m 328 1150 l 300 1197 l 558 1351 l 606 1271 l 328 1150 z "},"ḁ":{"ha":779,"x_min":47,"x_max":692,"o":"m 692 650 l 692 0 l 597 0 l 597 96 q 499 9 557 40 q 371 -22 440 -22 q 204 22 278 -22 q 89 146 131 67 q 47 326 47 225 q 88 505 47 426 q 202 628 129 583 q 368 672 275 672 q 498 641 439 672 q 597 553 557 610 l 597 650 l 692 650 m 368 64 q 487 97 435 64 q 568 190 539 131 q 597 325 597 250 q 568 460 597 400 q 487 553 539 519 q 368 586 435 586 q 251 553 303 586 q 171 460 200 519 q 142 326 142 401 q 171 190 142 250 q 251 97 200 131 q 368 64 303 64 m 389 -336 q 292 -296 332 -336 q 251 -199 251 -256 q 292 -101 251 -142 q 389 -60 332 -60 q 487 -101 446 -60 q 528 -199 528 -142 q 487 -296 528 -256 q 389 -336 446 -336 m 390 -268 q 438 -247 418 -268 q 458 -199 458 -226 q 438 -149 458 -169 q 390 -129 418 -129 q 341 -149 361 -129 q 321 -197 321 -169 q 341 -247 321 -226 q 390 -268 361 -268 z "},"ã":{"ha":779,"x_min":47,"x_max":692,"o":"m 692 650 l 692 0 l 597 0 l 597 96 q 499 9 557 40 q 371 -22 440 -22 q 204 22 278 -22 q 89 146 131 67 q 47 326 47 225 q 88 505 47 426 q 202 628 129 583 q 368 672 275 672 q 498 641 439 672 q 597 553 557 610 l 597 650 l 692 650 m 368 64 q 487 97 435 64 q 568 190 539 131 q 597 325 597 250 q 568 460 597 400 q 487 553 539 519 q 368 586 435 586 q 251 553 303 586 q 171 460 200 519 q 142 326 142 401 q 171 190 142 250 q 251 97 200 131 q 368 64 303 64 m 151 769 q 199 894 158 838 q 301 950 240 950 q 353 938 331 950 q 407 901 375 926 q 453 869 435 879 q 494 858 472 858 q 542 885 524 858 q 564 950 561 911 l 628 950 q 583 824 621 878 q 481 769 544 769 q 431 781 450 769 q 385 815 411 792 q 341 848 360 838 q 294 858 322 858 q 240 837 258 858 q 214 769 221 815 l 151 769 z "},"æ":{"ha":1217,"x_min":76,"x_max":1167,"o":"m 856 672 q 1019 633 949 672 q 1128 521 1089 593 q 1167 354 1167 449 q 1164 306 1167 339 l 629 306 q 694 135 635 206 q 857 64 754 64 q 995 95 940 64 q 1083 182 1050 126 l 1158 132 q 1038 19 1113 60 q 860 -22 963 -22 q 728 4 789 -22 q 624 78 668 31 q 490 2 556 26 q 342 -22 425 -22 q 149 31 222 -22 q 76 185 76 85 q 119 302 76 253 q 231 377 161 351 q 383 403 301 403 q 464 398 438 403 q 535 378 490 393 q 478 535 525 481 q 338 590 431 590 q 242 569 285 590 q 164 506 199 549 l 96 554 q 206 642 143 613 q 340 671 268 671 q 498 631 436 671 q 583 519 560 592 q 696 632 625 592 q 856 672 767 672 m 1071 383 q 1003 535 1057 485 q 856 586 949 586 q 708 528 765 586 q 635 383 650 471 l 1071 383 m 354 64 q 579 139 474 64 q 535 304 539 215 q 397 319 461 319 q 241 286 301 319 q 181 189 181 253 q 226 94 181 125 q 354 64 271 64 z "},"ǽ":{"ha":1217,"x_min":76,"x_max":1167,"o":"m 856 672 q 1019 633 949 672 q 1128 521 1089 593 q 1167 354 1167 449 q 1164 306 1167 339 l 629 306 q 694 135 635 206 q 857 64 754 64 q 995 95 940 64 q 1083 182 1050 126 l 1158 132 q 1038 19 1113 60 q 860 -22 963 -22 q 728 4 789 -22 q 624 78 668 31 q 490 2 556 26 q 342 -22 425 -22 q 149 31 222 -22 q 76 185 76 85 q 119 302 76 253 q 231 377 161 351 q 383 403 301 403 q 464 398 438 403 q 535 378 490 393 q 478 535 525 481 q 338 590 431 590 q 242 569 285 590 q 164 506 199 549 l 96 554 q 206 642 143 613 q 340 671 268 671 q 498 631 436 671 q 583 519 560 592 q 696 632 625 592 q 856 672 767 672 m 1071 383 q 1003 535 1057 485 q 856 586 949 586 q 708 528 765 586 q 635 383 650 471 l 1071 383 m 354 64 q 579 139 474 64 q 535 304 539 215 q 397 319 461 319 q 241 286 301 319 q 181 189 181 253 q 226 94 181 125 q 354 64 271 64 m 546 746 l 518 793 l 776 947 l 824 867 l 546 746 z "},"b":{"ha":779,"x_min":89,"x_max":733,"o":"m 413 672 q 578 628 506 672 q 692 505 651 583 q 733 326 733 426 q 692 146 733 225 q 576 22 650 67 q 410 -22 503 -22 q 282 9 340 -22 q 183 96 224 40 l 183 0 l 89 0 l 89 1008 l 183 1008 l 183 553 q 283 641 224 610 q 413 672 342 672 m 413 64 q 529 97 478 64 q 610 190 581 131 q 639 326 639 250 q 610 460 639 401 q 529 553 581 519 q 413 586 478 586 q 294 553 346 586 q 213 460 242 519 q 183 325 183 400 q 213 190 183 250 q 294 97 242 131 q 413 64 346 64 z "},"ḃ":{"ha":779,"x_min":89,"x_max":733,"o":"m 413 672 q 578 628 506 672 q 692 505 651 583 q 733 326 733 426 q 692 146 733 225 q 576 22 650 67 q 410 -22 503 -22 q 282 9 340 -22 q 183 96 224 40 l 183 0 l 89 0 l 89 1008 l 183 1008 l 183 553 q 283 641 224 610 q 413 672 342 672 m 413 64 q 529 97 478 64 q 610 190 581 131 q 639 326 639 250 q 610 460 639 401 q 529 553 581 519 q 413 586 478 586 q 294 553 346 586 q 213 460 242 519 q 183 325 183 400 q 213 190 183 250 q 294 97 242 131 q 413 64 346 64 m 432 776 q 378 799 400 776 q 357 853 357 821 q 378 905 357 883 q 432 926 400 926 q 485 905 463 926 q 507 851 507 883 q 485 799 507 821 q 432 776 463 776 z "},"ḅ":{"ha":779,"x_min":89,"x_max":733,"o":"m 413 672 q 578 628 506 672 q 692 505 651 583 q 733 326 733 426 q 692 146 733 225 q 576 22 650 67 q 410 -22 503 -22 q 282 9 340 -22 q 183 96 224 40 l 183 0 l 89 0 l 89 1008 l 183 1008 l 183 553 q 283 641 224 610 q 413 672 342 672 m 413 64 q 529 97 478 64 q 610 190 581 131 q 639 326 639 250 q 610 460 639 401 q 529 553 581 519 q 413 586 478 586 q 294 553 346 586 q 213 460 242 519 q 183 325 183 400 q 213 190 183 250 q 294 97 242 131 q 413 64 346 64 m 411 -254 q 358 -232 379 -254 q 336 -178 336 -210 q 358 -126 336 -147 q 411 -104 379 -104 q 464 -126 442 -104 q 486 -179 486 -147 q 464 -232 486 -210 q 411 -254 442 -254 z "},"ɓ":{"ha":779,"x_min":89,"x_max":733,"o":"m 413 672 q 578 628 506 672 q 692 505 651 583 q 733 326 733 426 q 692 146 733 225 q 576 22 650 67 q 410 -22 503 -22 q 282 9 340 -22 q 183 96 224 40 l 183 0 l 89 0 l 89 825 q 143 975 89 921 q 293 1029 197 1029 l 390 1029 l 390 943 l 293 943 q 213 914 242 943 q 183 832 183 885 l 183 553 q 283 641 224 610 q 413 672 342 672 m 413 64 q 529 97 478 64 q 610 190 581 131 q 639 326 639 250 q 610 460 639 401 q 529 553 581 519 q 413 586 478 586 q 294 553 346 586 q 213 460 242 519 q 183 325 183 400 q 213 190 183 250 q 294 97 242 131 q 413 64 346 64 z "},"ḇ":{"ha":779,"x_min":89,"x_max":733,"o":"m 413 672 q 578 628 506 672 q 692 505 651 583 q 733 326 733 426 q 692 146 733 225 q 576 22 650 67 q 410 -22 503 -22 q 282 9 340 -22 q 183 96 224 40 l 183 0 l 89 0 l 89 1008 l 183 1008 l 183 553 q 283 641 224 610 q 413 672 342 672 m 413 64 q 529 97 478 64 q 610 190 581 131 q 639 326 639 250 q 610 460 639 401 q 529 553 581 519 q 413 586 478 586 q 294 553 346 586 q 213 460 242 519 q 183 325 183 400 q 213 190 183 250 q 294 97 242 131 q 413 64 346 64 m 225 -158 l 225 -96 l 596 -96 l 596 -158 l 225 -158 z "},"ƀ":{"ha":790,"x_min":1,"x_max":744,"o":"m 424 672 q 590 628 517 672 q 703 505 663 583 q 744 326 744 426 q 703 146 744 225 q 588 22 661 67 q 421 -22 514 -22 q 293 9 351 -22 q 194 96 235 40 l 194 0 l 100 0 l 100 788 l 1 788 l 1 854 l 100 854 l 100 1008 l 194 1008 l 194 854 l 421 854 l 421 788 l 194 788 l 194 553 q 294 641 235 610 q 424 672 353 672 m 424 64 q 540 97 489 64 q 621 190 592 131 q 650 326 650 250 q 621 460 650 401 q 540 553 592 519 q 424 586 489 586 q 305 553 357 586 q 224 460 253 519 q 194 325 194 400 q 224 190 194 250 q 305 97 253 131 q 424 64 357 64 z "},"c":{"ha":663,"x_min":44,"x_max":628,"o":"m 369 -22 q 201 22 275 -22 q 86 146 128 67 q 44 325 44 225 q 85 504 44 425 q 200 628 126 583 q 367 672 274 672 q 505 638 446 672 q 613 542 564 604 l 543 488 q 367 586 475 586 q 249 553 301 586 q 168 460 197 519 q 139 325 139 400 q 168 190 139 250 q 249 97 197 131 q 367 64 301 64 q 476 87 433 64 q 554 154 519 110 l 628 103 q 515 12 582 46 q 369 -22 447 -22 z "},"ć":{"ha":663,"x_min":44,"x_max":628,"o":"m 369 -22 q 201 22 275 -22 q 86 146 128 67 q 44 325 44 225 q 85 504 44 425 q 200 628 126 583 q 367 672 274 672 q 505 638 446 672 q 613 542 564 604 l 543 488 q 367 586 475 586 q 249 553 301 586 q 168 460 197 519 q 139 325 139 400 q 168 190 139 250 q 249 97 197 131 q 367 64 301 64 q 476 87 433 64 q 554 154 519 110 l 628 103 q 515 12 582 46 q 369 -22 447 -22 m 311 746 l 283 793 l 542 947 l 589 867 l 311 746 z "},"č":{"ha":663,"x_min":44,"x_max":628,"o":"m 369 -22 q 201 22 275 -22 q 86 146 128 67 q 44 325 44 225 q 85 504 44 425 q 200 628 126 583 q 367 672 274 672 q 505 638 446 672 q 613 542 564 604 l 543 488 q 367 586 475 586 q 249 553 301 586 q 168 460 197 519 q 139 325 139 400 q 168 190 139 250 q 249 97 197 131 q 367 64 301 64 q 476 87 433 64 q 554 154 519 110 l 628 103 q 515 12 582 46 q 369 -22 447 -22 m 372 760 l 185 932 l 211 979 l 372 872 l 535 979 l 561 932 l 372 760 z "},"ç":{"ha":663,"x_min":44,"x_max":628,"o":"m 628 103 q 522 15 585 49 q 388 -22 460 -18 l 353 -94 q 463 -118 424 -94 q 501 -174 501 -142 q 217 -278 501 -278 l 217 -240 q 349 -224 286 -240 q 411 -182 411 -210 q 400 -159 411 -167 q 357 -147 389 -151 q 261 -143 325 -143 l 319 -18 q 176 40 238 -7 q 79 160 114 86 q 44 325 44 233 q 85 504 44 425 q 200 628 126 583 q 367 672 274 672 q 505 638 446 672 q 613 542 564 604 l 543 488 q 367 586 475 586 q 249 553 301 586 q 168 460 197 519 q 139 325 139 400 q 168 190 139 250 q 249 97 197 131 q 367 64 301 64 q 476 87 433 64 q 554 154 519 110 l 628 103 z "},"ḉ":{"ha":663,"x_min":44,"x_max":628,"o":"m 589 867 l 311 746 l 283 793 l 542 947 l 589 867 m 628 103 q 522 15 585 49 q 388 -22 460 -18 l 353 -94 q 463 -118 424 -94 q 501 -174 501 -142 q 217 -278 501 -278 l 217 -240 q 349 -224 286 -240 q 411 -182 411 -210 q 400 -159 411 -167 q 357 -147 389 -151 q 261 -143 325 -143 l 319 -18 q 176 40 238 -7 q 79 160 114 86 q 44 325 44 233 q 85 504 44 425 q 200 628 126 583 q 367 672 274 672 q 505 638 446 672 q 613 542 564 604 l 543 488 q 367 586 475 586 q 249 553 301 586 q 168 460 197 519 q 139 325 139 400 q 168 190 139 250 q 249 97 197 131 q 367 64 301 64 q 476 87 433 64 q 554 154 519 110 l 628 103 z "},"ĉ":{"ha":663,"x_min":44,"x_max":628,"o":"m 369 -22 q 201 22 275 -22 q 86 146 128 67 q 44 325 44 225 q 85 504 44 425 q 200 628 126 583 q 367 672 274 672 q 505 638 446 672 q 613 542 564 604 l 543 488 q 367 586 475 586 q 249 553 301 586 q 168 460 197 519 q 139 325 139 400 q 168 190 139 250 q 249 97 197 131 q 367 64 301 64 q 476 87 433 64 q 554 154 519 110 l 628 103 q 515 12 582 46 q 369 -22 447 -22 m 211 788 l 185 835 l 372 1007 l 561 835 l 535 788 l 372 894 l 211 788 z "},"ċ":{"ha":663,"x_min":44,"x_max":628,"o":"m 369 -22 q 201 22 275 -22 q 86 146 128 67 q 44 325 44 225 q 85 504 44 425 q 200 628 126 583 q 367 672 274 672 q 505 638 446 672 q 613 542 564 604 l 543 488 q 367 586 475 586 q 249 553 301 586 q 168 460 197 519 q 139 325 139 400 q 168 190 139 250 q 249 97 197 131 q 367 64 301 64 q 476 87 433 64 q 554 154 519 110 l 628 103 q 515 12 582 46 q 369 -22 447 -22 m 374 776 q 320 799 342 776 q 299 853 299 821 q 320 905 299 883 q 374 926 342 926 q 426 905 404 926 q 449 851 449 883 q 426 799 449 821 q 374 776 404 776 z "},"ƈ":{"ha":663,"x_min":44,"x_max":735,"o":"m 532 621 q 591 765 538 714 q 735 815 644 815 l 735 729 q 647 700 679 729 q 615 618 615 671 l 615 542 l 610 546 l 613 542 l 543 488 q 367 586 475 586 q 249 553 301 586 q 168 460 197 519 q 139 325 139 400 q 168 190 139 250 q 249 97 197 131 q 367 64 301 64 q 476 87 433 64 q 554 154 519 110 l 628 103 q 515 12 582 46 q 369 -22 447 -22 q 201 22 275 -22 q 86 146 128 67 q 44 325 44 225 q 85 504 44 425 q 200 628 126 583 q 367 672 274 672 q 532 621 458 672 z "},"ȼ":{"ha":663,"x_min":44,"x_max":628,"o":"m 628 103 q 515 12 582 46 q 369 -22 447 -22 q 236 4 297 -22 l 194 -83 l 131 -54 l 175 40 q 78 160 113 86 q 44 325 44 235 q 85 504 44 425 q 200 628 126 583 q 367 672 274 672 q 463 657 417 672 l 508 756 l 572 725 l 525 625 q 613 542 571 594 l 543 488 q 489 546 521 521 l 272 85 q 367 64 315 64 q 476 87 433 64 q 554 154 519 110 l 628 103 m 139 325 q 158 213 139 264 q 214 125 178 161 l 425 578 q 367 586 399 586 q 249 553 301 586 q 168 460 197 519 q 139 325 139 400 z "},"d":{"ha":779,"x_min":47,"x_max":692,"o":"m 692 1008 l 692 0 l 597 0 l 597 96 q 499 9 557 40 q 371 -22 440 -22 q 204 22 278 -22 q 89 146 131 67 q 47 326 47 225 q 88 505 47 426 q 202 628 129 583 q 368 672 275 672 q 498 641 439 672 q 597 553 557 610 l 597 1008 l 692 1008 m 368 64 q 487 97 435 64 q 568 190 539 131 q 597 325 597 250 q 568 460 597 400 q 487 553 539 519 q 368 586 435 586 q 251 553 303 586 q 171 460 200 519 q 142 326 142 401 q 171 190 142 250 q 251 97 200 131 q 368 64 303 64 z "},"ð":{"ha":738,"x_min":47,"x_max":692,"o":"m 692 300 l 692 300 q 644 133 686 207 q 531 19 601 60 q 371 -22 460 -22 q 204 22 278 -22 q 89 146 131 67 q 47 326 47 225 q 88 505 47 426 q 202 628 129 583 q 368 672 275 672 q 490 638 431 672 q 588 544 550 604 q 522 739 569 663 q 399 865 475 815 l 321 778 l 276 819 l 346 896 q 225 944 297 921 l 260 1013 q 397 953 335 986 l 472 1036 l 515 996 l 450 922 q 632 703 575 840 q 692 325 689 565 l 692 317 l 692 300 m 368 64 q 487 97 435 64 q 568 190 539 131 q 597 325 597 250 q 568 460 597 400 q 487 553 539 519 q 368 586 435 586 q 251 553 303 586 q 171 460 200 519 q 142 326 142 401 q 171 190 142 250 q 251 97 200 131 q 368 64 303 64 z "},"ď":{"ha":876,"x_min":47,"x_max":932,"o":"m 692 1008 l 692 0 l 597 0 l 597 96 q 499 9 557 40 q 371 -22 440 -22 q 204 22 278 -22 q 89 146 131 67 q 47 326 47 225 q 88 505 47 426 q 202 628 129 583 q 368 672 275 672 q 498 641 439 672 q 597 553 557 610 l 597 1008 l 692 1008 m 368 64 q 487 97 435 64 q 568 190 539 131 q 597 325 597 250 q 568 460 597 400 q 487 553 539 519 q 368 586 435 586 q 251 553 303 586 q 171 460 200 519 q 142 326 142 401 q 171 190 142 250 q 251 97 200 131 q 368 64 303 64 m 767 735 q 828 874 828 803 q 811 947 828 911 q 804 979 804 961 q 817 1012 804 1000 q 854 1024 831 1024 q 932 932 932 1024 q 894 810 932 876 q 797 703 856 743 l 767 735 z "},"ḑ":{"ha":779,"x_min":47,"x_max":692,"o":"m 692 1008 l 692 0 l 597 0 l 597 96 q 421 -18 531 1 l 383 -94 q 493 -118 454 -94 q 532 -174 532 -142 q 247 -278 532 -278 l 247 -240 q 379 -224 317 -240 q 442 -182 442 -210 q 431 -159 442 -167 q 388 -147 419 -151 q 292 -143 356 -143 l 349 -21 q 192 29 261 -17 q 85 152 124 75 q 47 326 47 229 q 88 505 47 426 q 202 628 129 583 q 368 672 275 672 q 498 641 439 672 q 597 553 557 610 l 597 1008 l 692 1008 m 368 64 q 487 97 435 64 q 568 190 539 131 q 597 325 597 250 q 568 460 597 400 q 487 553 539 519 q 368 586 435 586 q 251 553 303 586 q 171 460 200 519 q 142 326 142 401 q 171 190 142 250 q 251 97 200 131 q 368 64 303 64 z "},"ḓ":{"ha":779,"x_min":47,"x_max":692,"o":"m 692 1008 l 692 0 l 597 0 l 597 96 q 499 9 557 40 q 371 -22 440 -22 q 204 22 278 -22 q 89 146 131 67 q 47 326 47 225 q 88 505 47 426 q 202 628 129 583 q 368 672 275 672 q 498 641 439 672 q 597 553 557 610 l 597 1008 l 692 1008 m 368 64 q 487 97 435 64 q 568 190 539 131 q 597 325 597 250 q 568 460 597 400 q 487 553 539 519 q 368 586 435 586 q 251 553 303 586 q 171 460 200 519 q 142 326 142 401 q 171 190 142 250 q 251 97 200 131 q 368 64 303 64 m 228 -299 l 201 -251 l 389 -79 l 578 -251 l 551 -299 l 389 -192 l 228 -299 z "},"đ":{"ha":779,"x_min":47,"x_max":799,"o":"m 799 742 l 692 742 l 692 0 l 597 0 l 597 96 q 499 9 557 40 q 371 -22 440 -22 q 204 22 278 -22 q 89 146 131 67 q 47 326 47 225 q 88 505 47 426 q 202 628 129 583 q 368 672 275 672 q 498 641 439 672 q 597 553 557 610 l 597 742 l 435 742 l 435 808 l 597 808 l 597 1008 l 692 1008 l 692 808 l 799 808 l 799 742 m 368 64 q 487 97 435 64 q 568 190 539 131 q 597 325 597 250 q 568 460 597 400 q 487 553 539 519 q 368 586 435 586 q 251 553 303 586 q 171 460 200 519 q 142 326 142 401 q 171 190 142 250 q 251 97 200 131 q 368 64 303 64 z "},"ḋ":{"ha":779,"x_min":47,"x_max":692,"o":"m 692 1008 l 692 0 l 597 0 l 597 96 q 499 9 557 40 q 371 -22 440 -22 q 204 22 278 -22 q 89 146 131 67 q 47 326 47 225 q 88 505 47 426 q 202 628 129 583 q 368 672 275 672 q 498 641 439 672 q 597 553 557 610 l 597 1008 l 692 1008 m 368 64 q 487 97 435 64 q 568 190 539 131 q 597 325 597 250 q 568 460 597 400 q 487 553 539 519 q 368 586 435 586 q 251 553 303 586 q 171 460 200 519 q 142 326 142 401 q 171 190 142 250 q 251 97 200 131 q 368 64 303 64 m 390 776 q 337 799 358 776 q 315 853 315 821 q 337 905 315 883 q 390 926 358 926 q 443 905 421 926 q 465 851 465 883 q 443 799 465 821 q 390 776 421 776 z "},"ḍ":{"ha":779,"x_min":47,"x_max":692,"o":"m 692 1008 l 692 0 l 597 0 l 597 96 q 499 9 557 40 q 371 -22 440 -22 q 204 22 278 -22 q 89 146 131 67 q 47 326 47 225 q 88 505 47 426 q 202 628 129 583 q 368 672 275 672 q 498 641 439 672 q 597 553 557 610 l 597 1008 l 692 1008 m 368 64 q 487 97 435 64 q 568 190 539 131 q 597 325 597 250 q 568 460 597 400 q 487 553 539 519 q 368 586 435 586 q 251 553 303 586 q 171 460 200 519 q 142 326 142 401 q 171 190 142 250 q 251 97 200 131 q 368 64 303 64 m 390 -254 q 337 -232 358 -254 q 315 -178 315 -210 q 337 -126 315 -147 q 390 -104 358 -104 q 443 -126 421 -104 q 465 -179 465 -147 q 443 -232 465 -210 q 390 -254 421 -254 z "},"ɗ":{"ha":788,"x_min":47,"x_max":843,"o":"m 843 1029 l 843 943 l 801 943 q 721 914 750 943 q 692 832 692 885 l 692 0 l 597 0 l 597 96 q 499 9 557 40 q 371 -22 440 -22 q 204 22 278 -22 q 89 146 131 67 q 47 326 47 225 q 88 505 47 426 q 202 628 129 583 q 368 672 275 672 q 498 641 439 672 q 597 553 557 610 l 597 825 q 651 975 597 921 q 801 1029 706 1029 l 843 1029 m 368 64 q 487 97 435 64 q 568 190 539 131 q 597 325 597 250 q 568 460 597 400 q 487 553 539 519 q 368 586 435 586 q 251 553 303 586 q 171 460 200 519 q 142 326 142 401 q 171 190 142 250 q 251 97 200 131 q 368 64 303 64 z "},"ḏ":{"ha":779,"x_min":47,"x_max":692,"o":"m 692 1008 l 692 0 l 597 0 l 597 96 q 499 9 557 40 q 371 -22 440 -22 q 204 22 278 -22 q 89 146 131 67 q 47 326 47 225 q 88 505 47 426 q 202 628 129 583 q 368 672 275 672 q 498 641 439 672 q 597 553 557 610 l 597 1008 l 692 1008 m 368 64 q 487 97 435 64 q 568 190 539 131 q 597 325 597 250 q 568 460 597 400 q 487 553 539 519 q 368 586 435 586 q 251 553 303 586 q 171 460 200 519 q 142 326 142 401 q 171 190 142 250 q 251 97 200 131 q 368 64 303 64 m 204 -158 l 204 -96 l 575 -96 l 575 -158 l 204 -158 z "},"ɖ":{"ha":779,"x_min":47,"x_max":843,"o":"m 843 -185 l 843 -271 l 801 -271 q 651 -217 706 -271 q 597 -67 597 -162 l 597 96 q 499 9 557 40 q 371 -22 440 -22 q 204 22 278 -22 q 89 146 131 67 q 47 326 47 225 q 88 505 47 426 q 202 628 129 583 q 368 672 275 672 q 498 641 439 672 q 597 553 557 610 l 597 1008 l 692 1008 l 692 -74 q 721 -156 692 -126 q 801 -185 750 -185 l 843 -185 m 368 64 q 487 97 435 64 q 568 190 539 131 q 597 325 597 250 q 568 460 597 400 q 487 553 539 519 q 368 586 435 586 q 251 553 303 586 q 171 460 200 519 q 142 326 142 401 q 171 190 142 250 q 251 97 200 131 q 368 64 303 64 z "},"e":{"ha":729,"x_min":47,"x_max":678,"o":"m 368 672 q 526 629 456 672 q 638 512 597 586 q 678 346 678 438 q 676 306 678 319 l 142 306 q 207 135 147 206 q 369 64 267 64 q 508 95 453 64 q 596 182 563 126 l 671 132 q 550 19 625 60 q 372 -22 475 -22 q 204 22 278 -22 q 89 146 131 67 q 47 325 47 225 q 88 504 47 425 q 202 628 129 583 q 368 672 275 672 m 583 383 q 515 535 569 485 q 368 586 461 586 q 220 528 278 586 q 147 383 163 471 l 583 383 z "},"é":{"ha":729,"x_min":47,"x_max":678,"o":"m 368 672 q 526 629 456 672 q 638 512 597 586 q 678 346 678 438 q 676 306 678 319 l 142 306 q 207 135 147 206 q 369 64 267 64 q 508 95 453 64 q 596 182 563 126 l 671 132 q 550 19 625 60 q 372 -22 475 -22 q 204 22 278 -22 q 89 146 131 67 q 47 325 47 225 q 88 504 47 425 q 202 628 129 583 q 368 672 275 672 m 583 383 q 515 535 569 485 q 368 586 461 586 q 220 528 278 586 q 147 383 163 471 l 583 383 m 303 746 l 275 793 l 533 947 l 581 867 l 303 746 z "},"ĕ":{"ha":729,"x_min":47,"x_max":678,"o":"m 368 672 q 526 629 456 672 q 638 512 597 586 q 678 346 678 438 q 676 306 678 319 l 142 306 q 207 135 147 206 q 369 64 267 64 q 508 95 453 64 q 596 182 563 126 l 671 132 q 550 19 625 60 q 372 -22 475 -22 q 204 22 278 -22 q 89 146 131 67 q 47 325 47 225 q 88 504 47 425 q 202 628 129 583 q 368 672 275 672 m 583 383 q 515 535 569 485 q 368 586 461 586 q 220 528 278 586 q 147 383 163 471 l 583 383 m 365 778 q 229 826 281 778 q 176 969 178 874 l 233 969 q 273 889 239 915 q 365 863 307 863 q 458 889 424 863 q 497 969 492 915 l 554 969 q 501 826 553 874 q 365 778 450 778 z "},"ě":{"ha":729,"x_min":47,"x_max":678,"o":"m 368 672 q 526 629 456 672 q 638 512 597 586 q 678 346 678 438 q 676 306 678 319 l 142 306 q 207 135 147 206 q 369 64 267 64 q 508 95 453 64 q 596 182 563 126 l 671 132 q 550 19 625 60 q 372 -22 475 -22 q 204 22 278 -22 q 89 146 131 67 q 47 325 47 225 q 88 504 47 425 q 202 628 129 583 q 368 672 275 672 m 583 383 q 515 535 569 485 q 368 586 461 586 q 220 528 278 586 q 147 383 163 471 l 583 383 m 364 760 l 176 932 l 203 979 l 364 872 l 526 979 l 553 932 l 364 760 z "},"ȩ":{"ha":729,"x_min":47,"x_max":678,"o":"m 368 672 q 526 629 456 672 q 638 512 597 586 q 678 346 678 438 q 676 306 678 319 l 142 306 q 207 135 147 206 q 369 64 267 64 q 508 95 453 64 q 596 182 563 126 l 671 132 q 564 28 629 68 q 411 -21 499 -12 l 375 -94 q 485 -118 446 -94 q 524 -174 524 -142 q 239 -278 524 -278 l 239 -240 q 371 -224 308 -240 q 433 -182 433 -210 q 422 -159 433 -167 q 379 -147 411 -151 q 283 -143 347 -143 l 340 -21 q 188 33 254 -14 q 84 155 121 79 q 47 325 47 231 q 88 504 47 425 q 202 628 129 583 q 368 672 275 672 m 583 383 q 515 535 569 485 q 368 586 461 586 q 220 528 278 586 q 147 383 163 471 l 583 383 z "},"ê":{"ha":729,"x_min":47,"x_max":678,"o":"m 368 672 q 526 629 456 672 q 638 512 597 586 q 678 346 678 438 q 676 306 678 319 l 142 306 q 207 135 147 206 q 369 64 267 64 q 508 95 453 64 q 596 182 563 126 l 671 132 q 550 19 625 60 q 372 -22 475 -22 q 204 22 278 -22 q 89 146 131 67 q 47 325 47 225 q 88 504 47 425 q 202 628 129 583 q 368 672 275 672 m 583 383 q 515 535 569 485 q 368 586 461 586 q 220 528 278 586 q 147 383 163 471 l 583 383 m 203 788 l 176 835 l 364 1007 l 553 835 l 526 788 l 364 894 l 203 788 z "},"ệ":{"ha":729,"x_min":47,"x_max":678,"o":"m 368 672 q 526 629 456 672 q 638 512 597 586 q 678 346 678 438 q 676 306 678 319 l 142 306 q 207 135 147 206 q 369 64 267 64 q 508 95 453 64 q 596 182 563 126 l 671 132 q 550 19 625 60 q 372 -22 475 -22 q 204 22 278 -22 q 89 146 131 67 q 47 325 47 225 q 88 504 47 425 q 202 628 129 583 q 368 672 275 672 m 583 383 q 515 535 569 485 q 368 586 461 586 q 220 528 278 586 q 147 383 163 471 l 583 383 m 203 788 l 176 835 l 364 1007 l 553 835 l 526 788 l 364 894 l 203 788 m 382 -254 q 328 -232 350 -254 q 307 -178 307 -210 q 328 -126 307 -147 q 382 -104 350 -104 q 435 -126 413 -104 q 457 -179 457 -147 q 435 -232 457 -210 q 382 -254 413 -254 z "},"ȅ":{"ha":729,"x_min":47,"x_max":678,"o":"m 368 672 q 526 629 456 672 q 638 512 597 586 q 678 346 678 438 q 676 306 678 319 l 142 306 q 207 135 147 206 q 369 64 267 64 q 508 95 453 64 q 596 182 563 126 l 671 132 q 550 19 625 60 q 372 -22 475 -22 q 204 22 278 -22 q 89 146 131 67 q 47 325 47 225 q 88 504 47 425 q 202 628 129 583 q 368 672 275 672 m 583 383 q 515 535 569 485 q 368 586 461 586 q 220 528 278 586 q 147 383 163 471 l 583 383 m 276 778 l 90 971 l 157 1038 l 315 815 l 276 778 m 474 778 l 288 971 l 354 1038 l 513 815 l 474 778 z "},"ë":{"ha":729,"x_min":47,"x_max":678,"o":"m 368 672 q 526 629 456 672 q 638 512 597 586 q 678 346 678 438 q 676 306 678 319 l 142 306 q 207 135 147 206 q 369 64 267 64 q 508 95 453 64 q 596 182 563 126 l 671 132 q 550 19 625 60 q 372 -22 475 -22 q 204 22 278 -22 q 89 146 131 67 q 47 325 47 225 q 88 504 47 425 q 202 628 129 583 q 368 672 275 672 m 583 383 q 515 535 569 485 q 368 586 461 586 q 220 528 278 586 q 147 383 163 471 l 583 383 m 229 776 q 176 799 197 776 q 154 853 154 821 q 176 905 154 883 q 229 926 197 926 q 283 905 260 926 q 306 851 306 883 q 283 799 306 821 q 229 776 260 776 m 501 776 q 447 799 469 776 q 425 853 425 821 q 447 905 425 883 q 501 926 469 926 q 554 905 532 926 q 576 851 576 883 q 554 799 576 821 q 501 776 532 776 z "},"ė":{"ha":729,"x_min":47,"x_max":678,"o":"m 368 672 q 526 629 456 672 q 638 512 597 586 q 678 346 678 438 q 676 306 678 319 l 142 306 q 207 135 147 206 q 369 64 267 64 q 508 95 453 64 q 596 182 563 126 l 671 132 q 550 19 625 60 q 372 -22 475 -22 q 204 22 278 -22 q 89 146 131 67 q 47 325 47 225 q 88 504 47 425 q 202 628 129 583 q 368 672 275 672 m 583 383 q 515 535 569 485 q 368 586 461 586 q 220 528 278 586 q 147 383 163 471 l 583 383 m 365 776 q 312 799 333 776 q 290 853 290 821 q 312 905 290 883 q 365 926 333 926 q 418 905 396 926 q 440 851 440 883 q 418 799 440 821 q 365 776 396 776 z "},"ẹ":{"ha":729,"x_min":47,"x_max":678,"o":"m 368 672 q 526 629 456 672 q 638 512 597 586 q 678 346 678 438 q 676 306 678 319 l 142 306 q 207 135 147 206 q 369 64 267 64 q 508 95 453 64 q 596 182 563 126 l 671 132 q 550 19 625 60 q 372 -22 475 -22 q 204 22 278 -22 q 89 146 131 67 q 47 325 47 225 q 88 504 47 425 q 202 628 129 583 q 368 672 275 672 m 583 383 q 515 535 569 485 q 368 586 461 586 q 220 528 278 586 q 147 383 163 471 l 583 383 m 382 -254 q 328 -232 350 -254 q 307 -178 307 -210 q 328 -126 307 -147 q 382 -104 350 -104 q 435 -126 413 -104 q 457 -179 457 -147 q 435 -232 457 -210 q 382 -254 413 -254 z "},"è":{"ha":729,"x_min":47,"x_max":678,"o":"m 368 672 q 526 629 456 672 q 638 512 597 586 q 678 346 678 438 q 676 306 678 319 l 142 306 q 207 135 147 206 q 369 64 267 64 q 508 95 453 64 q 596 182 563 126 l 671 132 q 550 19 625 60 q 372 -22 475 -22 q 204 22 278 -22 q 89 146 131 67 q 47 325 47 225 q 88 504 47 425 q 202 628 129 583 q 368 672 275 672 m 583 383 q 515 535 569 485 q 368 586 461 586 q 220 528 278 586 q 147 383 163 471 l 583 383 m 469 746 l 192 867 l 239 947 l 497 793 l 469 746 z "},"ȇ":{"ha":729,"x_min":47,"x_max":678,"o":"m 368 672 q 526 629 456 672 q 638 512 597 586 q 678 346 678 438 q 676 306 678 319 l 142 306 q 207 135 147 206 q 369 64 267 64 q 508 95 453 64 q 596 182 563 126 l 671 132 q 550 19 625 60 q 372 -22 475 -22 q 204 22 278 -22 q 89 146 131 67 q 47 325 47 225 q 88 504 47 425 q 202 628 129 583 q 368 672 275 672 m 583 383 q 515 535 569 485 q 368 586 461 586 q 220 528 278 586 q 147 383 163 471 l 583 383 m 365 969 q 501 922 450 969 q 554 778 553 874 l 497 778 q 458 858 492 832 q 365 885 424 885 q 273 858 307 885 q 233 778 239 832 l 176 778 q 229 922 178 874 q 365 969 281 969 z "},"ē":{"ha":729,"x_min":47,"x_max":678,"o":"m 368 672 q 526 629 456 672 q 638 512 597 586 q 678 346 678 438 q 676 306 678 319 l 142 306 q 207 135 147 206 q 369 64 267 64 q 508 95 453 64 q 596 182 563 126 l 671 132 q 550 19 625 60 q 372 -22 475 -22 q 204 22 278 -22 q 89 146 131 67 q 47 325 47 225 q 88 504 47 425 q 202 628 129 583 q 368 672 275 672 m 583 383 q 515 535 569 485 q 368 586 461 586 q 220 528 278 586 q 147 383 163 471 l 583 383 m 179 814 l 179 876 l 550 876 l 550 814 l 179 814 z "},"ḗ":{"ha":729,"x_min":47,"x_max":678,"o":"m 368 672 q 526 629 456 672 q 638 512 597 586 q 678 346 678 438 q 676 306 678 319 l 142 306 q 207 135 147 206 q 369 64 267 64 q 508 95 453 64 q 596 182 563 126 l 671 132 q 550 19 625 60 q 372 -22 475 -22 q 204 22 278 -22 q 89 146 131 67 q 47 325 47 225 q 88 504 47 425 q 202 628 129 583 q 368 672 275 672 m 583 383 q 515 535 569 485 q 368 586 461 586 q 220 528 278 586 q 147 383 163 471 l 583 383 m 179 814 l 179 876 l 550 876 l 550 814 l 179 814 m 303 944 l 275 992 l 533 1146 l 581 1065 l 303 944 z "},"ḕ":{"ha":729,"x_min":47,"x_max":678,"o":"m 368 672 q 526 629 456 672 q 638 512 597 586 q 678 346 678 438 q 676 306 678 319 l 142 306 q 207 135 147 206 q 369 64 267 64 q 508 95 453 64 q 596 182 563 126 l 671 132 q 550 19 625 60 q 372 -22 475 -22 q 204 22 278 -22 q 89 146 131 67 q 47 325 47 225 q 88 504 47 425 q 202 628 129 583 q 368 672 275 672 m 583 383 q 515 535 569 485 q 368 586 461 586 q 220 528 278 586 q 147 383 163 471 l 583 383 m 179 814 l 179 876 l 550 876 l 550 814 l 179 814 m 469 944 l 192 1065 l 239 1146 l 497 992 l 469 944 z "},"ę":{"ha":729,"x_min":47,"x_max":678,"o":"m 368 672 q 526 629 456 672 q 638 512 597 586 q 678 346 678 438 q 676 306 678 319 l 142 306 q 207 135 147 206 q 369 64 267 64 q 508 95 453 64 q 596 182 563 126 l 671 132 q 511 1 610 39 q 429 -60 463 -21 q 396 -150 396 -100 q 407 -204 396 -174 q 435 -242 417 -229 q 481 -256 454 -256 q 542 -239 508 -256 l 558 -269 q 429 -308 488 -308 q 352 -285 385 -308 q 306 -221 319 -262 q 297 -175 297 -199 q 325 -90 297 -131 q 399 -21 353 -50 q 372 -22 390 -22 q 204 22 278 -22 q 89 146 131 67 q 47 325 47 225 q 88 504 47 425 q 202 628 129 583 q 368 672 275 672 m 583 383 q 515 535 569 485 q 368 586 461 586 q 220 528 278 586 q 147 383 163 471 l 583 383 z "},"ɛ":{"ha":643,"x_min":58,"x_max":622,"o":"m 326 -24 q 128 31 197 -24 q 58 168 58 86 q 169 326 58 285 q 69 474 69 372 q 138 617 69 561 q 342 674 206 674 q 601 575 511 674 l 539 513 q 342 588 467 588 q 207 555 250 588 q 164 474 164 522 q 199 403 164 429 q 297 376 233 376 l 457 376 l 457 288 l 297 288 q 185 255 218 288 q 153 182 153 222 q 197 95 153 126 q 326 64 240 64 q 560 161 467 64 l 622 99 q 326 -24 497 -24 z "},"ʃ":{"ha":268,"x_min":-69,"x_max":332,"o":"m -69 -183 l -32 -183 q 56 -154 24 -183 q 88 -72 88 -125 l 88 825 q 142 976 88 922 q 293 1031 196 1031 l 332 1031 l 332 944 l 293 944 q 211 913 240 944 q 182 825 182 881 l 182 -72 q 126 -224 182 -169 q -32 -278 69 -278 l -69 -278 l -69 -183 z "},"ẽ":{"ha":729,"x_min":47,"x_max":678,"o":"m 368 672 q 526 629 456 672 q 638 512 597 586 q 678 346 678 438 q 676 306 678 319 l 142 306 q 207 135 147 206 q 369 64 267 64 q 508 95 453 64 q 596 182 563 126 l 671 132 q 550 19 625 60 q 372 -22 475 -22 q 204 22 278 -22 q 89 146 131 67 q 47 325 47 225 q 88 504 47 425 q 202 628 129 583 q 368 672 275 672 m 583 383 q 515 535 569 485 q 368 586 461 586 q 220 528 278 586 q 147 383 163 471 l 583 383 m 126 769 q 174 894 133 838 q 276 950 215 950 q 328 938 306 950 q 382 901 350 926 q 428 869 410 879 q 469 858 447 858 q 517 885 499 858 q 539 950 536 911 l 603 950 q 558 824 596 878 q 456 769 519 769 q 406 781 425 769 q 360 815 386 792 q 316 848 335 838 q 269 858 297 858 q 215 837 233 858 q 189 769 196 815 l 126 769 z "},"ḛ":{"ha":729,"x_min":47,"x_max":678,"o":"m 368 672 q 526 629 456 672 q 638 512 597 586 q 678 346 678 438 q 676 306 678 319 l 142 306 q 207 135 147 206 q 369 64 267 64 q 508 95 453 64 q 596 182 563 126 l 671 132 q 550 19 625 60 q 372 -22 475 -22 q 204 22 278 -22 q 89 146 131 67 q 47 325 47 225 q 88 504 47 425 q 202 628 129 583 q 368 672 275 672 m 583 383 q 515 535 569 485 q 368 586 461 586 q 220 528 278 586 q 147 383 163 471 l 583 383 m 143 -294 q 191 -170 150 -226 q 293 -114 232 -114 q 344 -126 322 -114 q 399 -162 367 -137 q 445 -195 426 -185 q 486 -206 464 -206 q 534 -179 515 -206 q 556 -114 553 -153 l 619 -114 q 574 -240 613 -186 q 472 -294 536 -294 q 422 -283 442 -294 q 376 -249 403 -272 q 333 -216 351 -226 q 286 -206 314 -206 q 231 -227 250 -206 q 206 -294 213 -249 l 143 -294 z "},"ǝ":{"ha":729,"x_min":51,"x_max":682,"o":"m 357 672 q 525 628 451 672 q 640 504 599 583 q 682 325 682 425 q 641 146 682 225 q 527 22 600 67 q 361 -22 454 -22 q 203 21 274 -22 q 92 138 132 64 q 51 304 51 213 q 53 344 51 331 l 588 344 q 522 515 582 444 q 360 586 463 586 q 222 555 276 586 q 133 468 167 524 l 58 518 q 179 631 104 590 q 357 672 254 672 m 361 64 q 509 122 451 64 q 582 267 567 179 l 146 267 q 214 115 160 165 q 361 64 268 64 z "},"ə":{"ha":729,"x_min":51,"x_max":682,"o":"m 357 672 q 525 628 451 672 q 640 504 599 583 q 682 325 682 425 q 641 146 682 225 q 527 22 600 67 q 361 -22 454 -22 q 203 21 274 -22 q 92 138 132 64 q 51 304 51 213 q 53 344 51 331 l 588 344 q 522 515 582 444 q 360 586 463 586 q 222 555 276 586 q 133 468 167 524 l 58 518 q 179 631 104 590 q 357 672 254 672 m 361 64 q 509 122 451 64 q 582 267 567 179 l 146 267 q 214 115 160 165 q 361 64 268 64 z "},"ʒ":{"ha":583,"x_min":33,"x_max":557,"o":"m 279 282 q 485 204 414 276 q 557 6 557 132 q 519 -153 557 -83 q 415 -260 481 -222 q 267 -299 349 -299 q 139 -267 204 -299 q 33 -186 74 -235 l 103 -131 q 176 -190 131 -167 q 265 -212 221 -212 q 408 -153 353 -212 q 463 6 463 -94 q 415 153 463 101 q 260 206 368 206 q 211 203 244 206 l 169 258 l 418 564 l 51 564 l 51 650 l 518 650 l 518 564 l 279 282 z "},"f":{"ha":382,"x_min":39,"x_max":367,"o":"m 328 946 q 248 913 279 946 q 217 826 217 879 l 217 650 l 367 650 l 367 564 l 217 564 l 217 0 l 122 0 l 122 564 l 39 564 l 39 650 l 122 650 l 122 826 q 180 974 122 917 q 328 1032 238 1032 l 367 1032 l 367 946 l 328 946 z "},"g":{"ha":779,"x_min":47,"x_max":692,"o":"m 692 650 l 692 25 q 656 -131 692 -62 q 554 -239 619 -200 q 406 -278 489 -278 l 136 -278 l 136 -192 l 406 -192 q 544 -131 490 -192 q 597 25 597 -69 l 597 96 q 499 9 557 40 q 371 -22 440 -22 q 204 22 278 -22 q 89 146 131 67 q 47 326 47 225 q 88 505 47 426 q 202 628 129 583 q 368 672 275 672 q 498 641 439 672 q 597 553 557 610 l 597 650 l 692 650 m 368 64 q 487 97 435 64 q 568 190 539 131 q 597 325 597 250 q 568 460 597 400 q 487 553 539 519 q 368 586 435 586 q 251 553 303 586 q 171 460 200 519 q 142 326 142 401 q 171 190 142 250 q 251 97 200 131 q 368 64 303 64 z "},"ɣ":{"ha":551,"x_min":1,"x_max":551,"o":"m 276 -278 q 178 -241 214 -278 q 143 -140 143 -204 q 163 -37 143 -96 q 224 108 183 21 l 1 650 l 101 650 l 281 183 l 451 650 l 551 650 l 329 108 q 390 -35 369 24 q 410 -139 410 -93 q 374 -241 410 -204 q 276 -278 339 -278 m 276 -203 q 317 -186 303 -203 q 332 -139 332 -169 q 321 -87 332 -117 q 276 26 310 -57 q 233 -79 244 -46 q 221 -140 221 -112 q 235 -186 221 -169 q 276 -203 250 -203 z "},"ğ":{"ha":779,"x_min":47,"x_max":692,"o":"m 692 650 l 692 25 q 656 -131 692 -62 q 554 -239 619 -200 q 406 -278 489 -278 l 136 -278 l 136 -192 l 406 -192 q 544 -131 490 -192 q 597 25 597 -69 l 597 96 q 499 9 557 40 q 371 -22 440 -22 q 204 22 278 -22 q 89 146 131 67 q 47 326 47 225 q 88 505 47 426 q 202 628 129 583 q 368 672 275 672 q 498 641 439 672 q 597 553 557 610 l 597 650 l 692 650 m 368 64 q 487 97 435 64 q 568 190 539 131 q 597 325 597 250 q 568 460 597 400 q 487 553 539 519 q 368 586 435 586 q 251 553 303 586 q 171 460 200 519 q 142 326 142 401 q 171 190 142 250 q 251 97 200 131 q 368 64 303 64 m 349 778 q 213 826 264 778 q 160 969 161 874 l 217 969 q 256 889 222 915 q 349 863 290 863 q 441 889 407 863 q 481 969 475 915 l 538 969 q 485 826 536 874 q 349 778 433 778 z "},"ǧ":{"ha":779,"x_min":47,"x_max":692,"o":"m 692 650 l 692 25 q 656 -131 692 -62 q 554 -239 619 -200 q 406 -278 489 -278 l 136 -278 l 136 -192 l 406 -192 q 544 -131 490 -192 q 597 25 597 -69 l 597 96 q 499 9 557 40 q 371 -22 440 -22 q 204 22 278 -22 q 89 146 131 67 q 47 326 47 225 q 88 505 47 426 q 202 628 129 583 q 368 672 275 672 q 498 641 439 672 q 597 553 557 610 l 597 650 l 692 650 m 368 64 q 487 97 435 64 q 568 190 539 131 q 597 325 597 250 q 568 460 597 400 q 487 553 539 519 q 368 586 435 586 q 251 553 303 586 q 171 460 200 519 q 142 326 142 401 q 171 190 142 250 q 251 97 200 131 q 368 64 303 64 m 347 760 l 160 932 l 186 979 l 347 872 l 510 979 l 536 932 l 347 760 z "},"ĝ":{"ha":779,"x_min":47,"x_max":692,"o":"m 692 650 l 692 25 q 656 -131 692 -62 q 554 -239 619 -200 q 406 -278 489 -278 l 136 -278 l 136 -192 l 406 -192 q 544 -131 490 -192 q 597 25 597 -69 l 597 96 q 499 9 557 40 q 371 -22 440 -22 q 204 22 278 -22 q 89 146 131 67 q 47 326 47 225 q 88 505 47 426 q 202 628 129 583 q 368 672 275 672 q 498 641 439 672 q 597 553 557 610 l 597 650 l 692 650 m 368 64 q 487 97 435 64 q 568 190 539 131 q 597 325 597 250 q 568 460 597 400 q 487 553 539 519 q 368 586 435 586 q 251 553 303 586 q 171 460 200 519 q 142 326 142 401 q 171 190 142 250 q 251 97 200 131 q 368 64 303 64 m 186 788 l 160 835 l 347 1007 l 536 835 l 510 788 l 347 894 l 186 788 z "},"ģ":{"ha":779,"x_min":47,"x_max":692,"o":"m 692 650 l 692 25 q 656 -131 692 -62 q 554 -239 619 -200 q 406 -278 489 -278 l 136 -278 l 136 -192 l 406 -192 q 544 -131 490 -192 q 597 25 597 -69 l 597 96 q 499 9 557 40 q 371 -22 440 -22 q 204 22 278 -22 q 89 146 131 67 q 47 326 47 225 q 88 505 47 426 q 202 628 129 583 q 368 672 275 672 q 498 641 439 672 q 597 553 557 610 l 597 650 l 692 650 m 368 64 q 487 97 435 64 q 568 190 539 131 q 597 325 597 250 q 568 460 597 400 q 487 553 539 519 q 368 586 435 586 q 251 553 303 586 q 171 460 200 519 q 142 326 142 401 q 171 190 142 250 q 251 97 200 131 q 368 64 303 64 m 424 1067 q 346 928 346 1015 q 402 906 379 928 q 425 851 425 885 q 404 797 425 817 q 350 776 383 776 q 293 802 315 776 q 271 867 271 828 q 310 998 271 935 q 410 1093 349 1061 l 424 1067 z "},"ġ":{"ha":779,"x_min":47,"x_max":692,"o":"m 692 650 l 692 25 q 656 -131 692 -62 q 554 -239 619 -200 q 406 -278 489 -278 l 136 -278 l 136 -192 l 406 -192 q 544 -131 490 -192 q 597 25 597 -69 l 597 96 q 499 9 557 40 q 371 -22 440 -22 q 204 22 278 -22 q 89 146 131 67 q 47 326 47 225 q 88 505 47 426 q 202 628 129 583 q 368 672 275 672 q 498 641 439 672 q 597 553 557 610 l 597 650 l 692 650 m 368 64 q 487 97 435 64 q 568 190 539 131 q 597 325 597 250 q 568 460 597 400 q 487 553 539 519 q 368 586 435 586 q 251 553 303 586 q 171 460 200 519 q 142 326 142 401 q 171 190 142 250 q 251 97 200 131 q 368 64 303 64 m 349 776 q 295 799 317 776 q 274 853 274 821 q 295 905 274 883 q 349 926 317 926 q 401 905 379 926 q 424 851 424 883 q 401 799 424 821 q 349 776 379 776 z "},"ɠ":{"ha":815,"x_min":47,"x_max":843,"o":"m 843 650 l 843 564 l 801 564 q 721 535 750 564 q 692 453 692 506 l 692 25 q 656 -131 692 -62 q 554 -239 619 -200 q 406 -278 489 -278 l 136 -278 l 136 -192 l 406 -192 q 544 -131 490 -192 q 597 25 597 -69 l 597 96 q 499 9 557 40 q 371 -22 440 -22 q 204 22 278 -22 q 89 146 131 67 q 47 326 47 225 q 88 505 47 426 q 202 628 129 583 q 368 672 275 672 q 509 635 446 672 q 611 532 572 599 q 681 619 632 589 q 801 650 731 650 l 843 650 m 368 64 q 487 97 435 64 q 568 190 539 131 q 597 325 597 250 q 568 460 597 400 q 487 553 539 519 q 368 586 435 586 q 251 553 303 586 q 171 460 200 519 q 142 326 142 401 q 171 190 142 250 q 251 97 200 131 q 368 64 303 64 z "},"ʔ":{"ha":640,"x_min":40,"x_max":586,"o":"m 315 968 q 449 932 386 968 q 549 834 511 896 q 586 700 586 772 q 554 562 586 611 q 463 467 522 513 q 395 410 418 432 q 356 351 372 389 q 339 258 339 314 l 339 0 l 257 0 l 257 258 q 274 381 257 333 q 322 458 292 428 q 411 531 351 488 q 474 601 456 563 q 492 690 492 640 q 442 831 492 779 q 313 882 393 882 q 193 847 240 882 q 128 749 146 811 l 40 776 q 144 915 72 861 q 315 968 215 968 z "},"ʕ":{"ha":640,"x_min":54,"x_max":600,"o":"m 325 968 q 497 915 425 968 q 600 776 568 861 l 513 749 q 447 847 494 811 q 328 882 400 882 q 198 831 247 882 q 149 690 149 779 q 167 601 149 640 q 229 531 185 563 q 319 458 289 488 q 366 381 349 428 q 383 258 383 333 l 383 0 l 301 0 l 301 258 q 285 351 301 314 q 245 410 268 389 q 178 467 222 432 q 86 562 118 513 q 54 700 54 611 q 92 834 54 772 q 192 932 129 896 q 325 968 254 968 z "},"ɂ":{"ha":615,"x_min":42,"x_max":560,"o":"m 317 676 q 495 620 431 676 q 560 464 560 564 q 526 342 560 400 q 432 243 493 285 q 349 158 369 201 q 329 50 329 114 l 329 0 l 235 0 l 235 50 q 266 185 235 125 q 378 304 297 244 q 445 372 425 339 q 465 454 465 406 q 426 555 465 519 q 314 590 386 590 q 197 555 246 590 q 129 457 147 519 l 42 485 q 149 626 76 575 q 317 676 222 676 z "},"ȝ":{"ha":594,"x_min":35,"x_max":546,"o":"m 414 293 q 546 94 546 235 q 468 -88 546 -3 q 272 -224 390 -174 q 43 -275 154 -275 l 43 -171 q 224 -137 131 -171 q 380 -43 317 -104 q 443 99 443 18 q 353 243 443 204 q 171 149 269 183 l 171 232 q 358 351 299 294 q 417 474 417 407 q 386 557 417 526 q 297 588 356 588 q 182 557 238 588 q 96 472 126 526 l 35 524 q 307 675 146 675 q 456 620 403 675 q 508 479 508 565 q 414 293 508 381 z "},"h":{"ha":742,"x_min":88,"x_max":649,"o":"m 397 672 q 523 644 465 672 q 615 563 581 617 q 649 435 649 508 l 649 0 l 554 0 l 554 393 q 382 586 554 586 q 232 515 282 586 q 182 325 182 444 l 182 0 l 88 0 l 88 1008 l 182 1008 l 182 542 q 270 638 215 604 q 397 672 325 672 z "},"ħ":{"ha":742,"x_min":1,"x_max":649,"o":"m 397 672 q 523 644 465 672 q 615 563 581 617 q 649 435 649 508 l 649 0 l 554 0 l 554 393 q 382 586 554 586 q 232 515 282 586 q 182 325 182 444 l 182 0 l 88 0 l 88 792 l 1 792 l 1 858 l 88 858 l 88 1008 l 182 1008 l 182 858 l 365 858 l 365 792 l 182 792 l 182 542 q 270 638 215 604 q 397 672 325 672 z "},"ȟ":{"ha":742,"x_min":-49,"x_max":649,"o":"m 397 672 q 523 644 465 672 q 615 563 581 617 q 649 435 649 508 l 649 0 l 554 0 l 554 393 q 382 586 554 586 q 232 515 282 586 q 182 325 182 444 l 182 0 l 88 0 l 88 1008 l 182 1008 l 182 542 q 270 638 215 604 q 397 672 325 672 m 139 1117 l -49 1289 l -22 1336 l 139 1229 l 301 1336 l 328 1289 l 139 1117 z "},"ĥ":{"ha":742,"x_min":-76,"x_max":649,"o":"m 397 672 q 523 644 465 672 q 615 563 581 617 q 649 435 649 508 l 649 0 l 554 0 l 554 393 q 382 586 554 586 q 232 515 282 586 q 182 325 182 444 l 182 0 l 88 0 l 88 1008 l 182 1008 l 182 542 q 270 638 215 604 q 397 672 325 672 m -50 1083 l -76 1131 l 139 1275 l 356 1131 l 329 1083 l 139 1176 l -50 1083 z "},"ḧ":{"ha":742,"x_min":-71,"x_max":649,"o":"m 397 672 q 523 644 465 672 q 615 563 581 617 q 649 435 649 508 l 649 0 l 554 0 l 554 393 q 382 586 554 586 q 232 515 282 586 q 182 325 182 444 l 182 0 l 88 0 l 88 1008 l 182 1008 l 182 542 q 270 638 215 604 q 397 672 325 672 m 4 1133 q -49 1156 -28 1133 q -71 1210 -71 1178 q -49 1262 -71 1240 q 4 1283 -28 1283 q 58 1262 35 1283 q 81 1208 81 1240 q 58 1156 81 1178 q 4 1133 35 1133 m 276 1133 q 222 1156 244 1133 q 200 1210 200 1178 q 222 1262 200 1240 q 276 1283 244 1283 q 329 1262 307 1283 q 351 1208 351 1240 q 329 1156 351 1178 q 276 1133 307 1133 z "},"ḣ":{"ha":742,"x_min":88,"x_max":649,"o":"m 404 776 q 352 799 374 776 q 331 853 331 821 q 352 905 331 883 q 404 926 374 926 q 458 905 436 926 q 481 851 481 883 q 458 799 481 821 q 404 776 436 776 m 397 672 q 523 644 465 672 q 615 563 581 617 q 649 435 649 508 l 649 0 l 554 0 l 554 393 q 382 586 554 586 q 232 515 282 586 q 182 325 182 444 l 182 0 l 88 0 l 88 1008 l 182 1008 l 182 542 q 270 638 215 604 q 397 672 325 672 z "},"ḥ":{"ha":742,"x_min":88,"x_max":649,"o":"m 397 672 q 523 644 465 672 q 615 563 581 617 q 649 435 649 508 l 649 0 l 554 0 l 554 393 q 382 586 554 586 q 232 515 282 586 q 182 325 182 444 l 182 0 l 88 0 l 88 1008 l 182 1008 l 182 542 q 270 638 215 604 q 397 672 325 672 m 371 -254 q 317 -232 339 -254 q 296 -178 296 -210 q 317 -126 296 -147 q 371 -104 339 -104 q 424 -126 401 -104 q 446 -179 446 -147 q 424 -232 446 -210 q 371 -254 401 -254 z "},"ɦ":{"ha":744,"x_min":88,"x_max":647,"o":"m 396 672 q 522 644 464 672 q 613 563 579 617 q 647 435 647 508 l 647 0 l 553 0 l 553 393 q 381 586 553 586 q 239 526 289 586 q 182 364 189 467 l 182 0 l 88 0 l 88 825 q 142 975 88 921 q 292 1029 196 1029 l 333 1029 l 333 943 l 292 943 q 211 914 240 943 q 182 832 182 885 l 182 544 q 271 639 217 606 q 396 672 325 672 z "},"ẖ":{"ha":742,"x_min":88,"x_max":649,"o":"m 397 672 q 523 644 465 672 q 615 563 581 617 q 649 435 649 508 l 649 0 l 554 0 l 554 393 q 382 586 554 586 q 232 515 282 586 q 182 325 182 444 l 182 0 l 88 0 l 88 1008 l 182 1008 l 182 542 q 270 638 215 604 q 397 672 325 672 m 185 -158 l 185 -96 l 556 -96 l 556 -158 l 185 -158 z "},"ɥ":{"ha":746,"x_min":97,"x_max":658,"o":"m 658 650 l 658 -278 l 564 -278 l 564 108 q 476 12 531 46 q 349 -22 421 -22 q 223 6 281 -22 q 131 88 165 33 q 97 215 97 142 l 97 650 l 192 650 l 192 257 q 364 64 192 64 q 514 135 464 64 q 564 325 564 206 l 564 650 l 658 650 z "},"i":{"ha":372,"x_min":111,"x_max":261,"o":"m 139 0 l 139 650 l 233 650 l 233 0 l 139 0 m 186 776 q 133 799 154 776 q 111 853 111 821 q 133 905 111 883 q 186 926 154 926 q 239 905 217 926 q 261 851 261 883 q 239 799 261 821 q 186 776 217 776 z "},"ı":{"ha":372,"x_min":139,"x_max":233,"o":"m 139 0 l 139 650 l 233 650 l 233 0 l 139 0 z "},"í":{"ha":372,"x_min":122,"x_max":346,"o":"m 139 0 l 139 650 l 233 650 l 233 0 l 139 0 m 172 733 l 122 776 l 282 985 l 346 929 l 172 733 z "},"ĭ":{"ha":372,"x_min":25,"x_max":347,"o":"m 139 0 l 139 650 l 233 650 l 233 0 l 139 0 m 186 778 q 69 828 113 778 q 25 969 26 879 l 82 969 q 115 887 88 918 q 186 856 143 856 q 257 887 229 856 q 290 969 285 918 l 347 969 q 303 828 346 879 q 186 778 260 778 z "},"ǐ":{"ha":372,"x_min":25,"x_max":346,"o":"m 139 0 l 139 650 l 233 650 l 233 0 l 139 0 m 185 760 l 25 932 l 75 972 l 183 872 l 299 972 l 346 932 l 185 760 z "},"î":{"ha":372,"x_min":25,"x_max":346,"o":"m 139 0 l 139 650 l 233 650 l 233 0 l 139 0 m 186 1000 l 346 828 l 296 788 l 188 888 l 72 788 l 25 828 l 186 1000 z "},"ȉ":{"ha":372,"x_min":-89,"x_max":333,"o":"m 139 0 l 139 650 l 233 650 l 233 0 l 139 0 m 97 778 l -89 971 l -22 1038 l 136 815 l 97 778 m 294 778 l 108 971 l 175 1038 l 333 815 l 294 778 z "},"ï":{"ha":372,"x_min":10,"x_max":363,"o":"m 139 0 l 139 650 l 233 650 l 233 0 l 139 0 m 78 783 q 29 803 49 783 q 10 853 10 824 q 29 900 10 881 q 78 919 49 919 q 126 900 106 919 q 147 851 147 881 q 126 804 147 825 q 78 783 106 783 m 294 783 q 245 803 265 783 q 225 853 225 824 q 245 900 225 881 q 294 919 265 919 q 342 900 322 919 q 363 851 363 881 q 342 804 363 825 q 294 783 321 783 z "},"ḯ":{"ha":372,"x_min":10,"x_max":363,"o":"m 139 0 l 139 650 l 233 650 l 233 0 l 139 0 m 78 783 q 29 803 49 783 q 10 853 10 824 q 29 900 10 881 q 78 919 49 919 q 126 900 106 919 q 147 851 147 881 q 126 804 147 825 q 78 783 106 783 m 294 783 q 245 803 265 783 q 225 853 225 824 q 245 900 225 881 q 294 919 265 919 q 342 900 322 919 q 363 851 363 881 q 342 804 363 825 q 294 783 321 783 m 172 926 l 122 969 l 282 1178 l 346 1122 l 172 926 z "},"ị":{"ha":372,"x_min":111,"x_max":261,"o":"m 139 0 l 139 650 l 233 650 l 233 0 l 139 0 m 186 776 q 133 799 154 776 q 111 853 111 821 q 133 905 111 883 q 186 926 154 926 q 239 905 217 926 q 261 851 261 883 q 239 799 261 821 q 186 776 217 776 m 186 -254 q 133 -232 154 -254 q 111 -178 111 -210 q 133 -126 111 -147 q 186 -104 154 -104 q 239 -126 217 -104 q 261 -179 261 -147 q 239 -232 261 -210 q 186 -254 217 -254 z "},"ì":{"ha":372,"x_min":1,"x_max":233,"o":"m 139 0 l 139 650 l 233 650 l 233 0 l 139 0 m 175 733 l 1 929 l 65 985 l 225 776 l 175 733 z "},"ȋ":{"ha":372,"x_min":25,"x_max":347,"o":"m 139 0 l 139 650 l 233 650 l 233 0 l 139 0 m 186 969 q 303 919 260 969 q 347 778 346 868 l 290 778 q 257 860 285 829 q 186 892 229 892 q 115 860 143 892 q 82 778 88 829 l 25 778 q 69 919 26 868 q 186 969 113 969 z "},"ī":{"ha":372,"x_min":49,"x_max":322,"o":"m 139 0 l 139 650 l 233 650 l 233 0 l 139 0 m 49 814 l 49 876 l 322 876 l 322 814 l 49 814 z "},"į":{"ha":372,"x_min":18,"x_max":278,"o":"m 186 776 q 133 799 154 776 q 111 853 111 821 q 133 905 111 883 q 186 926 154 926 q 239 905 217 926 q 261 851 261 883 q 239 799 261 821 q 186 776 217 776 m 278 -271 q 149 -310 207 -310 q 72 -287 104 -310 q 25 -222 39 -264 q 18 -176 18 -203 q 58 -74 18 -121 q 164 0 99 -26 l 139 0 l 139 650 l 233 650 l 233 0 l 231 0 q 149 -62 182 -22 q 115 -151 115 -101 q 126 -206 115 -175 q 155 -244 136 -231 q 200 -257 174 -257 q 261 -240 228 -257 l 278 -271 z "},"ɩ":{"ha":318,"x_min":82,"x_max":301,"o":"m 301 0 q 144 54 206 0 q 82 206 82 108 l 82 650 l 176 650 l 176 206 q 301 94 176 94 l 301 0 z "},"ɨ":{"ha":372,"x_min":14,"x_max":358,"o":"m 186 776 q 133 799 154 776 q 111 853 111 821 q 133 905 111 883 q 186 926 154 926 q 239 905 217 926 q 261 851 261 883 q 239 799 261 821 q 186 776 217 776 m 358 386 l 358 328 l 233 328 l 233 0 l 139 0 l 139 328 l 14 328 l 14 386 l 139 386 l 139 650 l 233 650 l 233 386 l 358 386 z "},"ĩ":{"ha":372,"x_min":3,"x_max":368,"o":"m 139 0 l 139 650 l 233 650 l 233 0 l 139 0 m 3 790 q 40 897 10 858 q 118 936 71 936 q 159 927 142 936 q 200 901 176 918 q 234 879 219 886 q 265 872 249 872 q 301 888 288 872 q 318 929 315 903 l 368 929 q 331 822 361 861 q 256 783 300 783 q 224 791 239 783 q 189 813 208 799 q 149 836 165 828 q 113 844 133 844 q 74 831 90 844 q 51 790 57 817 l 3 790 z "},"ḭ":{"ha":372,"x_min":3,"x_max":368,"o":"m 139 0 l 139 650 l 233 650 l 233 0 l 139 0 m 186 776 q 133 799 154 776 q 111 853 111 821 q 133 905 111 883 q 186 926 154 926 q 239 905 217 926 q 261 851 261 883 q 239 799 261 821 q 186 776 217 776 m 3 -274 q 40 -167 10 -206 q 118 -128 71 -128 q 159 -137 142 -128 q 200 -162 176 -146 q 234 -185 219 -178 q 265 -192 249 -192 q 301 -176 288 -192 q 318 -135 315 -161 l 368 -135 q 331 -242 361 -203 q 256 -281 300 -281 q 224 -273 239 -281 q 189 -251 208 -265 q 149 -228 165 -236 q 113 -219 133 -219 q 74 -233 90 -219 q 51 -274 57 -247 l 3 -274 z "},"j":{"ha":268,"x_min":-62,"x_max":210,"o":"m -62 -192 l -24 -192 q 56 -158 25 -192 q 88 -72 88 -125 l 88 650 l 182 650 l 182 -72 q 124 -220 182 -162 q -24 -278 67 -278 l -62 -278 l -62 -192 m 135 776 q 81 799 103 776 q 60 853 60 821 q 81 905 60 883 q 135 926 103 926 q 188 905 165 926 q 210 851 210 883 q 188 799 210 821 q 135 776 165 776 z "},"ȷ":{"ha":268,"x_min":-62,"x_max":182,"o":"m -62 -192 l -24 -192 q 56 -158 25 -192 q 88 -72 88 -125 l 88 650 l 182 650 l 182 -72 q 124 -220 182 -162 q -24 -278 67 -278 l -62 -278 l -62 -192 z "},"ǰ":{"ha":268,"x_min":-62,"x_max":322,"o":"m -62 -192 l -24 -192 q 56 -158 25 -192 q 88 -72 88 -125 l 88 650 l 182 650 l 182 -72 q 124 -220 182 -162 q -24 -278 67 -278 l -62 -278 l -62 -192 m 133 760 l -54 932 l -28 979 l 133 872 l 296 979 l 322 932 l 133 760 z "},"ĵ":{"ha":268,"x_min":-62,"x_max":322,"o":"m -62 -192 l -24 -192 q 56 -158 25 -192 q 88 -72 88 -125 l 88 650 l 182 650 l 182 -72 q 124 -220 182 -162 q -24 -278 67 -278 l -62 -278 l -62 -192 m -28 788 l -54 835 l 133 1007 l 322 835 l 296 788 l 133 894 l -28 788 z "},"ɉ":{"ha":339,"x_min":-24,"x_max":313,"o":"m 174 776 q 120 799 142 776 q 99 853 99 821 q 120 905 99 883 q 174 926 142 926 q 226 905 204 926 q 249 851 249 883 q 226 799 249 821 q 174 776 204 776 m 313 328 l 221 328 l 221 -72 q 163 -220 221 -162 q 15 -278 106 -278 l -24 -278 l -24 -192 l 15 -192 q 95 -158 64 -192 q 126 -72 126 -125 l 126 328 l 35 328 l 35 386 l 126 386 l 126 650 l 221 650 l 221 386 l 313 386 l 313 328 z "},"k":{"ha":606,"x_min":88,"x_max":594,"o":"m 489 0 l 261 335 l 182 258 l 182 0 l 88 0 l 88 1008 l 182 1008 l 182 378 l 467 650 l 589 650 l 326 397 l 594 0 l 489 0 z "},"ķ":{"ha":606,"x_min":88,"x_max":594,"o":"m 489 0 l 261 335 l 182 258 l 182 0 l 88 0 l 88 1008 l 182 1008 l 182 378 l 467 650 l 589 650 l 326 397 l 594 0 l 489 0 m 226 -344 q 304 -206 304 -293 q 248 -184 271 -206 q 225 -129 225 -162 q 246 -74 225 -94 q 300 -54 267 -54 q 357 -80 335 -54 q 379 -144 379 -106 q 340 -276 379 -212 q 240 -371 301 -339 l 226 -344 z "},"ĸ":{"ha":643,"x_min":88,"x_max":594,"o":"m 489 0 l 261 335 l 182 258 l 182 0 l 88 0 l 88 650 l 182 650 l 182 378 l 467 650 l 589 650 l 326 397 l 594 0 l 489 0 z "},"ƙ":{"ha":604,"x_min":86,"x_max":593,"o":"m 260 335 l 181 258 l 181 0 l 86 0 l 86 825 q 140 975 86 921 q 290 1029 194 1029 l 332 1029 l 332 943 l 290 943 q 210 914 239 943 q 181 832 181 885 l 181 378 l 465 650 l 588 650 l 325 397 l 593 0 l 488 0 l 260 335 z "},"ḵ":{"ha":606,"x_min":88,"x_max":594,"o":"m 489 0 l 261 335 l 182 258 l 182 0 l 88 0 l 88 1008 l 182 1008 l 182 378 l 467 650 l 589 650 l 326 397 l 594 0 l 489 0 m 117 -158 l 117 -96 l 488 -96 l 488 -158 l 117 -158 z "},"l":{"ha":282,"x_min":94,"x_max":189,"o":"m 94 0 l 94 1008 l 189 1008 l 189 0 l 94 0 z "},"ĺ":{"ha":282,"x_min":-32,"x_max":315,"o":"m 94 0 l 94 1008 l 189 1008 l 189 0 l 94 0 m -4 1068 l -32 1115 l 268 1269 l 315 1189 l -4 1068 z "},"ƛ":{"ha":635,"x_min":3,"x_max":633,"o":"m 3 0 l 267 651 l 229 746 l 108 689 l 72 767 l 197 825 l 149 947 l 249 947 l 282 864 l 392 915 l 428 838 l 314 785 l 633 0 l 531 0 l 317 533 l 100 0 l 3 0 z "},"ɬ":{"ha":499,"x_min":14,"x_max":465,"o":"m 465 536 q 415 379 465 449 q 288 286 364 310 l 288 0 l 193 0 l 193 278 q 60 331 107 285 q 14 453 14 376 q 44 535 14 500 q 126 569 74 569 q 165 562 149 569 q 193 535 182 554 l 193 1008 l 288 1008 l 288 339 q 380 413 344 360 q 415 536 415 465 l 465 536 m 64 453 q 98 369 64 403 q 193 328 132 335 l 193 426 q 175 493 193 467 q 122 519 157 519 q 81 502 97 519 q 64 453 64 485 z "},"ľ":{"ha":421,"x_min":94,"x_max":435,"o":"m 94 0 l 94 1008 l 189 1008 l 189 0 l 94 0 m 269 735 q 331 874 331 803 q 314 947 331 911 q 307 979 307 961 q 320 1012 307 1000 q 357 1024 333 1024 q 435 932 435 1024 q 397 810 435 876 q 300 703 358 743 l 269 735 z "},"ḽ":{"ha":282,"x_min":-47,"x_max":329,"o":"m 94 0 l 94 1008 l 189 1008 l 189 0 l 94 0 m -21 -299 l -47 -251 l 140 -79 l 329 -251 l 303 -299 l 140 -192 l -21 -299 z "},"ļ":{"ha":282,"x_min":64,"x_max":218,"o":"m 94 0 l 94 1008 l 189 1008 l 189 0 l 94 0 m 65 -344 q 143 -206 143 -293 q 87 -184 110 -206 q 64 -129 64 -162 q 85 -74 64 -94 q 139 -54 106 -54 q 196 -80 174 -54 q 218 -144 218 -106 q 179 -276 218 -212 q 79 -371 140 -339 l 65 -344 z "},"ŀ":{"ha":399,"x_min":94,"x_max":413,"o":"m 94 0 l 94 1008 l 189 1008 l 189 0 l 94 0 m 338 410 q 285 432 307 410 q 263 486 263 454 q 285 539 263 517 q 338 561 307 561 q 391 539 369 561 q 413 485 413 517 q 391 432 413 454 q 338 410 369 410 z "},"ḷ":{"ha":282,"x_min":67,"x_max":217,"o":"m 94 0 l 94 1008 l 189 1008 l 189 0 l 94 0 m 142 -254 q 88 -232 110 -254 q 67 -178 67 -210 q 88 -126 67 -147 q 142 -104 110 -104 q 194 -126 172 -104 q 217 -179 217 -147 q 194 -232 217 -210 q 142 -254 172 -254 z "},"ḻ":{"ha":282,"x_min":-44,"x_max":326,"o":"m 94 0 l 94 1008 l 189 1008 l 189 0 l 94 0 m -44 -158 l -44 -96 l 326 -96 l 326 -158 l -44 -158 z "},"ł":{"ha":282,"x_min":-32,"x_max":336,"o":"m 336 488 l 189 385 l 189 0 l 94 0 l 94 318 l 6 256 l -32 313 l 94 401 l 94 1008 l 189 1008 l 189 468 l 299 544 l 336 488 z "},"m":{"ha":1069,"x_min":88,"x_max":989,"o":"m 779 672 q 929 609 869 672 q 989 435 989 546 l 989 0 l 894 0 l 894 393 q 856 541 894 496 q 754 586 817 586 q 635 527 678 586 q 586 367 593 468 l 586 0 l 492 0 l 492 393 q 453 541 492 496 q 351 586 414 586 q 224 515 267 586 q 182 325 182 444 l 182 0 l 88 0 l 88 650 l 182 650 l 182 549 q 263 640 214 608 q 376 672 313 672 q 500 634 447 672 q 574 525 553 596 q 657 633 604 594 q 779 672 710 672 z "},"ḿ":{"ha":1069,"x_min":88,"x_max":989,"o":"m 779 672 q 929 609 869 672 q 989 435 989 546 l 989 0 l 894 0 l 894 393 q 856 541 894 496 q 754 586 817 586 q 635 527 678 586 q 586 367 593 468 l 586 0 l 492 0 l 492 393 q 453 541 492 496 q 351 586 414 586 q 224 515 267 586 q 182 325 182 444 l 182 0 l 88 0 l 88 650 l 182 650 l 182 549 q 263 640 214 608 q 376 672 313 672 q 500 634 447 672 q 574 525 553 596 q 657 633 604 594 q 779 672 710 672 m 504 746 l 476 793 l 735 947 l 782 867 l 504 746 z "},"ṃ":{"ha":1069,"x_min":88,"x_max":989,"o":"m 779 672 q 929 609 869 672 q 989 435 989 546 l 989 0 l 894 0 l 894 393 q 856 541 894 496 q 754 586 817 586 q 635 527 678 586 q 586 367 593 468 l 586 0 l 492 0 l 492 393 q 453 541 492 496 q 351 586 414 586 q 224 515 267 586 q 182 325 182 444 l 182 0 l 88 0 l 88 650 l 182 650 l 182 549 q 263 640 214 608 q 376 672 313 672 q 500 634 447 672 q 574 525 553 596 q 657 633 604 594 q 779 672 710 672 m 535 -254 q 481 -232 503 -254 q 460 -178 460 -210 q 481 -126 460 -147 q 535 -104 503 -104 q 588 -126 565 -104 q 610 -179 610 -147 q 588 -232 610 -210 q 535 -254 565 -254 z "},"n":{"ha":746,"x_min":88,"x_max":649,"o":"m 397 672 q 523 644 465 672 q 615 563 581 617 q 649 435 649 508 l 649 0 l 554 0 l 554 393 q 382 586 554 586 q 232 515 282 586 q 182 325 182 444 l 182 0 l 88 0 l 88 650 l 182 650 l 182 542 q 270 638 215 604 q 397 672 325 672 z "},"ń":{"ha":746,"x_min":88,"x_max":649,"o":"m 397 672 q 523 644 465 672 q 615 563 581 617 q 649 435 649 508 l 649 0 l 554 0 l 554 393 q 382 586 554 586 q 232 515 282 586 q 182 325 182 444 l 182 0 l 88 0 l 88 650 l 182 650 l 182 542 q 270 638 215 604 q 397 672 325 672 m 325 746 l 297 793 l 556 947 l 603 867 l 325 746 z "},"ň":{"ha":746,"x_min":88,"x_max":649,"o":"m 397 672 q 523 644 465 672 q 615 563 581 617 q 649 435 649 508 l 649 0 l 554 0 l 554 393 q 382 586 554 586 q 232 515 282 586 q 182 325 182 444 l 182 0 l 88 0 l 88 650 l 182 650 l 182 542 q 270 638 215 604 q 397 672 325 672 m 386 760 l 199 932 l 225 979 l 386 872 l 549 979 l 575 932 l 386 760 z "},"ṋ":{"ha":746,"x_min":88,"x_max":649,"o":"m 397 672 q 523 644 465 672 q 615 563 581 617 q 649 435 649 508 l 649 0 l 554 0 l 554 393 q 382 586 554 586 q 232 515 282 586 q 182 325 182 444 l 182 0 l 88 0 l 88 650 l 182 650 l 182 542 q 270 638 215 604 q 397 672 325 672 m 211 -299 l 185 -251 l 372 -79 l 561 -251 l 535 -299 l 372 -192 l 211 -299 z "},"ņ":{"ha":746,"x_min":88,"x_max":649,"o":"m 397 672 q 523 644 465 672 q 615 563 581 617 q 649 435 649 508 l 649 0 l 554 0 l 554 393 q 382 586 554 586 q 232 515 282 586 q 182 325 182 444 l 182 0 l 88 0 l 88 650 l 182 650 l 182 542 q 270 638 215 604 q 397 672 325 672 m 297 -344 q 375 -206 375 -293 q 319 -184 342 -206 q 296 -129 296 -162 q 317 -74 296 -94 q 371 -54 338 -54 q 428 -80 406 -54 q 450 -144 450 -106 q 411 -276 450 -212 q 311 -371 372 -339 l 297 -344 z "},"ṅ":{"ha":746,"x_min":88,"x_max":649,"o":"m 397 672 q 523 644 465 672 q 615 563 581 617 q 649 435 649 508 l 649 0 l 554 0 l 554 393 q 382 586 554 586 q 232 515 282 586 q 182 325 182 444 l 182 0 l 88 0 l 88 650 l 182 650 l 182 542 q 270 638 215 604 q 397 672 325 672 m 388 776 q 334 799 356 776 q 313 853 313 821 q 334 905 313 883 q 388 926 356 926 q 440 905 418 926 q 463 851 463 883 q 440 799 463 821 q 388 776 418 776 z "},"ṇ":{"ha":746,"x_min":88,"x_max":649,"o":"m 397 672 q 523 644 465 672 q 615 563 581 617 q 649 435 649 508 l 649 0 l 554 0 l 554 393 q 382 586 554 586 q 232 515 282 586 q 182 325 182 444 l 182 0 l 88 0 l 88 650 l 182 650 l 182 542 q 270 638 215 604 q 397 672 325 672 m 374 -254 q 320 -232 342 -254 q 299 -178 299 -210 q 320 -126 299 -147 q 374 -104 342 -104 q 426 -126 404 -104 q 449 -179 449 -147 q 426 -232 449 -210 q 374 -254 404 -254 z "},"ǹ":{"ha":746,"x_min":88,"x_max":649,"o":"m 397 672 q 523 644 465 672 q 615 563 581 617 q 649 435 649 508 l 649 0 l 554 0 l 554 393 q 382 586 554 586 q 232 515 282 586 q 182 325 182 444 l 182 0 l 88 0 l 88 650 l 182 650 l 182 542 q 270 638 215 604 q 397 672 325 672 m 492 746 l 214 867 l 261 947 l 519 793 l 492 746 z "},"ŋ":{"ha":746,"x_min":88,"x_max":649,"o":"m 274 -192 l 363 -192 q 501 -131 447 -192 q 554 25 554 -69 l 554 393 q 382 586 554 586 q 232 515 282 586 q 182 325 182 444 l 182 0 l 88 0 l 88 650 l 182 650 l 182 542 q 270 638 215 604 q 397 672 325 672 q 523 644 465 672 q 615 563 581 617 q 649 435 649 508 l 649 25 q 613 -131 649 -62 q 511 -239 576 -200 q 363 -278 446 -278 l 274 -278 l 274 -192 z "},"ɲ":{"ha":742,"x_min":-60,"x_max":649,"o":"m 397 672 q 523 644 465 672 q 615 563 581 617 q 649 435 649 508 l 649 0 l 554 0 l 554 393 q 382 586 554 586 q 232 515 282 586 q 182 325 182 444 l 182 -29 q 128 -181 182 -126 q -24 -236 74 -236 l -60 -236 l -60 -149 l -24 -149 q 58 -117 29 -149 q 88 -29 88 -85 l 88 650 l 182 650 l 182 542 q 270 638 215 604 q 397 672 325 672 z "},"ƞ":{"ha":742,"x_min":88,"x_max":649,"o":"m 397 672 q 523 644 465 672 q 615 563 581 617 q 649 435 649 508 l 649 -278 l 554 -278 l 554 393 q 382 586 554 586 q 232 515 282 586 q 182 325 182 444 l 182 0 l 88 0 l 88 650 l 182 650 l 182 542 q 270 638 215 604 q 397 672 325 672 z "},"ṉ":{"ha":746,"x_min":88,"x_max":649,"o":"m 397 672 q 523 644 465 672 q 615 563 581 617 q 649 435 649 508 l 649 0 l 554 0 l 554 393 q 382 586 554 586 q 232 515 282 586 q 182 325 182 444 l 182 0 l 88 0 l 88 650 l 182 650 l 182 542 q 270 638 215 604 q 397 672 325 672 m 188 -158 l 188 -96 l 558 -96 l 558 -158 l 188 -158 z "},"ñ":{"ha":746,"x_min":88,"x_max":649,"o":"m 397 672 q 523 644 465 672 q 615 563 581 617 q 649 435 649 508 l 649 0 l 554 0 l 554 393 q 382 586 554 586 q 232 515 282 586 q 182 325 182 444 l 182 0 l 88 0 l 88 650 l 182 650 l 182 542 q 270 638 215 604 q 397 672 325 672 m 149 769 q 197 894 156 838 q 299 950 238 950 q 350 938 328 950 q 404 901 372 926 q 451 869 432 879 q 492 858 469 858 q 540 885 521 858 q 561 950 558 911 l 625 950 q 580 824 618 878 q 478 769 542 769 q 428 781 447 769 q 382 815 408 792 q 338 848 357 838 q 292 858 319 858 q 237 837 256 858 q 211 769 218 815 l 149 769 z "},"o":{"ha":738,"x_min":47,"x_max":692,"o":"m 371 -22 q 204 22 278 -22 q 89 147 131 67 q 47 326 47 226 q 88 505 47 426 q 202 628 129 583 q 368 672 275 672 q 535 628 461 672 q 650 504 608 583 q 692 325 692 425 q 651 146 692 225 q 537 22 610 67 q 371 -22 464 -22 m 368 64 q 487 97 435 64 q 568 190 539 131 q 597 325 597 250 q 568 460 597 400 q 487 553 539 519 q 368 586 435 586 q 251 553 303 586 q 171 460 200 519 q 142 326 142 401 q 171 190 142 250 q 251 97 200 131 q 368 64 303 64 z "},"ó":{"ha":738,"x_min":47,"x_max":692,"o":"m 371 -22 q 204 22 278 -22 q 89 147 131 67 q 47 326 47 226 q 88 505 47 426 q 202 628 129 583 q 368 672 275 672 q 535 628 461 672 q 650 504 608 583 q 692 325 692 425 q 651 146 692 225 q 537 22 610 67 q 371 -22 464 -22 m 368 64 q 487 97 435 64 q 568 190 539 131 q 597 325 597 250 q 568 460 597 400 q 487 553 539 519 q 368 586 435 586 q 251 553 303 586 q 171 460 200 519 q 142 326 142 401 q 171 190 142 250 q 251 97 200 131 q 368 64 303 64 m 307 746 l 279 793 l 538 947 l 585 867 l 307 746 z "},"ɵ":{"ha":738,"x_min":47,"x_max":692,"o":"m 368 672 q 535 628 461 672 q 650 504 608 583 q 692 325 692 425 q 651 146 692 225 q 537 22 610 67 q 371 -22 464 -22 q 204 22 278 -22 q 89 147 131 67 q 47 326 47 226 q 88 505 47 426 q 202 628 129 583 q 368 672 275 672 m 368 586 q 215 524 276 586 q 143 358 153 461 l 596 358 q 524 523 586 460 q 368 586 461 586 m 368 64 q 524 127 461 64 q 596 292 586 190 l 143 292 q 215 126 154 189 q 368 64 276 64 z "},"ŏ":{"ha":738,"x_min":47,"x_max":692,"o":"m 371 -22 q 204 22 278 -22 q 89 147 131 67 q 47 326 47 226 q 88 505 47 426 q 202 628 129 583 q 368 672 275 672 q 535 628 461 672 q 650 504 608 583 q 692 325 692 425 q 651 146 692 225 q 537 22 610 67 q 371 -22 464 -22 m 368 64 q 487 97 435 64 q 568 190 539 131 q 597 325 597 250 q 568 460 597 400 q 487 553 539 519 q 368 586 435 586 q 251 553 303 586 q 171 460 200 519 q 142 326 142 401 q 171 190 142 250 q 251 97 200 131 q 368 64 303 64 m 369 778 q 233 826 285 778 q 181 969 182 874 l 238 969 q 277 889 243 915 q 369 863 311 863 q 462 889 428 863 q 501 969 496 915 l 558 969 q 506 826 557 874 q 369 778 454 778 z "},"ǒ":{"ha":738,"x_min":47,"x_max":692,"o":"m 371 -22 q 204 22 278 -22 q 89 147 131 67 q 47 326 47 226 q 88 505 47 426 q 202 628 129 583 q 368 672 275 672 q 535 628 461 672 q 650 504 608 583 q 692 325 692 425 q 651 146 692 225 q 537 22 610 67 q 371 -22 464 -22 m 368 64 q 487 97 435 64 q 568 190 539 131 q 597 325 597 250 q 568 460 597 400 q 487 553 539 519 q 368 586 435 586 q 251 553 303 586 q 171 460 200 519 q 142 326 142 401 q 171 190 142 250 q 251 97 200 131 q 368 64 303 64 m 368 760 l 181 932 l 207 979 l 368 872 l 531 979 l 557 932 l 368 760 z "},"ô":{"ha":738,"x_min":47,"x_max":692,"o":"m 371 -22 q 204 22 278 -22 q 89 147 131 67 q 47 326 47 226 q 88 505 47 426 q 202 628 129 583 q 368 672 275 672 q 535 628 461 672 q 650 504 608 583 q 692 325 692 425 q 651 146 692 225 q 537 22 610 67 q 371 -22 464 -22 m 368 64 q 487 97 435 64 q 568 190 539 131 q 597 325 597 250 q 568 460 597 400 q 487 553 539 519 q 368 586 435 586 q 251 553 303 586 q 171 460 200 519 q 142 326 142 401 q 171 190 142 250 q 251 97 200 131 q 368 64 303 64 m 207 788 l 181 835 l 368 1007 l 557 835 l 531 788 l 368 894 l 207 788 z "},"ộ":{"ha":738,"x_min":47,"x_max":692,"o":"m 371 -22 q 204 22 278 -22 q 89 147 131 67 q 47 326 47 226 q 88 505 47 426 q 202 628 129 583 q 368 672 275 672 q 535 628 461 672 q 650 504 608 583 q 692 325 692 425 q 651 146 692 225 q 537 22 610 67 q 371 -22 464 -22 m 368 64 q 487 97 435 64 q 568 190 539 131 q 597 325 597 250 q 568 460 597 400 q 487 553 539 519 q 368 586 435 586 q 251 553 303 586 q 171 460 200 519 q 142 326 142 401 q 171 190 142 250 q 251 97 200 131 q 368 64 303 64 m 207 788 l 181 835 l 368 1007 l 557 835 l 531 788 l 368 894 l 207 788 m 369 -254 q 316 -232 338 -254 q 294 -178 294 -210 q 316 -126 294 -147 q 369 -104 338 -104 q 422 -126 400 -104 q 444 -179 444 -147 q 422 -232 444 -210 q 369 -254 400 -254 z "},"ȍ":{"ha":738,"x_min":47,"x_max":692,"o":"m 371 -22 q 204 22 278 -22 q 89 147 131 67 q 47 326 47 226 q 88 505 47 426 q 202 628 129 583 q 368 672 275 672 q 535 628 461 672 q 650 504 608 583 q 692 325 692 425 q 651 146 692 225 q 537 22 610 67 q 371 -22 464 -22 m 368 64 q 487 97 435 64 q 568 190 539 131 q 597 325 597 250 q 568 460 597 400 q 487 553 539 519 q 368 586 435 586 q 251 553 303 586 q 171 460 200 519 q 142 326 142 401 q 171 190 142 250 q 251 97 200 131 q 368 64 303 64 m 281 778 l 94 971 l 161 1038 l 319 815 l 281 778 m 478 778 l 292 971 l 358 1038 l 517 815 l 478 778 z "},"ö":{"ha":738,"x_min":47,"x_max":692,"o":"m 371 -22 q 204 22 278 -22 q 89 147 131 67 q 47 326 47 226 q 88 505 47 426 q 202 628 129 583 q 368 672 275 672 q 535 628 461 672 q 650 504 608 583 q 692 325 692 425 q 651 146 692 225 q 537 22 610 67 q 371 -22 464 -22 m 368 64 q 487 97 435 64 q 568 190 539 131 q 597 325 597 250 q 568 460 597 400 q 487 553 539 519 q 368 586 435 586 q 251 553 303 586 q 171 460 200 519 q 142 326 142 401 q 171 190 142 250 q 251 97 200 131 q 368 64 303 64 m 233 776 q 180 799 201 776 q 158 853 158 821 q 180 905 158 883 q 233 926 201 926 q 287 905 264 926 q 310 851 310 883 q 287 799 310 821 q 233 776 264 776 m 506 776 q 451 799 474 776 q 429 853 429 821 q 451 905 429 883 q 506 926 474 926 q 558 905 536 926 q 581 851 581 883 q 558 799 581 821 q 506 776 536 776 z "},"ȫ":{"ha":738,"x_min":47,"x_max":692,"o":"m 371 -22 q 204 22 278 -22 q 89 147 131 67 q 47 326 47 226 q 88 505 47 426 q 202 628 129 583 q 368 672 275 672 q 535 628 461 672 q 650 504 608 583 q 692 325 692 425 q 651 146 692 225 q 537 22 610 67 q 371 -22 464 -22 m 368 64 q 487 97 435 64 q 568 190 539 131 q 597 325 597 250 q 568 460 597 400 q 487 553 539 519 q 368 586 435 586 q 251 553 303 586 q 171 460 200 519 q 142 326 142 401 q 171 190 142 250 q 251 97 200 131 q 368 64 303 64 m 233 776 q 180 799 201 776 q 158 853 158 821 q 180 905 158 883 q 233 926 201 926 q 287 905 264 926 q 310 851 310 883 q 287 799 310 821 q 233 776 264 776 m 506 776 q 451 799 474 776 q 429 853 429 821 q 451 905 429 883 q 506 926 474 926 q 558 905 536 926 q 581 851 581 883 q 558 799 581 821 q 506 776 536 776 m 183 1007 l 183 1069 l 554 1069 l 554 1007 l 183 1007 z "},"ȯ":{"ha":738,"x_min":47,"x_max":692,"o":"m 371 -22 q 204 22 278 -22 q 89 147 131 67 q 47 326 47 226 q 88 505 47 426 q 202 628 129 583 q 368 672 275 672 q 535 628 461 672 q 650 504 608 583 q 692 325 692 425 q 651 146 692 225 q 537 22 610 67 q 371 -22 464 -22 m 368 64 q 487 97 435 64 q 568 190 539 131 q 597 325 597 250 q 568 460 597 400 q 487 553 539 519 q 368 586 435 586 q 251 553 303 586 q 171 460 200 519 q 142 326 142 401 q 171 190 142 250 q 251 97 200 131 q 368 64 303 64 m 369 776 q 316 799 338 776 q 294 853 294 821 q 316 905 294 883 q 369 926 338 926 q 422 905 400 926 q 444 851 444 883 q 422 799 444 821 q 369 776 400 776 z "},"ȱ":{"ha":738,"x_min":47,"x_max":692,"o":"m 371 -22 q 204 22 278 -22 q 89 147 131 67 q 47 326 47 226 q 88 505 47 426 q 202 628 129 583 q 368 672 275 672 q 535 628 461 672 q 650 504 608 583 q 692 325 692 425 q 651 146 692 225 q 537 22 610 67 q 371 -22 464 -22 m 368 64 q 487 97 435 64 q 568 190 539 131 q 597 325 597 250 q 568 460 597 400 q 487 553 539 519 q 368 586 435 586 q 251 553 303 586 q 171 460 200 519 q 142 326 142 401 q 171 190 142 250 q 251 97 200 131 q 368 64 303 64 m 369 776 q 316 799 338 776 q 294 853 294 821 q 316 905 294 883 q 369 926 338 926 q 422 905 400 926 q 444 851 444 883 q 422 799 444 821 q 369 776 400 776 m 183 993 l 183 1056 l 554 1056 l 554 993 l 183 993 z "},"ọ":{"ha":738,"x_min":47,"x_max":692,"o":"m 371 -22 q 204 22 278 -22 q 89 147 131 67 q 47 326 47 226 q 88 505 47 426 q 202 628 129 583 q 368 672 275 672 q 535 628 461 672 q 650 504 608 583 q 692 325 692 425 q 651 146 692 225 q 537 22 610 67 q 371 -22 464 -22 m 368 64 q 487 97 435 64 q 568 190 539 131 q 597 325 597 250 q 568 460 597 400 q 487 553 539 519 q 368 586 435 586 q 251 553 303 586 q 171 460 200 519 q 142 326 142 401 q 171 190 142 250 q 251 97 200 131 q 368 64 303 64 m 369 -254 q 316 -232 338 -254 q 294 -178 294 -210 q 316 -126 294 -147 q 369 -104 338 -104 q 422 -126 400 -104 q 444 -179 444 -147 q 422 -232 444 -210 q 369 -254 400 -254 z "},"ò":{"ha":738,"x_min":47,"x_max":692,"o":"m 371 -22 q 204 22 278 -22 q 89 147 131 67 q 47 326 47 226 q 88 505 47 426 q 202 628 129 583 q 368 672 275 672 q 535 628 461 672 q 650 504 608 583 q 692 325 692 425 q 651 146 692 225 q 537 22 610 67 q 371 -22 464 -22 m 368 64 q 487 97 435 64 q 568 190 539 131 q 597 325 597 250 q 568 460 597 400 q 487 553 539 519 q 368 586 435 586 q 251 553 303 586 q 171 460 200 519 q 142 326 142 401 q 171 190 142 250 q 251 97 200 131 q 368 64 303 64 m 474 746 l 196 867 l 243 947 l 501 793 l 474 746 z "},"ő":{"ha":738,"x_min":47,"x_max":692,"o":"m 371 -22 q 204 22 278 -22 q 89 147 131 67 q 47 326 47 226 q 88 505 47 426 q 202 628 129 583 q 368 672 275 672 q 535 628 461 672 q 650 504 608 583 q 692 325 692 425 q 651 146 692 225 q 537 22 610 67 q 371 -22 464 -22 m 368 64 q 487 97 435 64 q 568 190 539 131 q 597 325 597 250 q 568 460 597 400 q 487 553 539 519 q 368 586 435 586 q 251 553 303 586 q 171 460 200 519 q 142 326 142 401 q 171 190 142 250 q 251 97 200 131 q 368 64 303 64 m 272 778 l 233 815 l 392 1038 l 458 971 l 272 778 m 469 778 l 431 815 l 589 1038 l 656 971 l 469 778 z "},"ȏ":{"ha":738,"x_min":47,"x_max":692,"o":"m 371 -22 q 204 22 278 -22 q 89 147 131 67 q 47 326 47 226 q 88 505 47 426 q 202 628 129 583 q 368 672 275 672 q 535 628 461 672 q 650 504 608 583 q 692 325 692 425 q 651 146 692 225 q 537 22 610 67 q 371 -22 464 -22 m 368 64 q 487 97 435 64 q 568 190 539 131 q 597 325 597 250 q 568 460 597 400 q 487 553 539 519 q 368 586 435 586 q 251 553 303 586 q 171 460 200 519 q 142 326 142 401 q 171 190 142 250 q 251 97 200 131 q 368 64 303 64 m 369 969 q 506 922 454 969 q 558 778 557 874 l 501 778 q 462 858 496 832 q 369 885 428 885 q 277 858 311 885 q 238 778 243 832 l 181 778 q 233 922 182 874 q 369 969 285 969 z "},"ō":{"ha":738,"x_min":47,"x_max":692,"o":"m 371 -22 q 204 22 278 -22 q 89 147 131 67 q 47 326 47 226 q 88 505 47 426 q 202 628 129 583 q 368 672 275 672 q 535 628 461 672 q 650 504 608 583 q 692 325 692 425 q 651 146 692 225 q 537 22 610 67 q 371 -22 464 -22 m 368 64 q 487 97 435 64 q 568 190 539 131 q 597 325 597 250 q 568 460 597 400 q 487 553 539 519 q 368 586 435 586 q 251 553 303 586 q 171 460 200 519 q 142 326 142 401 q 171 190 142 250 q 251 97 200 131 q 368 64 303 64 m 183 814 l 183 876 l 554 876 l 554 814 l 183 814 z "},"ṓ":{"ha":738,"x_min":47,"x_max":692,"o":"m 371 -22 q 204 22 278 -22 q 89 147 131 67 q 47 326 47 226 q 88 505 47 426 q 202 628 129 583 q 368 672 275 672 q 535 628 461 672 q 650 504 608 583 q 692 325 692 425 q 651 146 692 225 q 537 22 610 67 q 371 -22 464 -22 m 368 64 q 487 97 435 64 q 568 190 539 131 q 597 325 597 250 q 568 460 597 400 q 487 553 539 519 q 368 586 435 586 q 251 553 303 586 q 171 460 200 519 q 142 326 142 401 q 171 190 142 250 q 251 97 200 131 q 368 64 303 64 m 183 814 l 183 876 l 554 876 l 554 814 l 183 814 m 307 944 l 279 992 l 538 1146 l 585 1065 l 307 944 z "},"ṑ":{"ha":738,"x_min":47,"x_max":692,"o":"m 371 -22 q 204 22 278 -22 q 89 147 131 67 q 47 326 47 226 q 88 505 47 426 q 202 628 129 583 q 368 672 275 672 q 535 628 461 672 q 650 504 608 583 q 692 325 692 425 q 651 146 692 225 q 537 22 610 67 q 371 -22 464 -22 m 368 64 q 487 97 435 64 q 568 190 539 131 q 597 325 597 250 q 568 460 597 400 q 487 553 539 519 q 368 586 435 586 q 251 553 303 586 q 171 460 200 519 q 142 326 142 401 q 171 190 142 250 q 251 97 200 131 q 368 64 303 64 m 183 814 l 183 876 l 554 876 l 554 814 l 183 814 m 474 944 l 196 1065 l 243 1146 l 501 992 l 474 944 z "},"ǫ":{"ha":738,"x_min":47,"x_max":692,"o":"m 468 -8 q 388 -69 421 -31 q 356 -158 356 -108 q 367 -212 356 -182 q 395 -251 376 -237 q 440 -264 414 -264 q 501 -247 468 -264 l 518 -278 q 389 -317 447 -317 q 312 -294 344 -317 q 265 -229 279 -271 q 257 -183 257 -207 q 288 -94 257 -136 q 371 -22 318 -51 q 204 22 278 -22 q 89 147 131 67 q 47 326 47 226 q 88 505 47 426 q 202 628 129 583 q 368 672 275 672 q 535 628 461 672 q 650 504 608 583 q 692 325 692 425 q 631 113 692 203 q 468 -8 569 24 m 368 64 q 487 97 435 64 q 568 190 539 131 q 597 325 597 250 q 568 460 597 400 q 487 553 539 519 q 368 586 435 586 q 251 553 303 586 q 171 460 200 519 q 142 326 142 401 q 171 190 142 250 q 251 97 200 131 q 368 64 303 64 z "},"ɔ":{"ha":663,"x_min":35,"x_max":618,"o":"m 293 -22 q 148 12 215 -22 q 35 103 81 46 l 108 154 q 186 87 143 110 q 296 64 229 64 q 413 97 361 64 q 494 190 465 131 q 524 325 524 250 q 494 460 524 400 q 413 553 465 519 q 296 586 361 586 q 119 488 188 586 l 50 542 q 158 638 99 604 q 296 672 217 672 q 463 628 389 672 q 577 504 536 583 q 618 325 618 425 q 576 146 618 225 q 461 22 535 67 q 293 -22 388 -22 z "},"ø":{"ha":738,"x_min":47,"x_max":692,"o":"m 551 618 q 654 496 617 572 q 692 325 692 419 q 651 146 692 225 q 537 22 610 67 q 371 -22 464 -22 q 260 -4 317 -22 l 221 -86 l 150 -54 l 190 32 q 85 154 122 78 q 47 326 47 231 q 88 505 47 426 q 202 628 129 583 q 368 672 275 672 q 481 653 426 672 l 538 775 l 610 743 l 551 618 m 142 326 q 165 203 142 258 q 229 114 188 149 l 443 574 q 368 586 410 586 q 251 553 303 586 q 171 460 200 519 q 142 326 142 401 m 368 64 q 487 97 435 64 q 568 190 539 131 q 597 325 597 250 q 575 444 597 390 q 511 535 553 499 l 297 75 q 368 64 333 64 z "},"ǿ":{"ha":738,"x_min":47,"x_max":692,"o":"m 551 618 q 654 496 617 572 q 692 325 692 419 q 651 146 692 225 q 537 22 610 67 q 371 -22 464 -22 q 260 -4 317 -22 l 221 -86 l 150 -54 l 190 32 q 85 154 122 78 q 47 326 47 231 q 88 505 47 426 q 202 628 129 583 q 368 672 275 672 q 481 653 426 672 l 538 775 l 610 743 l 551 618 m 142 326 q 165 203 142 258 q 229 114 188 149 l 443 574 q 368 586 410 586 q 251 553 303 586 q 171 460 200 519 q 142 326 142 401 m 368 64 q 487 97 435 64 q 568 190 539 131 q 597 325 597 250 q 575 444 597 390 q 511 535 553 499 l 297 75 q 368 64 333 64 m 307 746 l 279 793 l 538 947 l 585 867 l 307 746 z "},"õ":{"ha":738,"x_min":47,"x_max":692,"o":"m 371 -22 q 204 22 278 -22 q 89 147 131 67 q 47 326 47 226 q 88 505 47 426 q 202 628 129 583 q 368 672 275 672 q 535 628 461 672 q 650 504 608 583 q 692 325 692 425 q 651 146 692 225 q 537 22 610 67 q 371 -22 464 -22 m 368 64 q 487 97 435 64 q 568 190 539 131 q 597 325 597 250 q 568 460 597 400 q 487 553 539 519 q 368 586 435 586 q 251 553 303 586 q 171 460 200 519 q 142 326 142 401 q 171 190 142 250 q 251 97 200 131 q 368 64 303 64 m 131 769 q 178 894 138 838 q 281 950 219 950 q 332 938 310 950 q 386 901 354 926 q 433 869 414 879 q 474 858 451 858 q 522 885 503 858 q 543 950 540 911 l 607 950 q 562 824 600 878 q 460 769 524 769 q 410 781 429 769 q 364 815 390 792 q 320 848 339 838 q 274 858 301 858 q 219 837 238 858 q 193 769 200 815 l 131 769 z "},"ṍ":{"ha":738,"x_min":47,"x_max":692,"o":"m 294 990 l 267 1038 l 525 1192 l 572 1111 l 294 990 m 154 769 q 197 894 160 838 q 289 950 233 950 q 336 938 315 950 q 383 901 357 925 q 425 869 408 879 q 463 858 442 858 q 506 885 489 858 q 525 950 522 911 l 583 950 q 542 823 576 876 q 450 769 508 769 q 406 781 424 769 q 364 815 388 792 q 324 848 340 838 q 283 858 308 858 q 234 837 250 858 q 210 769 218 815 l 154 769 m 371 -22 q 204 22 278 -22 q 89 147 131 67 q 47 326 47 226 q 88 505 47 426 q 202 628 129 583 q 368 672 275 672 q 535 628 461 672 q 650 504 608 583 q 692 325 692 425 q 651 146 692 225 q 537 22 610 67 q 371 -22 464 -22 m 368 64 q 487 97 435 64 q 568 190 539 131 q 597 325 597 250 q 568 460 597 400 q 487 553 539 519 q 368 586 435 586 q 251 553 303 586 q 171 460 200 519 q 142 326 142 401 q 171 190 142 250 q 251 97 200 131 q 368 64 303 64 z "},"ȭ":{"ha":738,"x_min":47,"x_max":692,"o":"m 371 -22 q 204 22 278 -22 q 89 147 131 67 q 47 326 47 226 q 88 505 47 426 q 202 628 129 583 q 368 672 275 672 q 535 628 461 672 q 650 504 608 583 q 692 325 692 425 q 651 146 692 225 q 537 22 610 67 q 371 -22 464 -22 m 368 64 q 487 97 435 64 q 568 190 539 131 q 597 325 597 250 q 568 460 597 400 q 487 553 539 519 q 368 586 435 586 q 251 553 303 586 q 171 460 200 519 q 142 326 142 401 q 171 190 142 250 q 251 97 200 131 q 368 64 303 64 m 131 769 q 178 894 138 838 q 281 950 219 950 q 332 938 310 950 q 386 901 354 926 q 433 869 414 879 q 474 858 451 858 q 522 885 503 858 q 543 950 540 911 l 607 950 q 562 824 600 878 q 460 769 524 769 q 410 781 429 769 q 364 815 390 792 q 320 848 339 838 q 274 858 301 858 q 219 837 238 858 q 193 769 200 815 l 131 769 m 169 1058 l 169 1121 l 540 1121 l 540 1058 l 169 1058 z "},"ȣ":{"ha":722,"x_min":88,"x_max":694,"o":"m 390 -22 q 167 46 247 -22 q 88 236 88 114 q 138 389 88 322 q 279 490 189 456 q 167 581 207 522 q 128 711 128 639 q 144 803 128 760 q 192 878 161 847 l 272 833 q 232 781 246 813 q 218 711 218 749 q 264 598 218 650 q 390 515 310 546 q 518 598 472 546 q 564 711 564 650 q 550 772 564 739 q 511 836 536 806 l 590 881 q 638 795 621 840 q 654 711 654 750 q 614 582 654 640 q 501 490 574 524 q 643 388 592 456 q 694 236 694 321 q 614 46 694 114 q 390 -22 533 -22 m 390 64 q 548 113 492 64 q 604 250 604 163 q 548 371 604 315 q 390 460 492 426 q 233 379 289 435 q 176 250 176 324 q 233 113 176 163 q 390 64 289 64 z "},"œ":{"ha":1279,"x_min":47,"x_max":1228,"o":"m 918 672 q 1076 629 1006 672 q 1188 512 1147 586 q 1228 346 1228 438 q 1226 306 1228 319 l 692 306 q 757 135 697 206 q 919 64 817 64 q 1058 95 1003 64 q 1146 182 1113 126 l 1221 132 q 1100 19 1175 60 q 922 -22 1025 -22 q 759 19 832 -22 q 644 135 686 61 q 532 19 603 61 q 371 -22 461 -22 q 204 22 278 -22 q 89 146 131 67 q 47 326 47 225 q 88 505 47 426 q 202 628 129 583 q 368 672 275 672 q 531 631 458 672 q 644 515 603 589 q 757 631 686 589 q 918 672 828 672 m 368 64 q 487 97 435 64 q 568 190 539 131 q 597 325 597 250 q 568 460 597 400 q 487 553 539 519 q 368 586 435 586 q 251 553 303 586 q 171 460 200 519 q 142 326 142 401 q 171 190 142 250 q 251 97 200 131 q 368 64 303 64 m 1133 383 q 1065 535 1119 485 q 918 586 1011 586 q 770 528 828 586 q 697 383 713 471 l 1133 383 z "},"p":{"ha":779,"x_min":89,"x_max":733,"o":"m 410 672 q 576 628 503 672 q 692 504 650 583 q 733 324 733 425 q 692 145 733 224 q 578 22 651 67 q 413 -22 506 -22 q 283 9 342 -22 q 183 97 224 40 l 183 -278 l 89 -278 l 89 650 l 183 650 l 183 554 q 282 641 224 610 q 410 672 340 672 m 413 64 q 529 97 478 64 q 610 190 581 131 q 639 324 639 249 q 610 460 639 400 q 529 553 581 519 q 413 586 478 586 q 294 553 346 586 q 213 460 242 519 q 183 325 183 400 q 213 190 183 250 q 294 97 242 131 q 413 64 346 64 z "},"ṗ":{"ha":779,"x_min":89,"x_max":733,"o":"m 410 672 q 576 628 503 672 q 692 504 650 583 q 733 324 733 425 q 692 145 733 224 q 578 22 651 67 q 413 -22 506 -22 q 283 9 342 -22 q 183 97 224 40 l 183 -278 l 89 -278 l 89 650 l 183 650 l 183 554 q 282 641 224 610 q 410 672 340 672 m 413 64 q 529 97 478 64 q 610 190 581 131 q 639 324 639 249 q 610 460 639 400 q 529 553 581 519 q 413 586 478 586 q 294 553 346 586 q 213 460 242 519 q 183 325 183 400 q 213 190 183 250 q 294 97 242 131 q 413 64 346 64 m 418 776 q 365 799 386 776 q 343 853 343 821 q 365 905 343 883 q 418 926 386 926 q 471 905 449 926 q 493 851 493 883 q 471 799 493 821 q 418 776 449 776 z "},"ƥ":{"ha":778,"x_min":88,"x_max":732,"o":"m 411 672 q 577 628 504 672 q 691 505 650 583 q 732 326 732 426 q 690 146 732 225 q 575 22 649 67 q 408 -22 501 -22 q 281 9 339 -22 q 182 96 222 40 l 182 -278 l 88 -278 l 88 676 q 142 826 88 772 q 292 881 196 881 l 333 881 l 333 794 l 292 794 q 211 765 240 794 q 182 683 182 736 l 182 553 q 281 641 222 610 q 411 672 340 672 m 411 64 q 528 97 476 64 q 608 190 579 131 q 638 326 638 250 q 608 460 638 401 q 528 553 579 519 q 411 586 476 586 q 292 553 344 586 q 211 460 240 519 q 182 325 182 400 q 211 190 182 250 q 292 97 240 131 q 411 64 344 64 z "},"þ":{"ha":785,"x_min":94,"x_max":739,"o":"m 415 672 q 582 628 508 672 q 697 504 656 583 q 739 324 739 425 q 698 145 739 224 q 584 22 657 67 q 418 -22 511 -22 q 288 9 347 -22 q 189 97 229 40 l 189 -278 l 94 -278 l 94 947 l 189 947 l 189 554 q 288 641 229 610 q 415 672 346 672 m 418 64 q 535 97 483 64 q 615 190 586 131 q 644 324 644 249 q 615 460 644 400 q 535 553 586 519 q 418 586 483 586 q 299 553 351 586 q 218 460 247 519 q 189 325 189 400 q 218 190 189 250 q 299 97 247 131 q 418 64 351 64 z "},"q":{"ha":779,"x_min":49,"x_max":693,"o":"m 693 650 l 693 -278 l 599 -278 l 599 97 q 499 9 558 40 q 369 -22 440 -22 q 203 22 276 -22 q 90 145 131 67 q 49 324 49 224 q 90 504 49 425 q 206 628 132 583 q 372 672 279 672 q 500 641 442 672 q 599 554 558 610 l 599 650 l 693 650 m 369 64 q 488 97 436 64 q 569 190 540 131 q 599 325 599 250 q 569 460 599 400 q 488 553 540 519 q 369 586 436 586 q 253 553 304 586 q 172 460 201 519 q 143 324 143 400 q 172 190 143 249 q 253 97 201 131 q 369 64 304 64 z "},"ɋ":{"ha":779,"x_min":47,"x_max":843,"o":"m 843 -192 l 843 -278 l 801 -278 q 651 -224 706 -278 q 597 -74 597 -169 l 597 96 q 499 9 557 40 q 371 -22 440 -22 q 204 22 278 -22 q 89 146 131 67 q 47 326 47 225 q 88 505 47 426 q 202 628 129 583 q 368 672 275 672 q 498 641 439 672 q 597 553 557 610 l 597 650 l 692 650 l 692 -81 q 721 -162 692 -133 q 801 -192 750 -192 l 843 -192 m 368 64 q 487 97 435 64 q 568 190 539 131 q 597 325 597 250 q 568 460 597 400 q 487 553 539 519 q 368 586 435 586 q 251 553 303 586 q 171 460 200 519 q 142 326 142 401 q 171 190 142 250 q 251 97 200 131 q 368 64 303 64 z "},"r":{"ha":471,"x_min":88,"x_max":471,"o":"m 407 672 q 471 663 440 672 l 471 576 q 407 590 442 590 q 296 557 347 590 q 213 460 244 524 q 182 311 182 397 l 182 0 l 88 0 l 88 650 l 182 650 l 182 519 q 277 632 219 592 q 407 672 335 672 z "},"ŕ":{"ha":471,"x_min":88,"x_max":563,"o":"m 407 672 q 471 663 440 672 l 471 576 q 407 590 442 590 q 296 557 347 590 q 213 460 244 524 q 182 311 182 397 l 182 0 l 88 0 l 88 650 l 182 650 l 182 519 q 277 632 219 592 q 407 672 335 672 m 285 746 l 257 793 l 515 947 l 563 867 l 285 746 z "},"ř":{"ha":471,"x_min":88,"x_max":535,"o":"m 407 672 q 471 663 440 672 l 471 576 q 407 590 442 590 q 296 557 347 590 q 213 460 244 524 q 182 311 182 397 l 182 0 l 88 0 l 88 650 l 182 650 l 182 519 q 277 632 219 592 q 407 672 335 672 m 346 760 l 158 932 l 185 979 l 346 872 l 508 979 l 535 932 l 346 760 z "},"ŗ":{"ha":471,"x_min":63,"x_max":471,"o":"m 407 672 q 471 663 440 672 l 471 576 q 407 590 442 590 q 296 557 347 590 q 213 460 244 524 q 182 311 182 397 l 182 0 l 88 0 l 88 650 l 182 650 l 182 519 q 277 632 219 592 q 407 672 335 672 m 64 -344 q 142 -206 142 -293 q 85 -184 108 -206 q 63 -129 63 -162 q 83 -74 63 -94 q 138 -54 104 -54 q 194 -80 172 -54 q 217 -144 217 -106 q 178 -276 217 -212 q 78 -371 139 -339 l 64 -344 z "},"ȑ":{"ha":471,"x_min":72,"x_max":494,"o":"m 407 672 q 471 663 440 672 l 471 576 q 407 590 442 590 q 296 557 347 590 q 213 460 244 524 q 182 311 182 397 l 182 0 l 88 0 l 88 650 l 182 650 l 182 519 q 277 632 219 592 q 407 672 335 672 m 258 778 l 72 971 l 139 1038 l 297 815 l 258 778 m 456 778 l 269 971 l 336 1038 l 494 815 l 456 778 z "},"ṛ":{"ha":471,"x_min":65,"x_max":471,"o":"m 407 672 q 471 663 440 672 l 471 576 q 407 590 442 590 q 296 557 347 590 q 213 460 244 524 q 182 311 182 397 l 182 0 l 88 0 l 88 650 l 182 650 l 182 519 q 277 632 219 592 q 407 672 335 672 m 140 -254 q 87 -232 108 -254 q 65 -178 65 -210 q 87 -126 65 -147 q 140 -104 108 -104 q 193 -126 171 -104 q 215 -179 215 -147 q 193 -232 215 -210 q 140 -254 171 -254 z "},"ɾ":{"ha":596,"x_min":79,"x_max":599,"o":"m 79 325 q 151 581 79 489 q 353 672 224 672 q 503 632 439 672 q 599 519 568 592 l 519 472 q 450 557 493 528 q 353 586 407 586 q 221 517 268 586 q 174 325 174 449 l 174 0 l 79 0 l 79 325 z "},"ɽ":{"ha":471,"x_min":88,"x_max":471,"o":"m 407 672 q 471 663 440 672 l 471 576 q 407 590 442 590 q 296 557 347 590 q 213 460 244 524 q 182 311 182 397 l 182 -81 q 211 -162 182 -133 q 292 -192 240 -192 l 333 -192 l 333 -278 l 292 -278 q 142 -224 196 -278 q 88 -74 88 -169 l 88 650 l 182 650 l 182 519 q 277 632 219 592 q 407 672 335 672 z "},"ȓ":{"ha":471,"x_min":88,"x_max":536,"o":"m 407 672 q 471 663 440 672 l 471 576 q 407 590 442 590 q 296 557 347 590 q 213 460 244 524 q 182 311 182 397 l 182 0 l 88 0 l 88 650 l 182 650 l 182 519 q 277 632 219 592 q 407 672 335 672 m 347 969 q 483 922 432 969 q 536 778 535 874 l 479 778 q 440 858 474 832 q 347 885 406 885 q 255 858 289 885 q 215 778 221 832 l 158 778 q 211 922 160 874 q 347 969 263 969 z "},"ṟ":{"ha":471,"x_min":86,"x_max":471,"o":"m 407 672 q 471 663 440 672 l 471 576 q 407 590 442 590 q 296 557 347 590 q 213 460 244 524 q 182 311 182 397 l 182 0 l 88 0 l 88 650 l 182 650 l 182 519 q 277 632 219 592 q 407 672 335 672 m 86 -158 l 86 -96 l 457 -96 l 457 -158 l 86 -158 z "},"ɹ":{"ha":656,"x_min":54,"x_max":568,"o":"m 310 0 q 122 57 189 0 q 54 215 54 114 q 99 338 54 286 q 222 414 143 390 l 57 650 l 172 650 l 326 431 l 474 431 l 474 650 l 568 650 l 568 0 l 310 0 m 474 86 l 474 344 l 354 344 q 211 310 263 344 q 160 215 160 276 q 200 120 160 154 q 313 86 240 86 l 474 86 z "},"s":{"ha":644,"x_min":42,"x_max":589,"o":"m 317 -22 q 151 18 222 -22 q 42 132 79 58 l 126 174 q 328 64 178 64 q 447 90 400 64 q 494 172 494 117 q 456 257 494 229 q 322 293 418 285 q 131 353 189 304 q 74 482 74 401 q 139 622 74 572 q 318 672 204 672 q 581 519 511 672 l 496 478 q 427 560 472 533 q 311 586 382 586 q 201 560 239 586 q 163 485 163 533 q 203 410 163 439 q 344 374 244 382 q 528 313 468 363 q 589 183 589 264 q 551 72 589 118 q 451 1 514 25 q 317 -22 389 -22 z "},"ś":{"ha":644,"x_min":42,"x_max":589,"o":"m 317 -22 q 151 18 222 -22 q 42 132 79 58 l 126 174 q 328 64 178 64 q 447 90 400 64 q 494 172 494 117 q 456 257 494 229 q 322 293 418 285 q 131 353 189 304 q 74 482 74 401 q 139 622 74 572 q 318 672 204 672 q 581 519 511 672 l 496 478 q 427 560 472 533 q 311 586 382 586 q 201 560 239 586 q 163 485 163 533 q 203 410 163 439 q 344 374 244 382 q 528 313 468 363 q 589 183 589 264 q 551 72 589 118 q 451 1 514 25 q 317 -22 389 -22 m 260 746 l 232 793 l 490 947 l 538 867 l 260 746 z "},"ꞌ":{"ha":258,"x_min":82,"x_max":176,"o":"m 96 631 l 82 947 l 176 947 l 163 631 l 96 631 z "},"š":{"ha":644,"x_min":42,"x_max":589,"o":"m 317 -22 q 151 18 222 -22 q 42 132 79 58 l 126 174 q 328 64 178 64 q 447 90 400 64 q 494 172 494 117 q 456 257 494 229 q 322 293 418 285 q 131 353 189 304 q 74 482 74 401 q 139 622 74 572 q 318 672 204 672 q 581 519 511 672 l 496 478 q 427 560 472 533 q 311 586 382 586 q 201 560 239 586 q 163 485 163 533 q 203 410 163 439 q 344 374 244 382 q 528 313 468 363 q 589 183 589 264 q 551 72 589 118 q 451 1 514 25 q 317 -22 389 -22 m 321 760 l 133 932 l 160 979 l 321 872 l 483 979 l 510 932 l 321 760 z "},"ş":{"ha":644,"x_min":42,"x_max":589,"o":"m 589 183 q 521 41 589 94 q 351 -21 453 -12 l 315 -94 q 425 -118 386 -94 q 464 -174 464 -142 q 179 -278 464 -278 l 179 -240 q 311 -224 249 -240 q 374 -182 374 -210 q 363 -159 374 -167 q 319 -147 351 -151 q 224 -143 288 -143 l 281 -21 q 137 26 199 -14 q 42 132 75 65 l 126 174 q 328 64 178 64 q 447 90 400 64 q 494 172 494 117 q 456 257 494 229 q 322 293 418 285 q 131 353 189 304 q 74 482 74 401 q 139 622 74 572 q 318 672 204 672 q 581 519 511 672 l 496 478 q 427 560 472 533 q 311 586 382 586 q 201 560 239 586 q 163 485 163 533 q 203 410 163 439 q 344 374 244 382 q 528 313 468 363 q 589 183 589 264 z "}}}
